<svg xmlns="http://www.w3.org/2000/svg" viewBox="0 0 112.44 112.44"><defs><style>.cls-1{fill:#2c378f;}.cls-2{fill:#fff;}</style></defs><g id="icons"><path class="cls-1" d="M56.18,12a2,2,0,0,0-1.61,1.12L47.79,24.44H64.57L57.8,13.09A2,2,0,0,0,56.18,12Z"/><path class="cls-1" d="M69.14,81.05c.15-.35.28-.73.42-1.09L80.43,99.14a1.15,1.15,0,0,0,1,.57l.3,0a1.13,1.13,0,0,0,.84-1.1l0-25.79a1.1,1.1,0,0,0-.2-.63L74.49,60.63a1.12,1.12,0,0,0-.87-.49c.12-1.9.2-3.82.2-5.78V52.15c0-3.39,0-6.59-.07-9.65,0-.55.07-1,.07-1.49a17.75,17.75,0,0,0-.27-3,17.09,17.09,0,0,0-.49-2.12,17.54,17.54,0,0,0-4.69-7.62l-.08-.09-3.05-3.08H47.11l-3.42,3.45-.13.15A17.65,17.65,0,0,0,39.3,35.9c-.1.32-.18.65-.26,1a18.18,18.18,0,0,0-.5,4.12c0,.18,0,.4,0,.63a14.89,14.89,0,0,0,0,1.77c-.08,2.37,0,4.63,0,7,0,1.26,0,2.55,0,3.92,0,2,.08,3.89.21,5.79a1.13,1.13,0,0,0-.8.48L30.13,72.15a1.1,1.1,0,0,0-.2.63l-.05,25.79a1.13,1.13,0,0,0,.85,1.1l.29,0a1.15,1.15,0,0,0,1-.57L42.84,80.05c.13.33.24.68.38,1,2.67,6.34,6.21,10.36,10.18,11.63L50.78,80.74a1.06,1.06,0,0,1,0-.53l4.38-17.32a1.13,1.13,0,0,1,1.1-.86h0a1.14,1.14,0,0,1,1.1.87L61.53,80a1.2,1.2,0,0,1,0,.5L59,92.66C63,91.36,66.49,87.35,69.14,81.05Zm-13-21.73A11.72,11.72,0,1,1,67.87,47.61,11.72,11.72,0,0,1,56.16,59.32Z"/><polygon class="cls-1" points="54.63 92.98 56.27 100.47 57.81 92.97 60.42 80.23 56.27 63.17 51.89 80.49 54.63 92.98"/><polygon class="cls-2" points="47.78 24.44 47.11 25.11 65.24 25.11 64.57 24.44 47.78 24.44"/><path class="cls-1" d="M56.16,38.17a9.44,9.44,0,1,0,9.44,9.44A9.44,9.44,0,0,0,56.16,38.17Z"/><path class="cls-2" d="M56.16,35.89A11.72,11.72,0,1,0,67.87,47.61,11.72,11.72,0,0,0,56.16,35.89Zm0,21.15a9.44,9.44,0,1,1,9.44-9.43A9.44,9.44,0,0,1,56.16,57Z"/><path class="cls-2" d="M53.27,55.15c.31-.11.62-.21.91-.33a5,5,0,0,0,2-1.43,3.47,3.47,0,0,0-1.94-5.62l-.14,0c.15,0,.31-.06.46-.11a2.69,2.69,0,0,0,1.26-.92,3.78,3.78,0,0,0,.88-2.34,3.08,3.08,0,0,0-1.38-2.7,5.32,5.32,0,0,0-2.06-.88c-.4-.1-.81-.16-1.21-.23l.07,0a8.09,8.09,0,0,1,11.92,5.33A8.15,8.15,0,0,1,58,55.55a7.6,7.6,0,0,1-4.66-.38l0,0"/><path class="cls-2" d="M50,46.69H48.27c-.07,0-.09,0-.09-.1a4.52,4.52,0,0,1,.18-1.09,7.2,7.2,0,0,1,1.19-2.61l.07-.13a.45.45,0,0,1,.45-.28l1.22,0a8.1,8.1,0,0,1,1,.06,2.34,2.34,0,0,1,2,1.41,1.72,1.72,0,0,1-.57,2.14,3.09,3.09,0,0,1-1.34.54,6.08,6.08,0,0,1-1.28.09c-.34,0-.69,0-1,0Z"/><path class="cls-2" d="M50.06,48.51c.31,0,.63,0,.94,0a5.11,5.11,0,0,1,2.09.3,2.24,2.24,0,0,1,.94.66,1.72,1.72,0,0,1,.15,2,2.34,2.34,0,0,1-1.69,1.22,6.25,6.25,0,0,1-.87.07c-.47,0-.95,0-1.42,0l-.23,0a.37.37,0,0,1-.29-.17c-.18-.29-.38-.58-.55-.89a7.69,7.69,0,0,1-.92-2.72c0-.11,0-.22,0-.33a.08.08,0,0,1,.09-.09h1.79Z"/></g></svg>