<svg xmlns="http://www.w3.org/2000/svg" viewBox="0 0 112.44 112.44"><defs><style>.cls-1{fill:#fff;}.cls-2{fill:#2c378f;}</style></defs><g id="grid"><rect class="cls-1" x="4.63" y="5.05" width="102.51" height="102.51"/></g><g id="icons"><path class="cls-2" d="M64.55,44.79,57,37.23a1.08,1.08,0,0,0-1.51,0l-13.3,13.3a12.51,12.51,0,0,1-5.45,3.19,12.48,12.48,0,0,0-5.46,3.19L15.47,72.72a4.27,4.27,0,0,0,0,6L23,86.32a4.29,4.29,0,0,0,6,0L44.87,70.5a12.41,12.41,0,0,0,3.19-5.45,12.54,12.54,0,0,1,3.19-5.46L64.55,46.3A1.06,1.06,0,0,0,64.55,44.79Z"/><path class="cls-2" d="M60,32.7a1.06,1.06,0,0,0,0,1.51l7.55,7.56a1.08,1.08,0,0,0,1.51,0l2.11-2.12A108.77,108.77,0,0,1,80.57,51.8a28,28,0,0,1,7.47,2c.48-5.94-1.13-14.64-7.64-23.33l.76-.76a1.06,1.06,0,0,0,0-1.51l-7.55-7.55a1.08,1.08,0,0,0-1.51,0l-.67.67C60.09,12.42,48.74,12,43.24,14a1.5,1.5,0,0,0-.13,2.75,99.17,99.17,0,0,1,19,13.86ZM77.26,56.93A22.43,22.43,0,1,0,99.69,79.35,22.42,22.42,0,0,0,77.26,56.93Z"/><path class="cls-1" d="M71.67,93.67c.59-.22,1.17-.4,1.73-.63a9.49,9.49,0,0,0,3.84-2.71,6.58,6.58,0,0,0-3.67-10.66l-.27,0a7.7,7.7,0,0,0,.87-.2,5.13,5.13,0,0,0,2.39-1.74,7.27,7.27,0,0,0,1.68-4.45,5.87,5.87,0,0,0-2.62-5.12,10.63,10.63,0,0,0-3.91-1.68c-.76-.17-1.54-.29-2.31-.43l.13-.09A15.11,15.11,0,0,1,75.18,64a15.46,15.46,0,0,1,5.43,30.39,14.39,14.39,0,0,1-8.84-.7l-.1,0"/><path class="cls-1" d="M65.53,77.62h-3.1a2.18,2.18,0,0,0-.25,0c-.14,0-.18-.06-.17-.19a9,9,0,0,1,.33-2.06,14,14,0,0,1,2.26-5c.05-.08.11-.16.15-.24a.86.86,0,0,1,.84-.54c.77,0,1.55,0,2.32,0a16.79,16.79,0,0,1,1.88.1,4.43,4.43,0,0,1,3.73,2.68,3.27,3.27,0,0,1-1.08,4.05,5.87,5.87,0,0,1-2.53,1,11.83,11.83,0,0,1-2.45.16H65.53Z"/><path class="cls-1" d="M65.57,81.08c.6,0,1.2,0,1.79,0a9.68,9.68,0,0,1,4,.57A4,4,0,0,1,73.1,82.9a3.24,3.24,0,0,1,.28,3.73,4.38,4.38,0,0,1-3.19,2.31,10.33,10.33,0,0,1-1.66.14c-.9,0-1.79,0-2.69,0-.15,0-.3,0-.44,0a.7.7,0,0,1-.54-.33c-.36-.55-.73-1.1-1.06-1.68a15.15,15.15,0,0,1-1.74-5.16c0-.21,0-.42,0-.63s0-.16.16-.16h3.39Z"/></g></svg>