<svg xmlns="http://www.w3.org/2000/svg" viewBox="0 0 112.44 112.44"><defs><style>.cls-1{fill:#fff;}.cls-2{fill:#2c378f;}</style></defs><g id="grid"><rect class="cls-1" x="1.85" y="2.05" width="107.51" height="107.51"/></g><g id="icons"><path class="cls-2" d="M81.37,78.42H73.52v3.36h7.85a1.68,1.68,0,0,0,0-3.36Zm-3.93-23A20.16,20.16,0,1,0,97.6,75.62,20.15,20.15,0,0,0,77.44,55.47Z"/><path class="cls-2" d="M70.59,18.07a29,29,0,0,0-28.3,22.76A18.89,18.89,0,1,0,31.52,76H51.7c0-.13,0-.24,0-.37A25.73,25.73,0,0,1,97,58.92,28.93,28.93,0,0,0,70.59,18.07Z"/><path class="cls-1" d="M72.09,90.19c.59-.21,1.17-.4,1.73-.63a9.59,9.59,0,0,0,3.85-2.71A6.58,6.58,0,0,0,74,76.19l-.27,0a7.38,7.38,0,0,0,.88-.2A5.1,5.1,0,0,0,77,74.2a7.19,7.19,0,0,0,1.68-4.44A5.88,5.88,0,0,0,76,64.63,10.47,10.47,0,0,0,72.13,63c-.76-.18-1.53-.29-2.3-.44a.74.74,0,0,1,.13-.08,15.13,15.13,0,0,1,5.65-1.9A15.46,15.46,0,0,1,81,90.94a14.48,14.48,0,0,1-8.84-.7l-.1,0"/><path class="cls-1" d="M66,74.14H62.6c-.13,0-.17,0-.17-.18a9,9,0,0,1,.34-2.07,14,14,0,0,1,2.25-5,.75.75,0,0,0,.15-.24.84.84,0,0,1,.84-.53c.78,0,1.55,0,2.33,0a16.79,16.79,0,0,1,1.88.1A4.43,4.43,0,0,1,74,68.9,3.28,3.28,0,0,1,72.86,73a5.8,5.8,0,0,1-2.53,1,11.74,11.74,0,0,1-2.44.17c-.65,0-1.29,0-1.94,0Z"/><path class="cls-1" d="M66,77.6c.59,0,1.19,0,1.79,0a9.72,9.72,0,0,1,4,.56,4.15,4.15,0,0,1,1.77,1.26,3.24,3.24,0,0,1,.29,3.73,4.36,4.36,0,0,1-3.2,2.31A9.15,9.15,0,0,1,69,85.6c-.89,0-1.79,0-2.68,0-.15,0-.3,0-.45,0a.67.67,0,0,1-.53-.32c-.36-.56-.73-1.11-1.06-1.69a15,15,0,0,1-1.75-5.16c0-.2,0-.42,0-.62s.05-.17.17-.17H66Z"/></g></svg>