<svg xmlns="http://www.w3.org/2000/svg" viewBox="0 0 112.44 112.44"><defs><style>.cls-1{fill:#fff;}.cls-2{fill:#2c378f;}</style></defs><g id="grid"><rect class="cls-1" x="3.66" y="4.05" width="103.18" height="103.18"/></g><g id="icons"><path class="cls-2" d="M89.37,18.56H76.47a4.31,4.31,0,0,0-4.3,4.3v12.9a4.3,4.3,0,0,0,4.3,4.3H79.7v9.67a3.23,3.23,0,1,0,6.45,0V40.06h3.22a4.29,4.29,0,0,0,4.3-4.3V22.86A4.3,4.3,0,0,0,89.37,18.56ZM82.92,59.41a3.22,3.22,0,0,0-3.22,3.22v2.15a3.23,3.23,0,1,0,6.45,0V62.63A3.23,3.23,0,0,0,82.92,59.41Z"/><path class="cls-2" d="M63,32.54h2.15a3.23,3.23,0,0,0,0-6.45H63a3.23,3.23,0,1,0,0,6.45ZM36.17,73.38H32.94V63.71a3.23,3.23,0,1,0-6.45,0v9.67H23.27a4.31,4.31,0,0,0-4.3,4.3v12.9a4.31,4.31,0,0,0,4.3,4.3h12.9a4.31,4.31,0,0,0,4.3-4.3V77.68A4.31,4.31,0,0,0,36.17,73.38ZM29.72,88.43a4.3,4.3,0,1,1,4.3-4.3A4.3,4.3,0,0,1,29.72,88.43Zm0-34.4a3.22,3.22,0,0,0,3.22-3.22V48.66a3.23,3.23,0,0,0-6.45,0v2.15A3.23,3.23,0,0,0,29.72,54ZM89.37,73.38H76.47a4.31,4.31,0,0,0-4.3,4.3V80.9H62.5a3.23,3.23,0,0,0,0,6.45h9.67v3.23a4.31,4.31,0,0,0,4.3,4.3h12.9a4.3,4.3,0,0,0,4.3-4.3V77.68A4.3,4.3,0,0,0,89.37,73.38ZM82.92,88.43a4.3,4.3,0,1,1,4.3-4.3A4.31,4.31,0,0,1,82.92,88.43ZM50.14,26.09H40.47V22.86a4.31,4.31,0,0,0-4.3-4.3H23.27a4.31,4.31,0,0,0-4.3,4.3v12.9a4.3,4.3,0,0,0,4.3,4.3h12.9a4.3,4.3,0,0,0,4.3-4.3V32.54h9.67a3.23,3.23,0,1,0,0-6.45ZM29.72,33.61a4.3,4.3,0,1,1,4.3-4.3A4.29,4.29,0,0,1,29.72,33.61ZM49.6,80.9H47.45a3.23,3.23,0,0,0,0,6.45H49.6a3.23,3.23,0,1,0,0-6.45Z"/></g></svg>