<svg xmlns="http://www.w3.org/2000/svg" viewBox="0 0 112.44 112.44"><defs><style>.cls-1{fill:#fff;}.cls-2{fill:#2c378f;}</style></defs><g id="grid"><rect class="cls-1" x="4.99" y="7.21" width="103.23" height="103.23"/></g><g id="icons"><path class="cls-2" d="M72.73,59.9H34a2.15,2.15,0,0,1-2.15-2.15V38.39A2.16,2.16,0,0,1,34,36.24h14c0-.36-.06-.71-.06-1.07a24.54,24.54,0,0,1,3.68-12.91H31.87a8.61,8.61,0,0,0-8.6,8.61V95.38a8.61,8.61,0,0,0,8.6,8.61H72.73a8.62,8.62,0,0,0,8.61-8.61v-37A24.63,24.63,0,0,1,72.73,59.9ZM39.4,95.38H35.1a3.23,3.23,0,1,1,0-6.45h4.3a3.23,3.23,0,1,1,0,6.45Zm0-10.75H35.1a3.23,3.23,0,1,1,0-6.45h4.3a3.23,3.23,0,1,1,0,6.45Zm0-10.75H35.1a3.23,3.23,0,1,1,0-6.45h4.3a3.23,3.23,0,1,1,0,6.45Zm15.05,21.5h-4.3a3.23,3.23,0,0,1,0-6.45h4.3a3.23,3.23,0,1,1,0,6.45Zm0-10.75h-4.3a3.23,3.23,0,0,1,0-6.45h4.3a3.23,3.23,0,1,1,0,6.45Zm0-10.75h-4.3a3.23,3.23,0,0,1,0-6.45h4.3a3.23,3.23,0,1,1,0,6.45ZM72.73,92.16a3.22,3.22,0,0,1-3.22,3.22h-4.3A3.22,3.22,0,0,1,62,92.16V81.4a3.22,3.22,0,0,1,3.23-3.22h4.3a3.22,3.22,0,0,1,3.22,3.22ZM69.51,73.88h-4.3a3.23,3.23,0,1,1,0-6.45h4.3a3.23,3.23,0,0,1,0,6.45Z"/><path class="cls-2" d="M72.73,15.81A19.36,19.36,0,1,0,92.09,35.17,19.35,19.35,0,0,0,72.73,15.81Z"/><path class="cls-1" d="M67.14,49.63c.59-.22,1.17-.4,1.73-.63a9.59,9.59,0,0,0,3.85-2.71A6.58,6.58,0,0,0,69,35.63l-.27-.05a7.7,7.7,0,0,0,.87-.2A5.13,5.13,0,0,0,72,33.64a7.21,7.21,0,0,0,1.68-4.45,5.87,5.87,0,0,0-2.62-5.12,10.56,10.56,0,0,0-3.91-1.68c-.76-.17-1.53-.29-2.31-.43l.14-.09A15.05,15.05,0,0,1,70.66,20a15.46,15.46,0,0,1,5.42,30.4,14.4,14.4,0,0,1-8.84-.71l-.1,0"/><path class="cls-1" d="M61,33.58H57.65c-.13,0-.17-.06-.17-.19a9,9,0,0,1,.34-2.06,13.85,13.85,0,0,1,2.25-5,1.58,1.58,0,0,0,.15-.24.86.86,0,0,1,.84-.54c.77,0,1.55,0,2.33,0a16.74,16.74,0,0,1,1.87.1A4.44,4.44,0,0,1,69,28.34a3.27,3.27,0,0,1-1.09,4.05,5.87,5.87,0,0,1-2.53,1,11.79,11.79,0,0,1-2.45.16c-.64,0-1.29,0-1.93,0Z"/><path class="cls-1" d="M61,37c.6,0,1.2,0,1.8,0a9.73,9.73,0,0,1,4,.57,4,4,0,0,1,1.77,1.26,3.26,3.26,0,0,1,.29,3.73,4.42,4.42,0,0,1-3.2,2.31A10.24,10.24,0,0,1,64,45c-.89,0-1.79,0-2.69,0-.15,0-.29,0-.44,0a.71.71,0,0,1-.54-.33c-.35-.55-.72-1.1-1-1.68a15,15,0,0,1-1.75-5.16c0-.21,0-.42,0-.63s0-.16.17-.16H61Z"/></g></svg>