<svg xmlns="http://www.w3.org/2000/svg" viewBox="0 0 112.44 112.44"><defs><style>.cls-1{fill:#fff;}.cls-2{fill:#2c378f;}</style></defs><g id="grid"><rect class="cls-1" x="4.22" y="4.09" width="104.22" height="104.22"/></g><g id="icons"><path class="cls-2" d="M57.42,14.94A42.34,42.34,0,1,0,99.76,57.28,42.39,42.39,0,0,0,57.42,14.94ZM88.06,38.83H78a47.9,47.9,0,0,0-5.9-14.2A36,36,0,0,1,88.06,38.83Zm-45.3-14.2a47.9,47.9,0,0,0-5.91,14.2H26.77A36,36,0,0,1,42.76,24.63ZM21.59,57.28a35.55,35.55,0,0,1,2.09-11.94H35.52a79.22,79.22,0,0,0-.29,21.72H23A35.5,35.5,0,0,1,21.59,57.28Zm4,16.29H36.32a49.65,49.65,0,0,0,6.44,16.37A36,36,0,0,1,25.55,73.57ZM60.67,92.34V80.08a3.26,3.26,0,0,0-6.51,0V92.34c-7.82-3.67-13-20.1-13-35.06s5.21-31.38,13-35V34.49a3.26,3.26,0,0,0,6.51,0V22.23c7.82,3.67,13,20.1,13,35.05S68.49,88.67,60.67,92.34Zm11.41-2.4a50.09,50.09,0,0,0,6.44-16.37H89.29A36.08,36.08,0,0,1,72.08,89.94Zm7.53-22.88a81.28,81.28,0,0,0,.6-9.78,78.82,78.82,0,0,0-.9-11.94H91.07v-.22a35.13,35.13,0,0,1,.78,21.94Z"/><path class="cls-2" d="M51.76,70.63c.59-.21,1.17-.4,1.73-.63a9.47,9.47,0,0,0,3.85-2.7,6.58,6.58,0,0,0-3.68-10.66l-.27-.06c.28-.06.58-.1.88-.19a5.19,5.19,0,0,0,2.38-1.75,7.16,7.16,0,0,0,1.68-4.44,5.9,5.9,0,0,0-2.62-5.13A10.47,10.47,0,0,0,51.8,43.4c-.76-.17-1.53-.29-2.31-.44l.14-.08A15.11,15.11,0,0,1,55.28,41,15.46,15.46,0,0,1,60.7,71.38a14.47,14.47,0,0,1-8.84-.7l-.1-.05"/><path class="cls-2" d="M45.62,54.58H42.27c-.13,0-.17,0-.17-.18a9,9,0,0,1,.34-2.07,13.73,13.73,0,0,1,2.25-5,1.28,1.28,0,0,0,.15-.25.85.85,0,0,1,.84-.53c.78,0,1.55,0,2.33,0a14.8,14.8,0,0,1,1.88.1,4.45,4.45,0,0,1,3.73,2.67,3.28,3.28,0,0,1-1.09,4.06,5.82,5.82,0,0,1-2.53,1,11.74,11.74,0,0,1-2.44.16c-.65,0-1.29,0-1.94,0Z"/><path class="cls-2" d="M45.67,58h1.79a9.72,9.72,0,0,1,4,.56,4.15,4.15,0,0,1,1.77,1.26,3.28,3.28,0,0,1,.29,3.74,4.37,4.37,0,0,1-3.2,2.3,9.15,9.15,0,0,1-1.66.14c-.89,0-1.79,0-2.69,0a3.42,3.42,0,0,1-.44,0A.67.67,0,0,1,45,65.7c-.36-.56-.73-1.11-1.06-1.68a15.08,15.08,0,0,1-1.75-5.17c0-.2,0-.41,0-.62s0-.17.17-.17h3.39Z"/></g></svg>