<svg xmlns="http://www.w3.org/2000/svg" viewBox="0 0 112.44 112.44"><defs><style>.cls-1{fill:#fff;}.cls-2{fill:#2c378f;}</style></defs><g id="grid"><rect class="cls-1" x="2.44" y="1.42" width="108" height="108"/></g><g id="icons"><path class="cls-2" d="M59,12.72A21.27,21.27,0,0,0,36.31,33.93v5.74a1.12,1.12,0,0,0,1.12,1.12h6.75a1.13,1.13,0,0,0,1.13-1.12v-5.2c0-6.4,4.66-12.12,11-12.74a12.27,12.27,0,0,1,13.49,12.2v5.74A1.12,1.12,0,0,0,71,40.79H77.7a1.12,1.12,0,0,0,1.12-1.12v-5C78.82,23.36,70.31,13.47,59,12.72Z"/><path class="cls-2" d="M84.57,46.42h-54a4.49,4.49,0,0,0-4.5,4.5v45a4.5,4.5,0,0,0,4.5,4.5h54a4.51,4.51,0,0,0,4.5-4.5v-45A4.5,4.5,0,0,0,84.57,46.42Z"/><path class="cls-1" d="M51.89,90c.66-.24,1.32-.45,2-.71a10.92,10.92,0,0,0,4.35-3.06,7.44,7.44,0,0,0-4.16-12l-.31,0a8.84,8.84,0,0,0,1-.23,5.78,5.78,0,0,0,2.7-2,8.19,8.19,0,0,0,1.9-5,6.65,6.65,0,0,0-3-5.79,11.76,11.76,0,0,0-4.42-1.9c-.86-.19-1.73-.32-2.61-.49l.15-.09a16.91,16.91,0,0,1,6.39-2.14A17.47,17.47,0,0,1,62,90.89a16.35,16.35,0,0,1-10-.8l-.11,0"/><path class="cls-1" d="M44.94,71.9H41.16c-.15,0-.2-.06-.2-.21a10.32,10.32,0,0,1,.39-2.33,15.71,15.71,0,0,1,2.54-5.6,1.67,1.67,0,0,0,.18-.28,1,1,0,0,1,.94-.6c.88,0,1.76,0,2.63,0a16.64,16.64,0,0,1,2.12.12A5,5,0,0,1,54,66a3.7,3.7,0,0,1-1.23,4.59,6.62,6.62,0,0,1-2.85,1.17,13.54,13.54,0,0,1-2.77.18c-.73,0-1.46,0-2.19,0Z"/><path class="cls-1" d="M45,75.81c.67,0,1.35,0,2,0a11.18,11.18,0,0,1,4.48.63,4.7,4.7,0,0,1,2,1.43,3.66,3.66,0,0,1,.32,4.22,5,5,0,0,1-3.61,2.61,11.7,11.7,0,0,1-1.87.16c-1,0-2,0-3,0a4,4,0,0,1-.5,0,.79.79,0,0,1-.61-.36c-.4-.63-.82-1.26-1.19-1.91a16.93,16.93,0,0,1-2-5.83c0-.23,0-.47,0-.71s.05-.18.19-.18H45Z"/></g></svg>