<svg xmlns="http://www.w3.org/2000/svg" viewBox="0 0 112.44 112.44"><defs><style>.cls-1{fill:#fff;}.cls-2{fill:#2c378f;}</style></defs><g id="grid"><rect class="cls-1" x="2.77" y="3" width="108.67" height="108.67"/></g><g id="icons"><path class="cls-2" d="M59.41,74.48H52.86V76a3.4,3.4,0,1,1-6.79,0V74.48H20a14.76,14.76,0,0,1-4.53-.72V89.2A4.53,4.53,0,0,0,20,93.73H64.14a25.89,25.89,0,0,1-5-15.36A25,25,0,0,1,59.41,74.48Zm24-41.88H70.7V25.84a7.64,7.64,0,0,0-7.65-7.65H35.88a7.64,7.64,0,0,0-7.65,7.65V32.6H15.5A4.52,4.52,0,0,0,11,37.13V59.77a9,9,0,0,0,9.05,9h26V66.29a3.4,3.4,0,1,1,6.79,0v2.53h8.07A26,26,0,0,1,85.12,52.34,26.39,26.39,0,0,1,88,52.5V37.13A4.53,4.53,0,0,0,83.42,32.6Zm-20.37,0H35.88V25.84H63.05Z"/><path class="cls-2" d="M89.09,81.2H81.16v3.4h7.93a1.7,1.7,0,0,0,0-3.4Zm0-9H81.16v3.39h7.93a1.7,1.7,0,0,0,0-3.39ZM85.12,58A20.38,20.38,0,1,0,105.5,78.37,20.37,20.37,0,0,0,85.12,58Z"/><path class="cls-1" d="M79.85,92.66c.6-.22,1.2-.41,1.78-.65a9.78,9.78,0,0,0,4-2.79,6.78,6.78,0,0,0-3.79-11l-.28,0a7.77,7.77,0,0,0,.9-.21,5.26,5.26,0,0,0,2.46-1.79,7.49,7.49,0,0,0,1.74-4.58,6.08,6.08,0,0,0-2.7-5.29,10.73,10.73,0,0,0-4-1.72c-.78-.18-1.58-.3-2.37-.45l.13-.09A15.83,15.83,0,0,1,101,74.47a15.92,15.92,0,0,1-11.9,19,14.85,14.85,0,0,1-9.12-.72l-.09,0"/><path class="cls-1" d="M73.51,76.11H70.06c-.14,0-.18,0-.18-.19a9,9,0,0,1,.35-2.12,14.49,14.49,0,0,1,2.32-5.12,1.07,1.07,0,0,0,.16-.25.89.89,0,0,1,.86-.55c.8,0,1.6,0,2.4,0a17.87,17.87,0,0,1,1.94.1,4.61,4.61,0,0,1,3.85,2.76,3.39,3.39,0,0,1-1.13,4.19A6,6,0,0,1,78,76a11.87,11.87,0,0,1-2.52.17c-.67,0-1.33,0-2,0Z"/><path class="cls-1" d="M73.56,79.68H75.4a10,10,0,0,1,4.09.58,4.34,4.34,0,0,1,1.83,1.3,3.36,3.36,0,0,1,.29,3.85,4.53,4.53,0,0,1-3.3,2.38,9.59,9.59,0,0,1-1.7.14c-.93,0-1.85,0-2.77,0-.16,0-.31,0-.46,0a.7.7,0,0,1-.55-.33c-.37-.58-.76-1.15-1.09-1.74a15.24,15.24,0,0,1-1.8-5.32c0-.21,0-.43,0-.65s0-.17.18-.17h3.49Z"/></g></svg>