<svg xmlns="http://www.w3.org/2000/svg" viewBox="0 0 112.44 112.44"><defs><style>.cls-1{fill:#fff;}.cls-2{fill:#2c378f;}</style></defs><g id="grid"><rect class="cls-1" x="5.52" y="6.6" width="102.47" height="102.47"/></g><g id="icons"><path class="cls-2" d="M68.5,49.56A2.11,2.11,0,0,0,68,48.23l-2.72-3.41a2.12,2.12,0,0,1,0-2.66l2.14-2.7a2.12,2.12,0,0,0,0-2.66l-2.12-2.65a2.15,2.15,0,0,1,0-2.67L68,28.09a2.16,2.16,0,0,0,.47-1.33V24a2.12,2.12,0,0,0-.84-1.69l-5.34-4.09a2.15,2.15,0,0,0-2.59,0l-5.34,4.09A2.12,2.12,0,0,0,53.55,24V54.54h15ZM49.81,51.88a2.66,2.66,0,0,0-2.66-2.67H34.81a6.4,6.4,0,1,0,0,5.34H47.15A2.67,2.67,0,0,0,49.81,51.88Zm28.29,14H73.73V62a2.14,2.14,0,0,0-2.13-2.14H50.45A2.14,2.14,0,0,0,48.32,62v3.9H43.94a6.41,6.41,0,0,0-6.4,6.4V93.66a6.41,6.41,0,0,0,6.4,6.41H78.1a6.4,6.4,0,0,0,6.4-6.41V72.31A6.4,6.4,0,0,0,78.1,65.91ZM69.56,91.53H52.48a4.27,4.27,0,1,1,0-8.54H69.56a4.27,4.27,0,0,1,0,8.54Z"/><path class="cls-2" d="M41.21,28.93h4.87a2.67,2.67,0,1,0,0-5.34H41.21a6.41,6.41,0,1,0,0,5.34Zm5.94,7.63H40.74a2.67,2.67,0,1,0,0,5.33h6.41a2.67,2.67,0,1,0,0-5.33Zm39.49-3.89a6.38,6.38,0,0,0-5.8,3.73h-5.6a2.67,2.67,0,0,0,0,5.34h5.6a6.4,6.4,0,1,0,5.8-9.07Z"/></g></svg>