<svg xmlns="http://www.w3.org/2000/svg" viewBox="0 0 112.44 112.44"><defs><style>.cls-1{fill:#fff;}.cls-2{fill:#2c378f;}</style></defs><g id="grid"><rect class="cls-1" x="2.26" y="2.73" width="106.79" height="106.79"/></g><g id="icons"><path class="cls-2" d="M49.8,62a22,22,0,1,0-22-22A22,22,0,0,0,49.8,62Zm8.08,14.46a25.24,25.24,0,0,1,1.63-8.9H28A17.93,17.93,0,0,0,10,85.48v9.35a1.64,1.64,0,0,0,1.64,1.64h55.9A25.53,25.53,0,0,1,57.88,76.45Z"/><path class="cls-2" d="M86.53,79.23H78.74v3.34h7.79a1.67,1.67,0,0,0,0-3.34Zm0-8.9H78.74v3.34h7.79a1.67,1.67,0,0,0,0-3.34ZM83.46,56.42a20,20,0,1,0,20,20A20,20,0,0,0,83.46,56.42Z"/></g></svg>