<svg xmlns="http://www.w3.org/2000/svg" viewBox="0 0 112.44 112.44"><defs><style>.cls-1{fill:#fff;}.cls-2{fill:#2c378f;}</style></defs><g id="grid"><rect class="cls-1" x="4.39" y="2" width="105.05" height="105.05"/></g><g id="icons"><path class="cls-2" d="M91.93,90.29H29.56a3.28,3.28,0,0,0,0,6.56H91.93a3.28,3.28,0,1,0,0-6.56Z"/><path class="cls-2" d="M73.33,53.24h-6v3.28h6a1.64,1.64,0,1,0,0-3.28Zm0-8.76h-6v3.28h6a1.64,1.64,0,1,0,0-3.28Zm18.6-30.09H28.46a4.38,4.38,0,0,0-4.37,4.38v4.48a5.48,5.48,0,0,0-4.38,5.36v11a5.48,5.48,0,0,0,4.38,5.36V56.08a5.48,5.48,0,0,0-4.38,5.36V70.2a5.48,5.48,0,0,0,4.38,5.36v4.49a4.37,4.37,0,0,0,4.37,4.37H91.93a4.38,4.38,0,0,0,4.38-4.37V18.77A4.38,4.38,0,0,0,91.93,14.39ZM42.14,49.89V61.44a2.74,2.74,0,1,1-5.47,0V49.89a6.57,6.57,0,1,1,5.47,0Z"/><path class="cls-1" d="M65.84,67.62c.6-.22,1.2-.41,1.78-.65a9.87,9.87,0,0,0,4-2.79,6.78,6.78,0,0,0-3.79-11l-.28,0c.29-.07.61-.11.91-.21a5.3,5.3,0,0,0,2.46-1.79,7.51,7.51,0,0,0,1.73-4.59,6.07,6.07,0,0,0-2.7-5.28,10.87,10.87,0,0,0-4-1.73c-.79-.18-1.59-.3-2.38-.45l.14-.08a15.43,15.43,0,0,1,5.82-1.95,15.94,15.94,0,0,1,5.59,31.33,15,15,0,0,1-9.11-.72l-.1,0"/><path class="cls-1" d="M59.5,51.07H56.05c-.14,0-.18-.05-.18-.19a10.3,10.3,0,0,1,.35-2.13,14.29,14.29,0,0,1,2.33-5.11,1.28,1.28,0,0,0,.15-.25.89.89,0,0,1,.87-.55c.8,0,1.6,0,2.4,0a17.82,17.82,0,0,1,1.93.1,4.57,4.57,0,0,1,3.85,2.76,3.37,3.37,0,0,1-1.12,4.18A6,6,0,0,1,64,50.92a11.79,11.79,0,0,1-2.52.17c-.66,0-1.33,0-2,0Z"/><path class="cls-1" d="M59.55,54.64H61.4a9.94,9.94,0,0,1,4.08.58,4.11,4.11,0,0,1,1.83,1.3,3.35,3.35,0,0,1,.29,3.85,4.47,4.47,0,0,1-3.29,2.37,9.79,9.79,0,0,1-1.71.15c-.92,0-1.85,0-2.77,0-.15,0-.31,0-.46,0a.73.73,0,0,1-.55-.34c-.37-.57-.75-1.14-1.09-1.73a15.52,15.52,0,0,1-1.8-5.32c0-.22,0-.43,0-.65s0-.17.17-.17h3.49Z"/></g></svg>