<svg xmlns="http://www.w3.org/2000/svg" viewBox="0 0 112.44 112.44"><defs><style>.cls-1{fill:#fff;}.cls-2{fill:#2c378f;}</style></defs><g id="grid"><rect class="cls-1" x="-0.13" y="2.73" width="112.57" height="112.57"/></g><g id="icons"><path class="cls-2" d="M26.84,86.4v2.34A1.17,1.17,0,0,0,28,89.91H39.74a1.17,1.17,0,0,0,1.17-1.17V86.4a1.18,1.18,0,0,0-1.17-1.18V57.08a1.18,1.18,0,0,0,1.17-1.17V53.56a1.17,1.17,0,0,0-1.17-1.17H28a1.17,1.17,0,0,0-1.17,1.17v2.35A1.17,1.17,0,0,0,28,57.08V85.22A1.17,1.17,0,0,0,26.84,86.4ZM96,95.78H18.63a2.35,2.35,0,0,0-2.35,2.34v7a1.17,1.17,0,0,0,1.18,1.17H97.2a1.17,1.17,0,0,0,1.17-1.17v-7A2.35,2.35,0,0,0,96,95.78ZM73.74,86.4v2.34a1.17,1.17,0,0,0,1.18,1.17H86.64a1.17,1.17,0,0,0,1.18-1.17V86.4a1.18,1.18,0,0,0-1.18-1.18V57.08a1.18,1.18,0,0,0,1.18-1.17V53.56a1.17,1.17,0,0,0-1.18-1.17H74.92a1.17,1.17,0,0,0-1.18,1.17v2.35A1.15,1.15,0,0,0,74.67,57V85.27A1.16,1.16,0,0,0,73.74,86.4ZM97.19,36.47,58.49,14.36a2.31,2.31,0,0,0-2.33,0L17.47,36.47a2.35,2.35,0,0,0-1.19,2v6.84a1.18,1.18,0,0,0,1.18,1.18H97.2a1.18,1.18,0,0,0,1.17-1.18V38.51A2.34,2.34,0,0,0,97.19,36.47ZM57.33,40.08a6.75,6.75,0,1,1,6.74-6.75A6.75,6.75,0,0,1,57.33,40.08Z"/><path class="cls-2" d="M51.29,86.81c.61-.22,1.2-.41,1.78-.64a9.93,9.93,0,0,0,4-2.8,6.79,6.79,0,0,0-3.8-11l-.28,0c.29-.06.61-.11.91-.2a5.4,5.4,0,0,0,2.46-1.8,7.42,7.42,0,0,0,1.73-4.58,6.09,6.09,0,0,0-2.7-5.29,10.78,10.78,0,0,0-4-1.72c-.79-.18-1.58-.3-2.38-.45l.14-.09a15.6,15.6,0,0,1,5.82-2A15.94,15.94,0,0,1,60.5,87.59a14.89,14.89,0,0,1-9.11-.73l-.1,0"/><path class="cls-2" d="M45,70.27h-3.2a2.26,2.26,0,0,0-.26,0c-.14,0-.18-.06-.17-.19a9.56,9.56,0,0,1,.34-2.13A14.56,14.56,0,0,1,44,62.83a1.65,1.65,0,0,0,.15-.25A.88.88,0,0,1,45,62c.8,0,1.6,0,2.4,0a17.82,17.82,0,0,1,1.93.1,4.59,4.59,0,0,1,3.85,2.76,3.38,3.38,0,0,1-1.12,4.19,6.13,6.13,0,0,1-2.61,1.07,12.47,12.47,0,0,1-2.52.16c-.66,0-1.33,0-2,0Z"/><path class="cls-2" d="M45,73.83c.62,0,1.23,0,1.85,0a9.94,9.94,0,0,1,4.08.58,4.22,4.22,0,0,1,1.83,1.3,3.37,3.37,0,0,1,.3,3.85,4.54,4.54,0,0,1-3.3,2.38,9.78,9.78,0,0,1-1.71.14c-.92,0-1.85,0-2.77,0a3.57,3.57,0,0,1-.46,0,.72.72,0,0,1-.55-.33c-.37-.58-.75-1.15-1.09-1.74a15.38,15.38,0,0,1-1.8-5.32c0-.21,0-.43,0-.65s0-.17.17-.17H45Z"/></g></svg>