<svg xmlns="http://www.w3.org/2000/svg" viewBox="0 0 112.44 112.44"><defs><style>.cls-1{fill:#fff;}.cls-2{fill:#2c378f;}</style></defs><g id="grid"><rect class="cls-1" width="112.44" height="112.44"/></g><g id="icons"><path class="cls-2" d="M73.78,79.16a8.2,8.2,0,1,0-8.2-8.2A8.2,8.2,0,0,0,73.78,79.16Zm-5.86,4.51V93.6a1,1,0,0,0,1,1,1.07,1.07,0,0,0,.61-.19l3.59-2.57a1.07,1.07,0,0,1,1.22,0L78,94.45a1.07,1.07,0,0,0,.61.19,1,1,0,0,0,1-1V83.67a13.48,13.48,0,0,1-11.72,0Z"/><path class="cls-2" d="M60.16,44.87H72.25a2.93,2.93,0,1,0,0-5.86H60.16a2.93,2.93,0,0,0,0,5.86Zm0,11.71H84.33a2.93,2.93,0,1,0,0-5.86H60.16a2.93,2.93,0,0,0,0,5.86ZM97.21,20.14H17.57a4.69,4.69,0,0,0-4.69,4.68V83.39a4.69,4.69,0,0,0,4.69,4.68H60.9a1.17,1.17,0,0,0,1.17-1.17v-7A1.18,1.18,0,0,0,60.9,78.7H29.28a7,7,0,0,0-7-7V36.54a7,7,0,0,0,7-7H85.5a7,7,0,0,0,7,7V71.67a7,7,0,0,0-7,7h0v9.37H97.21a4.69,4.69,0,0,0,4.69-4.68V24.82A4.69,4.69,0,0,0,97.21,20.14Z"/><path class="cls-2" d="M34.73,69.28c.6-.22,1.2-.41,1.78-.65a9.78,9.78,0,0,0,4-2.79,6.78,6.78,0,0,0-3.79-11l-.28-.05c.29-.06.61-.11.91-.2a5.32,5.32,0,0,0,2.45-1.8,7.43,7.43,0,0,0,1.74-4.58,6.09,6.09,0,0,0-2.7-5.29,10.69,10.69,0,0,0-4-1.72c-.79-.18-1.59-.3-2.38-.45l.13-.09A15.83,15.83,0,0,1,55.84,51.09a15.92,15.92,0,0,1-11.9,19,14.81,14.81,0,0,1-9.11-.72l-.1,0"/><path class="cls-2" d="M28.39,52.74H25.2a2.35,2.35,0,0,0-.26,0c-.14,0-.18-.06-.18-.19a9.57,9.57,0,0,1,.35-2.13,14.21,14.21,0,0,1,2.33-5.11c0-.08.11-.17.15-.25a.9.9,0,0,1,.86-.56c.8,0,1.61,0,2.41,0a17.82,17.82,0,0,1,1.93.1,4.59,4.59,0,0,1,3.85,2.76,3.39,3.39,0,0,1-1.12,4.19,6.24,6.24,0,0,1-2.61,1.07,12.47,12.47,0,0,1-2.52.16c-.67,0-1.33,0-2,0Z"/><path class="cls-2" d="M28.44,56.3c.62,0,1.23,0,1.85,0a9.94,9.94,0,0,1,4.08.58,4.34,4.34,0,0,1,1.83,1.3A3.35,3.35,0,0,1,36.49,62a4.51,4.51,0,0,1-3.29,2.38,9.78,9.78,0,0,1-1.71.14c-.93,0-1.85,0-2.77,0a3.42,3.42,0,0,1-.46,0,.7.7,0,0,1-.55-.33c-.37-.58-.75-1.15-1.09-1.74a15.17,15.17,0,0,1-1.8-5.32,4.63,4.63,0,0,1,0-.65c0-.13,0-.17.17-.17h3.49Z"/></g></svg>