<svg xmlns="http://www.w3.org/2000/svg" viewBox="0 0 112.44 112.44"><defs><style>.cls-1{fill:#fff;}.cls-2{fill:#2c378f;}</style></defs><g id="grid"><rect class="cls-1" x="1.59" y="1.95" width="109.27" height="109.27"/></g><g id="icons"><path class="cls-2" d="M38.11,58.53a5.26,5.26,0,0,0-7.8.4,5.47,5.47,0,0,0,.58,7.25L36.67,72a2.92,2.92,0,1,1-4.13,4.13l-5.62-5.61a11.9,11.9,0,0,1-3.48-8l0-13.63a5.69,5.69,0,0,0-6.28-5.66,5.91,5.91,0,0,0-5.1,6v14A13.64,13.64,0,0,0,15.33,72L28.11,87.16a1.13,1.13,0,0,0,.87.41l23.37,0a1.14,1.14,0,0,0,1.14-1.14V79.57a13.67,13.67,0,0,0-4-9.66Zm59.4-15.32a5.69,5.69,0,0,0-6.28,5.66l0,13.63a11.91,11.91,0,0,1-3.49,8l-5.61,5.61A2.92,2.92,0,0,1,78.05,72l5.78-5.78a5.47,5.47,0,0,0,.58-7.25,5.27,5.27,0,0,0-7.81-.4L65.23,69.91a13.63,13.63,0,0,0-4,9.66v6.89a1.14,1.14,0,0,0,1.14,1.14l23.37,0a1.15,1.15,0,0,0,.87-.41L99.39,72a13.7,13.7,0,0,0,3.23-8.82v-14A5.92,5.92,0,0,0,97.51,43.21Z"/><path class="cls-2" d="M53,93.89H29.59A1.14,1.14,0,0,0,28.45,95v4.56a1.13,1.13,0,0,0,1.14,1.13H53a1.13,1.13,0,0,0,1.14-1.13V95A1.14,1.14,0,0,0,53,93.89Zm7.36-53.56H54.06v3.42h6.26a1.71,1.71,0,0,0,0-3.42Zm20.49-2.84A22.77,22.77,0,1,0,58,60.25,22.76,22.76,0,0,0,80.81,37.49Zm4.32,56.4H61.75A1.14,1.14,0,0,0,60.62,95v4.56a1.13,1.13,0,0,0,1.13,1.13H85.13a1.13,1.13,0,0,0,1.14-1.13V95A1.14,1.14,0,0,0,85.13,93.89Z"/><path class="cls-1" d="M52.62,52.09c.61-.22,1.21-.41,1.79-.65a9.78,9.78,0,0,0,4-2.79,6.79,6.79,0,0,0-3.79-11l-.28,0a8.28,8.28,0,0,0,.9-.21,5.3,5.3,0,0,0,2.46-1.79A7.45,7.45,0,0,0,59.39,31a6,6,0,0,0-2.7-5.28,10.8,10.8,0,0,0-4-1.73c-.78-.17-1.58-.3-2.38-.44l.14-.09a15.42,15.42,0,0,1,5.83-1.95,15.94,15.94,0,0,1,5.59,31.33,14.92,14.92,0,0,1-9.12-.72l-.1,0"/><path class="cls-1" d="M46.29,35.54H42.83c-.13,0-.17-.05-.17-.19A9,9,0,0,1,43,33.22a14.49,14.49,0,0,1,2.32-5.12,1.32,1.32,0,0,0,.16-.25.88.88,0,0,1,.86-.55c.8,0,1.6,0,2.4,0a17.87,17.87,0,0,1,1.94.1,4.56,4.56,0,0,1,3.84,2.76,3.37,3.37,0,0,1-1.12,4.18,5.9,5.9,0,0,1-2.6,1.07,11.92,11.92,0,0,1-2.53.17c-.66,0-1.33,0-2,0Z"/><path class="cls-1" d="M46.34,39.11h1.84a10,10,0,0,1,4.09.58A4.25,4.25,0,0,1,54.1,41a3.36,3.36,0,0,1,.29,3.85,4.53,4.53,0,0,1-3.3,2.38,10.86,10.86,0,0,1-1.71.14c-.92,0-1.84,0-2.77,0-.15,0-.3,0-.46,0A.72.72,0,0,1,45.6,47c-.36-.57-.75-1.14-1.09-1.73A15.66,15.66,0,0,1,42.71,40c0-.22,0-.43,0-.65s0-.17.17-.17h3.5Z"/></g></svg>