<svg xmlns="http://www.w3.org/2000/svg" viewBox="0 0 112.44 112.44"><defs><style>.cls-1{fill:#2c378f;}.cls-2{fill:#fff;}</style></defs><g id="icons"><path class="cls-1" d="M98,90.54,94.19,79a2.5,2.5,0,0,1,.17-2A30,30,0,0,0,77.32,35a35.78,35.78,0,0,1,2.1,20.31A35.13,35.13,0,0,1,51.21,83.21a37.37,37.37,0,0,1-5.55.54,29.74,29.74,0,0,0,16.51,9.12,30.06,30.06,0,0,0,19.08-2.75,2.53,2.53,0,0,1,2-.16L94.75,93.8A2.58,2.58,0,0,0,98,90.54Z"/><path class="cls-1" d="M39,19A30,30,0,0,0,18.09,62.16a2.57,2.57,0,0,1,.16,2L14.42,75.63a2.59,2.59,0,0,0,3.27,3.27l11.54-3.84a2.53,2.53,0,0,1,2,.16A30,30,0,1,0,39,19Z"/><path class="cls-2" d="M36.25,69.71c.88-.31,1.75-.59,2.59-.94a14.27,14.27,0,0,0,5.76-4,9.86,9.86,0,0,0-5.51-16l-.4-.07c.41-.1.88-.16,1.31-.3a7.64,7.64,0,0,0,3.57-2.61,10.8,10.8,0,0,0,2.52-6.66,8.81,8.81,0,0,0-3.92-7.68,15.75,15.75,0,0,0-5.86-2.51c-1.14-.26-2.3-.44-3.46-.65l.2-.13a22.77,22.77,0,0,1,8.47-2.84,23.17,23.17,0,0,1,8.13,45.55A21.7,21.7,0,0,1,36.4,69.78l-.15-.07"/><path class="cls-2" d="M27.05,45.66c-1.55,0-3.1,0-4.65,0H22c-.2,0-.26-.08-.26-.28a13.57,13.57,0,0,1,.51-3.09,20.88,20.88,0,0,1,3.38-7.43,2.16,2.16,0,0,0,.22-.36,1.28,1.28,0,0,1,1.26-.8c1.16,0,2.32,0,3.49,0a26.45,26.45,0,0,1,2.81.15,6.65,6.65,0,0,1,5.59,4,4.9,4.9,0,0,1-1.63,6.08,8.86,8.86,0,0,1-3.79,1.56,17.93,17.93,0,0,1-3.66.24c-1,0-1.94,0-2.9,0Z"/><path class="cls-2" d="M27.11,50.85c.9,0,1.8,0,2.69,0a14.57,14.57,0,0,1,5.93.85,6.09,6.09,0,0,1,2.66,1.89,4.87,4.87,0,0,1,.43,5.59A6.55,6.55,0,0,1,34,62.63a14.74,14.74,0,0,1-2.48.21c-1.35,0-2.69,0-4,0-.22,0-.45,0-.67-.06a1.06,1.06,0,0,1-.8-.49c-.53-.83-1.09-1.66-1.58-2.52a22.32,22.32,0,0,1-2.62-7.74c-.05-.3,0-.62-.06-.93s.07-.25.25-.25h5.07Z"/></g></svg>