<svg xmlns="http://www.w3.org/2000/svg" viewBox="0 0 112.44 112.44"><defs><style>.cls-1{fill:#fff;}.cls-2{fill:#2c378f;}</style></defs><g id="grid"><rect class="cls-1" y="-0.68" width="112.44" height="112.44"/></g><g id="icons"><path class="cls-2" d="M104.4,46.61a13.35,13.35,0,0,0-6.73-7.75,2.93,2.93,0,0,0-2.61,5.24,7.56,7.56,0,0,1,3.37,10.13A5.43,5.43,0,0,1,95.31,57a26.07,26.07,0,0,0-8.55-13.23,25.73,25.73,0,0,1-47.39-6.83c-.11,0-.24,0-.35.09A23.87,23.87,0,0,0,22,35.92a2.38,2.38,0,0,0-1.36,3.39l3.54,6.43a26.11,26.11,0,0,0-7.22,15.62l-3.31.55a4.69,4.69,0,0,0-3.92,4.62v8A4.7,4.7,0,0,0,11.25,78l5.18,4.64h0a40,40,0,0,0,12,7.43v10a2.34,2.34,0,0,0,2.34,2.34H43a2.33,2.33,0,0,0,2.27-1.78l1.47-5.86a81.33,81.33,0,0,0,9.8.61,64.38,64.38,0,0,0,9.77-.75l1.5,6a2.34,2.34,0,0,0,2.27,1.78H82.31a2.34,2.34,0,0,0,2.34-2.34V87.78c7.24-5.08,11.71-12.7,11.71-22.87,0-.75-.07-1.45-.12-2.17.3-.08.6-.12.89-.22a11.24,11.24,0,0,0,6.54-5.67A13.35,13.35,0,0,0,104.4,46.61Zm-74.8,16a3.51,3.51,0,1,1,3.52-3.51A3.51,3.51,0,0,1,29.6,62.56Z"/><path class="cls-2" d="M64.42,11A19.91,19.91,0,1,0,84.33,30.94,19.9,19.9,0,0,0,64.42,11Zm2.66,22.84H60.32v3.51h6.76A1.44,1.44,0,0,0,68.52,36V35.3A1.44,1.44,0,0,0,67.08,33.87Zm0-9.37H60.32V28h6.76a1.44,1.44,0,0,0,1.44-1.43v-.65A1.44,1.44,0,0,0,67.08,24.5Z"/><path class="cls-1" d="M59.38,45.72c.59-.22,1.17-.4,1.73-.63A9.63,9.63,0,0,0,65,42.38a6.58,6.58,0,0,0-3.68-10.66l-.27,0a7.38,7.38,0,0,0,.88-.2,5.1,5.1,0,0,0,2.38-1.74,7.21,7.21,0,0,0,1.68-4.45,5.86,5.86,0,0,0-2.61-5.12,10.63,10.63,0,0,0-3.91-1.68c-.77-.17-1.54-.29-2.31-.43l.13-.09a15.11,15.11,0,0,1,5.65-1.89,15.46,15.46,0,0,1,5.43,30.39,14.43,14.43,0,0,1-8.85-.7l-.09,0"/><path class="cls-1" d="M53.23,29.67h-3.1a2,2,0,0,0-.25,0c-.13,0-.17-.06-.17-.19a9,9,0,0,1,.34-2.06,14,14,0,0,1,2.26-5c0-.08.11-.16.15-.24a.85.85,0,0,1,.83-.54c.78,0,1.56,0,2.33,0a16.79,16.79,0,0,1,1.88.1,4.43,4.43,0,0,1,3.73,2.68,3.26,3.26,0,0,1-1.09,4.05,5.82,5.82,0,0,1-2.53,1,11.69,11.69,0,0,1-2.44.16H53.23Z"/><path class="cls-1" d="M53.28,33.13c.6,0,1.19,0,1.79,0a9.7,9.7,0,0,1,4,.57A4.07,4.07,0,0,1,60.81,35a3.26,3.26,0,0,1,.28,3.73A4.38,4.38,0,0,1,57.89,41a10.11,10.11,0,0,1-1.65.14c-.9,0-1.8,0-2.69,0-.15,0-.3,0-.45,0a.71.71,0,0,1-.53-.33c-.36-.55-.73-1.1-1.06-1.68a14.73,14.73,0,0,1-1.74-5.16c0-.21,0-.42-.05-.63s.05-.16.17-.16h3.39Z"/></g></svg>