<svg xmlns="http://www.w3.org/2000/svg" viewBox="0 0 112.44 112.44"><defs><style>.cls-1{fill:#2c378f;}.cls-2{fill:#fff;}</style></defs><g id="icons"><path class="cls-1" d="M63.93,17.59c-1.57-1-4.27,0-6.53,2.14a2.8,2.8,0,0,1-3.89,0c-2.26-2.16-4.94-3.11-6.53-2.14-5.29,3.2,1.83,14.34,2.48,15h12C62.1,31.93,68.93,20.79,63.93,17.59Z"/><path class="cls-1" d="M85.42,83.81l-.17,0v-.13c0-.07,0-.14,0-.22s0-.1,0-.15c0-.79,0-1.63,0-2.57,0-36.32-14.53-39.95-24.22-43.58H50.7c-9,3.63-23.53,7.26-23.53,43.58,0,.92,0,1.74,0,2.51,0,.07,0,.14,0,.21a3.11,3.11,0,0,0,0,.32v0l-.19,0A4.11,4.11,0,0,0,27.25,92l10.43.56a59.34,59.34,0,0,0,18.54,2.72,59.34,59.34,0,0,0,18.54-2.72L85.19,92a4.11,4.11,0,0,0,.23-8.16Z"/><path class="cls-2" d="M51.05,80.5c.59-.21,1.17-.39,1.73-.62a9.59,9.59,0,0,0,3.85-2.71A6.58,6.58,0,0,0,53,66.51l-.27-.05c.28-.06.58-.11.88-.2a5.1,5.1,0,0,0,2.38-1.74,7.21,7.21,0,0,0,1.68-4.45A5.87,5.87,0,0,0,55,55a10.33,10.33,0,0,0-3.91-1.68c-.76-.17-1.53-.29-2.31-.43l.14-.09a15.11,15.11,0,0,1,5.65-1.89A15.46,15.46,0,0,1,60,81.25a14.48,14.48,0,0,1-8.84-.7l-.1,0"/><path class="cls-2" d="M44.91,64.46h-3.1a2.09,2.09,0,0,0-.25,0c-.13,0-.17-.06-.17-.19a9,9,0,0,1,.34-2.06,13.77,13.77,0,0,1,2.25-5,1.58,1.58,0,0,0,.15-.24.86.86,0,0,1,.84-.54c.78,0,1.55,0,2.33,0a16.92,16.92,0,0,1,1.88.1,4.45,4.45,0,0,1,3.73,2.67,3.28,3.28,0,0,1-1.09,4.06,5.82,5.82,0,0,1-2.53,1,11.74,11.74,0,0,1-2.44.16c-.65,0-1.29,0-1.94,0Z"/><path class="cls-2" d="M45,67.91c.59,0,1.19,0,1.79,0a9.72,9.72,0,0,1,4,.56,4.09,4.09,0,0,1,1.77,1.27,3.26,3.26,0,0,1,.29,3.73,4.38,4.38,0,0,1-3.2,2.31,11.38,11.38,0,0,1-1.66.14c-.89,0-1.79,0-2.69,0-.14,0-.29,0-.44,0a.71.71,0,0,1-.53-.33c-.36-.56-.73-1.11-1.06-1.68a15,15,0,0,1-1.75-5.16c0-.21,0-.42,0-.63s.05-.16.17-.16H45Z"/></g></svg>