<svg xmlns="http://www.w3.org/2000/svg" viewBox="0 0 112.44 112.44"><defs><style>.cls-1{fill:#fff;}.cls-2{fill:#2c378f;}</style></defs><g id="grid"><rect class="cls-1" x="1.7" y="2.02" width="109.03" height="109.03"/></g><g id="icons"><path class="cls-2" d="M90,30.6V26.06a4.55,4.55,0,0,0-4.54-4.55H57a26.37,26.37,0,0,1,4.35,9.09ZM82.44,54.85H96.82V42a4.55,4.55,0,0,0-4.54-4.55H62.16a26.07,26.07,0,0,1-40.3,21.53V89.66A9.09,9.09,0,0,0,31,98.75H92.28a4.55,4.55,0,0,0,4.54-4.55V82.86H82.44a14,14,0,1,1,0-28Z"/><path class="cls-2" d="M36.06,16.6A20.45,20.45,0,1,0,56.5,37,20.44,20.44,0,0,0,36.06,16.6ZM98,60.52H82.44a8.33,8.33,0,1,0,0,16.66H98a1.14,1.14,0,0,0,1.14-1.13V61.66A1.14,1.14,0,0,0,98,60.52ZM84.33,72.26a3.41,3.41,0,1,1,3.41-3.41A3.41,3.41,0,0,1,84.33,72.26Z"/><path class="cls-1" d="M30.47,51.36c.59-.21,1.17-.4,1.73-.63A9.56,9.56,0,0,0,36,48a6.58,6.58,0,0,0-3.67-10.66l-.28,0a7.38,7.38,0,0,0,.88-.2,5.13,5.13,0,0,0,2.39-1.74A7.27,7.27,0,0,0,37,30.92a5.87,5.87,0,0,0-2.62-5.12,10.44,10.44,0,0,0-3.91-1.67c-.76-.18-1.54-.3-2.31-.44l.13-.09A15.11,15.11,0,0,1,34,21.71a15.46,15.46,0,0,1,5.43,30.4,14.39,14.39,0,0,1-8.84-.71l-.1,0"/><path class="cls-1" d="M24.33,35.31H21c-.13,0-.17-.06-.17-.19a9.64,9.64,0,0,1,.34-2.06,14,14,0,0,1,2.26-5,1.94,1.94,0,0,0,.15-.24.85.85,0,0,1,.83-.54c.78,0,1.56,0,2.33,0a16.79,16.79,0,0,1,1.88.1,4.43,4.43,0,0,1,3.73,2.68,3.28,3.28,0,0,1-1.08,4.06,6,6,0,0,1-2.53,1,11.18,11.18,0,0,1-2.45.16H24.33Z"/><path class="cls-1" d="M24.37,38.77c.6,0,1.2,0,1.79,0a9.85,9.85,0,0,1,4,.57,4.1,4.1,0,0,1,1.78,1.26,3.24,3.24,0,0,1,.28,3.73A4.36,4.36,0,0,1,29,46.63a10.11,10.11,0,0,1-1.65.14c-.9,0-1.79,0-2.69,0-.15,0-.3,0-.45,0a.68.68,0,0,1-.53-.33c-.36-.55-.73-1.1-1.06-1.68a14.94,14.94,0,0,1-1.74-5.16c0-.21,0-.42,0-.63s0-.16.16-.16h3.39Z"/></g></svg>