<svg xmlns="http://www.w3.org/2000/svg" viewBox="0 0 112.44 112.44"><defs><style>.cls-1{fill:#fff;}.cls-2{fill:#2c378f;}</style></defs><g id="grid"><rect class="cls-1" x="1.26" y="2.06" width="110.38" height="110.38"/></g><g id="icons"><path class="cls-2" d="M89.31,31a8,8,0,0,0-5.91,5.13,7.79,7.79,0,0,0,.31,6.23L74.45,53.8a3.36,3.36,0,0,0,.34,4.63l0,0a3.42,3.42,0,0,0,5-.35l9.26-11.47c2.1.5,4.42.42,7.3-2.28A7.78,7.78,0,0,0,99,38.89,8.06,8.06,0,0,0,89.31,31Z"/><path class="cls-2" d="M35.75,69.9a8.05,8.05,0,0,0,8-8.05,7.56,7.56,0,0,0-.22-1.79l6.48-6.48a7.56,7.56,0,0,0,1.79.22,8.06,8.06,0,0,0,1.84-.23l5.93,9.89A8,8,0,1,0,66,60.74L59.1,49.18a7.9,7.9,0,0,0,.8-3.43,8.05,8.05,0,1,0-15.27,3.51l-5.37,5.37A8,8,0,1,0,35.75,69.9ZM99,84.84H19.65V28.5a3.45,3.45,0,1,0-6.9,0V88.29a3.45,3.45,0,0,0,3.45,3.45H99a3.45,3.45,0,1,0,0-6.9Z"/></g></svg>