<svg xmlns="http://www.w3.org/2000/svg" viewBox="0 0 112.44 112.44"><defs><style>.cls-1{fill:#fff;}.cls-2{fill:#2c378f;}</style></defs><g id="grid"><rect class="cls-1" x="-0.55" y="1.05" width="111.37" height="111.37"/></g><g id="icons"><path class="cls-2" d="M96.9,34.12H15.69a4.64,4.64,0,0,0-4.64,4.64v51a4.64,4.64,0,0,0,4.64,4.64H96.9a4.64,4.64,0,0,0,4.64-4.64v-51A4.64,4.64,0,0,0,96.9,34.12ZM93.42,75.88A10.44,10.44,0,0,0,83,86.32H29.61A10.44,10.44,0,0,0,19.17,75.88V52.68A10.44,10.44,0,0,0,29.61,42.24H83A10.44,10.44,0,0,0,93.42,52.68Z"/><path class="cls-2" d="M31.93,59.65a4.64,4.64,0,1,0,4.64,4.64A4.64,4.64,0,0,0,31.93,59.65ZM89,21.36H24a3.48,3.48,0,1,0,0,7H89a3.48,3.48,0,1,0,0-7ZM80.66,59.65a4.64,4.64,0,1,0,4.64,4.64A4.64,4.64,0,0,0,80.66,59.65Z"/><path class="cls-2" d="M50.85,79.76c.59-.21,1.17-.4,1.73-.63a9.59,9.59,0,0,0,3.85-2.71,6.58,6.58,0,0,0-3.68-10.66l-.27-.05a7.38,7.38,0,0,0,.88-.2,5.1,5.1,0,0,0,2.38-1.74,7.19,7.19,0,0,0,1.68-4.44A5.88,5.88,0,0,0,54.8,54.2a10.47,10.47,0,0,0-3.91-1.67c-.76-.18-1.53-.29-2.3-.44a.74.74,0,0,1,.13-.08,15.13,15.13,0,0,1,5.65-1.9,15.46,15.46,0,0,1,5.42,30.4,14.48,14.48,0,0,1-8.84-.7.31.31,0,0,0-.1,0"/><path class="cls-2" d="M44.71,63.71H41.36c-.13,0-.17-.05-.17-.18a9,9,0,0,1,.34-2.07,13.85,13.85,0,0,1,2.25-5,.75.75,0,0,0,.15-.24.84.84,0,0,1,.84-.53c.78,0,1.55,0,2.33,0a16.79,16.79,0,0,1,1.88.1,4.44,4.44,0,0,1,3.73,2.68,3.28,3.28,0,0,1-1.09,4.06,5.93,5.93,0,0,1-2.53,1,11.74,11.74,0,0,1-2.44.17c-.65,0-1.29,0-1.94,0Z"/><path class="cls-2" d="M44.76,67.17c.59,0,1.19,0,1.79,0a9.72,9.72,0,0,1,4,.56A4.15,4.15,0,0,1,52.28,69a3.26,3.26,0,0,1,.29,3.73A4.36,4.36,0,0,1,49.37,75a9.15,9.15,0,0,1-1.66.14c-.89,0-1.79,0-2.68,0-.15,0-.3,0-.45,0a.67.67,0,0,1-.53-.32c-.36-.56-.73-1.11-1.06-1.69A15,15,0,0,1,41.24,68c0-.21,0-.42,0-.63s0-.16.17-.16h3.39Z"/></g></svg>