<svg id="_ÎÓÈ_1" data-name="—ÎÓÈ_1" xmlns="http://www.w3.org/2000/svg" xmlns:xlink="http://www.w3.org/1999/xlink" viewBox="0 0 305 305"><defs><style>.cls-1{fill:#e8ebf6;}.cls-2,.cls-3,.cls-4{fill:#2a2a93;}.cls-2,.cls-5{opacity:0.7;}.cls-13,.cls-4{opacity:0.15;}.cls-5{fill:url(#_ÂÁ_Ï_ÌÌ_È_ËÂÌÚ_100);}.cls-6{fill:#4d5fce;}.cls-7{fill:#fff;}.cls-8{fill:#f1f1f2;}.cls-9{fill:#d0d2d3;}.cls-10{fill:#404041;}.cls-11{fill:#e6e7e8;}.cls-12{fill:#dfe8fa;}.cls-13{fill:#231f20;}</style><linearGradient id="_ÂÁ_Ï_ÌÌ_È_ËÂÌÚ_100" x1="43.66" y1="180.27" x2="241.04" y2="180.27" gradientUnits="userSpaceOnUse"><stop offset="0" stop-color="#546eff"/><stop offset="1" stop-color="#516dff"/></linearGradient></defs><circle class="cls-1" cx="148.54" cy="144.05" r="109.82"/><path class="cls-2" d="M202.44,101l.19.19a3.83,3.83,0,0,0-3.57-2.45H70.69a3.84,3.84,0,0,0-3.84,3.84v88.25L46.66,213.26a6,6,0,0,0,3.21,4.48l50.05,50.05H244V142.61Z"/><path class="cls-3" d="M199.06,98.75H70.69a3.84,3.84,0,0,0-3.84,3.84v88.25H202.9V102.59A3.84,3.84,0,0,0,199.06,98.75Z"/><rect class="cls-3" x="71.65" y="103.56" width="126.43" height="82.47"/><polygon class="cls-3" points="223.08 213.26 46.66 213.26 66.85 190.84 202.9 190.84 223.08 213.26"/><polygon class="cls-3" points="65.69 202.87 73.94 192.44 195.81 192.44 204.05 202.87 65.69 202.87"/><path class="cls-3" d="M74.21,193.78h4.91a3,3,0,0,0,1.52-.26l.57-.83c.1-.14-.41-.25-1.14-.25H75.25a3,3,0,0,0-1.51.25l-.66.83C73,193.66,73.48,193.78,74.21,193.78Z"/><path class="cls-3" d="M83.17,193.78h4.91a2.78,2.78,0,0,0,1.48-.26l.48-.83c.08-.14-.44-.25-1.17-.25H84.05a2.84,2.84,0,0,0-1.48.25l-.56.83C81.91,193.66,82.43,193.78,83.17,193.78Z"/><path class="cls-3" d="M97,193.78a2.63,2.63,0,0,0,1.46-.26l.38-.83c.06-.14-.47-.25-1.2-.25H92.85a2.7,2.7,0,0,0-1.45.25l-.47.83c-.08.14.46.26,1.19.26Z"/><path class="cls-3" d="M101.08,193.78H106c.74,0,1.38-.12,1.43-.26l.29-.83c0-.14-.5-.25-1.22-.25h-4.83c-.72,0-1.36.11-1.42.25l-.37.83C99.79,193.66,100.34,193.78,101.08,193.78Z"/><path class="cls-3" d="M110,193.78h4.91c.74,0,1.36-.12,1.4-.26l.19-.83c0-.14-.53-.25-1.25-.25h-4.83c-.72,0-1.34.11-1.39.25l-.28.83C108.74,193.66,109.29,193.78,110,193.78Z"/><path class="cls-3" d="M119,193.78h4.9c.74,0,1.35-.12,1.37-.26l.1-.83c0-.14-.55-.25-1.28-.25h-4.82c-.73,0-1.34.11-1.37.25l-.18.83C117.68,193.66,118.25,193.78,119,193.78Z"/><path class="cls-3" d="M127.94,193.78h4.91c.74,0,1.33-.12,1.34-.26v-.83c0-.14-.58-.25-1.31-.25h-4.82c-.73,0-1.33.11-1.34.25l-.09.83C126.62,193.66,127.2,193.78,127.94,193.78Z"/><path class="cls-3" d="M136.9,193.78h4.9c.74,0,1.33-.12,1.31-.26l-.09-.83c0-.14-.61-.25-1.34-.25h-4.82c-.72,0-1.31.11-1.31.25v.83C135.56,193.66,136.16,193.78,136.9,193.78Z"/><path class="cls-3" d="M145.85,193.78h4.91c.73,0,1.31-.12,1.27-.26l-.18-.83c0-.14-.64-.25-1.36-.25h-4.83c-.72,0-1.3.11-1.28.25l.1.83C144.5,193.66,145.11,193.78,145.85,193.78Z"/><path class="cls-3" d="M154.8,193.78h4.91c.74,0,1.3-.12,1.25-.26l-.28-.83c0-.14-.67-.25-1.39-.25h-4.83c-.72,0-1.28.11-1.25.25l.2.83C153.44,193.66,154.07,193.78,154.8,193.78Z"/><path class="cls-3" d="M163.76,193.78h4.91c.73,0,1.28-.12,1.21-.26l-.36-.83a2.56,2.56,0,0,0-1.43-.25h-4.82c-.73,0-1.28.11-1.23.25l.29.83C162.38,193.66,163,193.78,163.76,193.78Z"/><path class="cls-3" d="M172.71,193.78h4.91c.74,0,1.27-.12,1.19-.26l-.46-.83a2.72,2.72,0,0,0-1.46-.25h-4.82c-.73,0-1.26.11-1.2.25l.39.83A2.59,2.59,0,0,0,172.71,193.78Z"/><path class="cls-3" d="M180.18,193.52a2.83,2.83,0,0,0,1.49.26h4.9c.74,0,1.26-.12,1.16-.26l-.55-.83a2.92,2.92,0,0,0-1.49-.25h-4.82c-.72,0-1.25.11-1.17.25Z"/><path class="cls-3" d="M189.11,193.52a3,3,0,0,0,1.51.26h4.91c.74,0,1.24-.12,1.13-.26l-.65-.83a3.07,3.07,0,0,0-1.51-.25h-4.83c-.72,0-1.23.11-1.13.25Z"/><path class="cls-3" d="M72.93,195.44h4.39a3,3,0,0,0,1.55-.27l.61-.86c.1-.14-.42-.26-1.16-.26H74a3.12,3.12,0,0,0-1.54.26l-.68.86C71.66,195.32,72.17,195.44,72.93,195.44Z"/><path class="cls-3" d="M87.38,195.17l.51-.86c.09-.14-.44-.26-1.18-.26H82.39a3,3,0,0,0-1.52.26l-.59.86c-.1.15.43.27,1.18.27h4.4A2.8,2.8,0,0,0,87.38,195.17Z"/><path class="cls-3" d="M88.79,195.17c-.08.15.46.27,1.21.27h4.39a2.69,2.69,0,0,0,1.5-.27l.42-.86c.07-.14-.47-.26-1.21-.26H90.78a2.8,2.8,0,0,0-1.49.26Z"/><path class="cls-3" d="M97.7,194.31l-.4.86c-.07.15.48.27,1.23.27h4.4c.75,0,1.41-.12,1.46-.27l.33-.86c.06-.14-.5-.26-1.24-.26H99.17A2.68,2.68,0,0,0,97.7,194.31Z"/><path class="cls-3" d="M111.87,194.05h-4.32c-.74,0-1.38.12-1.43.26l-.32.86c0,.15.52.27,1.27.27h4.39c.76,0,1.4-.12,1.44-.27l.24-.86C113.18,194.17,112.61,194.05,111.87,194.05Z"/><path class="cls-3" d="M120.26,194.05h-4.32c-.74,0-1.37.12-1.41.26l-.22.86c0,.15.54.27,1.29.27H120c.75,0,1.38-.12,1.41-.27l.14-.86C121.58,194.17,121,194.05,120.26,194.05Z"/><path class="cls-3" d="M128.64,194.05h-4.31c-.74,0-1.36.12-1.38.26l-.13.86c0,.15.57.27,1.32.27h4.39c.76,0,1.37-.12,1.38-.27l.06-.86C130,194.17,129.38,194.05,128.64,194.05Z"/><path class="cls-3" d="M137,194.05h-4.32c-.74,0-1.34.12-1.35.26l0,.86c0,.15.6.27,1.35.27h4.4c.75,0,1.36-.12,1.35-.27l0-.86C138.38,194.17,137.77,194.05,137,194.05Z"/><path class="cls-3" d="M145.42,194.05H141.1c-.74,0-1.33.12-1.32.26l.05.86c0,.15.63.27,1.38.27h4.39c.76,0,1.35-.12,1.33-.27l-.13-.86C146.77,194.17,146.16,194.05,145.42,194.05Z"/><path class="cls-3" d="M153.8,194.05h-4.31c-.74,0-1.32.12-1.3.26l.15.86c0,.15.65.27,1.41.27h4.39c.75,0,1.33-.12,1.29-.27l-.22-.86C155.17,194.17,154.54,194.05,153.8,194.05Z"/><path class="cls-3" d="M162.19,194.05h-4.32c-.74,0-1.3.12-1.26.26l.23.86c0,.15.69.27,1.44.27h4.39c.76,0,1.32-.12,1.27-.27l-.31-.86A2.52,2.52,0,0,0,162.19,194.05Z"/><path class="cls-3" d="M165,194.31l.33.86c.06.15.71.27,1.47.27h4.39c.75,0,1.31-.12,1.24-.27l-.41-.86a2.63,2.63,0,0,0-1.46-.26h-4.32C165.52,194.05,165,194.17,165,194.31Z"/><path class="cls-3" d="M175.35,195.44h12.93c.75,0,1.28-.12,1.18-.27l-.59-.86a3,3,0,0,0-1.52-.26h-12.7c-.74,0-1.28.12-1.21.26l.42.86C173.93,195.32,174.6,195.44,175.35,195.44Z"/><path class="cls-3" d="M191.42,194.05c-.74,0-1.26.12-1.15.26l.6.86a3,3,0,0,0,1.55.27h4.4c.75,0,1.26-.12,1.15-.27l-.68-.86a3.2,3.2,0,0,0-1.55-.26Z"/><path class="cls-3" d="M71.59,197.18h7.69a3,3,0,0,0,1.58-.28l.59-.9c.1-.15-.43-.27-1.18-.27H72.71a3.19,3.19,0,0,0-1.59.27l-.7.9C70.29,197.05,70.82,197.18,71.59,197.18Z"/><path class="cls-3" d="M190.56,196.9,190,196a3,3,0,0,0-1.56-.27h-9.84c-.75,0-1.3.12-1.22.27l.47.9a2.78,2.78,0,0,0,1.54.28h10C190.13,197.18,190.66,197.05,190.56,196.9Z"/><path class="cls-3" d="M83.42,197.18h4.49a2.85,2.85,0,0,0,1.55-.28l.5-.9c.08-.15-.46-.27-1.22-.27H84.33a2.92,2.92,0,0,0-1.54.27l-.58.9C82.11,197.05,82.65,197.18,83.42,197.18Z"/><path class="cls-3" d="M96.63,197.18a2.67,2.67,0,0,0,1.52-.28l.4-.9c.07-.15-.49-.27-1.24-.27H92.9a2.78,2.78,0,0,0-1.52.27l-.48.9c-.08.15.47.28,1.24.28Z"/><path class="cls-3" d="M105.35,197.18c.77,0,1.44-.13,1.49-.28l.31-.9c0-.15-.52-.27-1.28-.27h-4.41c-.75,0-1.42.12-1.48.27l-.39.9c-.07.15.5.28,1.27.28Z"/><path class="cls-3" d="M108.57,196l-.29.9c0,.15.53.28,1.3.28h4.49c.77,0,1.42-.13,1.46-.28l.21-.9c0-.15-.54-.27-1.3-.27H110C109.27,195.73,108.62,195.85,108.57,196Z"/><path class="cls-3" d="M117.17,196l-.2.9c0,.15.56.28,1.33.28h4.49c.77,0,1.41-.13,1.43-.28l.12-.9c0-.15-.58-.27-1.33-.27H118.6C117.84,195.73,117.2,195.85,117.17,196Z"/><path class="cls-3" d="M125.76,196l-.1.9c0,.15.59.28,1.36.28h4.49c.77,0,1.4-.13,1.4-.28l0-.9c0-.15-.6-.27-1.36-.27h-4.41C126.41,195.73,125.78,195.85,125.76,196Z"/><path class="cls-3" d="M134.36,196v.9c0,.15.62.28,1.39.28h4.49c.77,0,1.38-.13,1.37-.28l-.07-.9c0-.15-.64-.27-1.39-.27h-4.41C135,195.73,134.36,195.85,134.36,196Z"/><path class="cls-3" d="M143,196l.09.9c0,.15.65.28,1.42.28H149c.77,0,1.37-.13,1.34-.28l-.17-.9c0-.15-.66-.27-1.42-.27h-4.41C143.54,195.73,142.94,195.85,143,196Z"/><path class="cls-3" d="M151.55,196l.18.9c0,.15.68.28,1.45.28h4.49c.77,0,1.36-.13,1.31-.28l-.26-.9c-.05-.15-.7-.27-1.45-.27h-4.41C152.1,195.73,151.52,195.85,151.55,196Z"/><path class="cls-3" d="M160.14,196l.28.9c.05.15.71.28,1.48.28h4.49c.77,0,1.34-.13,1.28-.28l-.36-.9c-.06-.15-.72-.27-1.48-.27h-4.41C160.67,195.73,160.09,195.85,160.14,196Z"/><path class="cls-3" d="M168.74,196l.37.9a2.62,2.62,0,0,0,1.51.28h4.49c.77,0,1.33-.13,1.25-.28l-.45-.9a2.73,2.73,0,0,0-1.51-.27H170C169.23,195.73,168.67,195.85,168.74,196Z"/><path class="cls-3" d="M192.63,195.73c-.76,0-1.29.12-1.18.27l.63.9a3.09,3.09,0,0,0,1.59.28h4.49c.77,0,1.29-.13,1.17-.28l-.71-.9a3.19,3.19,0,0,0-1.59-.27Z"/><path class="cls-3" d="M70.18,199H80.9a3,3,0,0,0,1.61-.29l.58-.94c.1-.16-.44-.29-1.21-.29H71.36a3.17,3.17,0,0,0-1.63.29l-.74.94C68.86,198.86,69.4,199,70.18,199Z"/><path class="cls-3" d="M183,198.7l-.54-.94a2.82,2.82,0,0,0-1.57-.29h-16c-.77,0-1.35.13-1.3.29l.33.94c.05.16.74.29,1.52.29h16.29C182.52,199,183.08,198.86,183,198.7Z"/><path class="cls-3" d="M85.22,199h4.59a2.81,2.81,0,0,0,1.58-.29l.49-.94c.08-.16-.48-.29-1.25-.29H86.12a2.84,2.84,0,0,0-1.57.29l-.57.94C83.88,198.86,84.44,199,85.22,199Z"/><path class="cls-3" d="M94.14,199h4.58c.79,0,1.48-.13,1.55-.29l.39-.94c.06-.16-.51-.29-1.28-.29H94.87a2.66,2.66,0,0,0-1.54.29l-.47.94C92.78,198.86,93.35,199,94.14,199Z"/><path class="cls-3" d="M103.05,199h4.59c.78,0,1.46-.13,1.51-.29l.29-.94c0-.16-.54-.29-1.31-.29h-4.5c-.78,0-1.45.13-1.51.29l-.38.94C101.68,198.86,102.26,199,103.05,199Z"/><path class="cls-3" d="M116.55,199c.79,0,1.45-.13,1.48-.29l.19-.94c0-.16-.56-.29-1.34-.29h-4.5c-.77,0-1.44.13-1.48.29l-.28.94c0,.16.56.29,1.34.29Z"/><path class="cls-3" d="M125.46,199c.79,0,1.44-.13,1.46-.29l.09-.94c0-.16-.6-.29-1.37-.29h-4.51c-.77,0-1.42.13-1.45.29l-.17.94c0,.16.58.29,1.37.29Z"/><path class="cls-3" d="M134.38,199c.78,0,1.42-.13,1.42-.29v-.94c0-.16-.63-.29-1.4-.29h-4.51c-.77,0-1.41.13-1.42.29l-.07.94c0,.16.61.29,1.4.29Z"/><path class="cls-3" d="M143.29,199c.79,0,1.41-.13,1.39-.29l-.11-.94c0-.16-.66-.29-1.43-.29h-4.51c-.77,0-1.39.13-1.39.29l0,.94c0,.16.65.29,1.43.29Z"/><path class="cls-3" d="M153.56,198.7l-.21-.94c0-.16-.69-.29-1.46-.29h-4.5c-.78,0-1.39.13-1.36.29l.12.94c0,.16.68.29,1.47.29h4.59C153,199,153.6,198.86,153.56,198.7Z"/><path class="cls-3" d="M162.44,198.7l-.31-.94c0-.16-.72-.29-1.49-.29h-4.5c-.77,0-1.37.13-1.33.29l.23.94c0,.16.7.29,1.49.29h4.59C161.9,199,162.5,198.86,162.44,198.7Z"/><path class="cls-3" d="M184.46,198.7a2.92,2.92,0,0,0,1.6.29h4.59c.78,0,1.33-.13,1.22-.29l-.64-.94a3,3,0,0,0-1.6-.29h-4.5c-.77,0-1.32.13-1.23.29Z"/><path class="cls-3" d="M193.88,197.47c-.77,0-1.31.13-1.2.29l.66.94A3.14,3.14,0,0,0,195,199h4.59c.79,0,1.32-.13,1.19-.29l-.74-.94a3.12,3.12,0,0,0-1.62-.29Z"/><path class="cls-3" d="M83.5,199.3H69.94a3.28,3.28,0,0,0-1.66.3l-.77,1c-.14.17.4.31,1.21.31H82.53a2.88,2.88,0,0,0,1.63-.31l.59-1C84.85,199.44,84.29,199.3,83.5,199.3Z"/><path class="cls-3" d="M201,200.89c.8,0,1.34-.14,1.21-.31l-.78-1a3.25,3.25,0,0,0-1.66-.3H186.35c-.79,0-1.35.14-1.25.3l.58,1a2.92,2.92,0,0,0,1.64.31Z"/><path class="cls-3" d="M92.44,199.3h-4.6a2.87,2.87,0,0,0-1.6.3l-.57,1c-.1.17.47.31,1.28.31h4.69a2.77,2.77,0,0,0,1.61-.31l.48-1C93.81,199.44,93.23,199.3,92.44,199.3Z"/><path class="cls-3" d="M101.39,199.3H96.78a2.71,2.71,0,0,0-1.57.3l-.46,1c-.08.17.51.31,1.31.31h4.7c.8,0,1.5-.14,1.57-.31l.37-1C102.77,199.44,102.18,199.3,101.39,199.3Z"/><path class="cls-3" d="M105.18,200.89h4.69c.81,0,1.5-.14,1.54-.31l.27-1c0-.16-.56-.3-1.34-.3h-4.61c-.79,0-1.48.14-1.54.3l-.35,1C103.77,200.75,104.38,200.89,105.18,200.89Z"/><path class="cls-3" d="M114.29,200.89H119c.8,0,1.48-.14,1.5-.31l.17-1c0-.16-.59-.3-1.38-.3h-4.6c-.79,0-1.47.14-1.51.3l-.25,1C112.87,200.75,113.49,200.89,114.29,200.89Z"/><path class="cls-3" d="M123.41,200.89h4.69c.81,0,1.47-.14,1.48-.31l.06-1c0-.16-.62-.3-1.41-.3h-4.61c-.79,0-1.45.14-1.47.3l-.15,1C122,200.75,122.61,200.89,123.41,200.89Z"/><path class="cls-3" d="M132.53,200.89h4.69c.8,0,1.45-.14,1.44-.31l0-1c0-.16-.66-.3-1.45-.3h-4.6c-.79,0-1.44.14-1.44.3l0,1C131.08,200.75,131.72,200.89,132.53,200.89Z"/><path class="cls-3" d="M141.64,200.89h4.69c.81,0,1.44-.14,1.41-.31l-.15-1c0-.16-.68-.3-1.47-.3h-4.6c-.79,0-1.43.14-1.41.3l.06,1C140.18,200.75,140.84,200.89,141.64,200.89Z"/><path class="cls-3" d="M150.76,200.89h4.69c.8,0,1.42-.14,1.38-.31l-.26-1c0-.16-.71-.3-1.5-.3h-4.61c-.79,0-1.4.14-1.38.3l.17,1C149.28,200.75,150,200.89,150.76,200.89Z"/><path class="cls-3" d="M159.87,200.89h4.69c.81,0,1.41-.14,1.35-.31l-.36-1c-.06-.16-.75-.3-1.54-.3h-4.6c-.79,0-1.39.14-1.35.3l.27,1C158.38,200.75,159.07,200.89,159.87,200.89Z"/><path class="cls-3" d="M175.43,201.53c-.08-.18-.8-.32-1.6-.32h-4.71c-.81,0-1.41.14-1.35.32l.4,1c.06.18.79.32,1.61.32h4.8c.82,0,1.42-.14,1.34-.32Z"/><path class="cls-3" d="M184.62,201.53a2.81,2.81,0,0,0-1.64-.32h-4.71c-.81,0-1.4.14-1.31.32l.5,1c.08.18.82.32,1.64.32h4.81c.82,0,1.4-.14,1.3-.32Z"/><path class="cls-3" d="M193.78,201.53a3,3,0,0,0-1.68-.32h-4.71c-.81,0-1.38.14-1.27.32l.61,1a2.9,2.9,0,0,0,1.68.32h4.8c.82,0,1.39-.14,1.27-.32Z"/><path class="cls-3" d="M203.75,202.55l-.81-1a3.21,3.21,0,0,0-1.71-.32h-4.71c-.81,0-1.37.14-1.24.32l.71,1a3.17,3.17,0,0,0,1.72.32h4.8C203.33,202.87,203.89,202.73,203.75,202.55Z"/><path class="cls-3" d="M173.68,200.89c.8,0,1.39-.14,1.31-.31l-.46-1a2.71,2.71,0,0,0-1.57-.3h-4.61c-.78,0-1.37.14-1.31.3l.37,1c.07.17.77.31,1.58.31Z"/><path class="cls-3" d="M182.8,200.89c.8,0,1.37-.14,1.27-.31l-.56-1a2.89,2.89,0,0,0-1.6-.3H177.3c-.79,0-1.36.14-1.28.3l.48,1c.08.17.8.31,1.6.31Z"/><path class="cls-3" d="M72.89,201.21H68.47a3.18,3.18,0,0,0-1.71.32l-.81,1c-.14.18.41.32,1.23.32h4.51a3.1,3.1,0,0,0,1.71-.32l.73-1C74.25,201.35,73.69,201.21,72.89,201.21Z"/><path class="cls-3" d="M81.93,201.21H77.51a3,3,0,0,0-1.67.32l-.7,1c-.12.18.44.32,1.27.32h4.5a3,3,0,0,0,1.68-.32l.62-1C83.31,201.35,82.74,201.21,81.93,201.21Z"/><path class="cls-3" d="M91,201.21H86.56a2.78,2.78,0,0,0-1.64.32l-.6,1c-.1.18.48.32,1.31.32h4.5c.82,0,1.56-.14,1.65-.32l.51-1C92.37,201.35,91.79,201.21,91,201.21Z"/><path class="cls-3" d="M100,201.21H95.61c-.81,0-1.53.14-1.61.32l-.49,1c-.08.18.52.32,1.34.32h4.5c.82,0,1.55-.14,1.62-.32l.39-1C101.43,201.35,100.83,201.21,100,201.21Z"/><path class="cls-3" d="M164.68,201.21H104.46c-.8,0-1.51.14-1.57.32l-.38,1c-.07.18.54.32,1.37.32h61.37c.83,0,1.44-.14,1.37-.32l-.37-1C166.19,201.35,165.48,201.21,164.68,201.21Z"/><path class="cls-3" d="M134.87,213.26H46.66c1.12,5.39,5.87,5.64,11.38,5.64H211.7c5.51,0,10.26-.25,11.38-5.64Z"/><path class="cls-3" d="M154,206.42c-.11-.48-1.91-.87-4-.87h-30.2c-2.11,0-3.91.39-4,.87l-.43,2h39.08Z"/><path class="cls-3" d="M154.41,208.45H115.33l-.15.73c-.11.51,1.61.94,3.83.94h31.72c2.23,0,3.94-.43,3.83-.94Z"/><path class="cls-3" d="M167.87,125.19H155.68l-3.7,5.29H110.07a2.47,2.47,0,0,0-2.48,2.47v36.68a3,3,0,0,0,3,3h56.82a3,3,0,0,0,3-3v-42A2.46,2.46,0,0,0,167.87,125.19Z"/><path class="cls-3" d="M163.77,121.09H151.59l-3.71,5.29H106a2.47,2.47,0,0,0-2.47,2.47v36.69a3,3,0,0,0,3,3h56.82a3,3,0,0,0,3-3v-42A2.48,2.48,0,0,0,163.77,121.09Z"/><rect class="cls-3" x="106.15" y="129.2" width="57.44" height="35.7" transform="translate(269.74 294.1) rotate(180)"/><path class="cls-3" d="M103.5,133.92v31.62a3,3,0,0,0,3,3h56.82a3,3,0,0,0,3-3V133.92Z"/><rect class="cls-4" x="106.15" y="132.96" width="57.44" height="0.96"/><path class="cls-3" d="M208.29,141.13H179.06a5.7,5.7,0,0,0-5.71,5.7v60.73a5.71,5.71,0,0,0,5.71,5.7h29.23a5.7,5.7,0,0,0,5.7-5.7V146.83A5.7,5.7,0,0,0,208.29,141.13Z"/><path class="cls-3" d="M200.35,144.51a.49.49,0,0,1-.49.49H187.49a.5.5,0,1,1,0-1h12.37A.49.49,0,0,1,200.35,144.51Z"/><rect class="cls-3" x="174.77" y="147.88" width="37.81" height="58.63"/><path class="cls-3" d="M209.11,167.81h-5.7l-1.73,2.48H182.07a1.16,1.16,0,0,0-1.16,1.16v17.16A1.39,1.39,0,0,0,182.3,190h26.58a1.39,1.39,0,0,0,1.39-1.39V169A1.16,1.16,0,0,0,209.11,167.81Z"/><path class="cls-3" d="M207.2,165.9h-5.71l-1.73,2.47H180.15a1.16,1.16,0,0,0-1.16,1.16v17.16a1.39,1.39,0,0,0,1.39,1.39H207a1.39,1.39,0,0,0,1.39-1.39V167.05A1.16,1.16,0,0,0,207.2,165.9Z"/><rect class="cls-3" x="180.24" y="169.69" width="26.87" height="16.7" transform="translate(387.34 356.09) rotate(180)"/><path class="cls-3" d="M179,171.9v14.79a1.39,1.39,0,0,0,1.39,1.39H207a1.39,1.39,0,0,0,1.39-1.39V171.9Z"/><rect class="cls-4" x="180.24" y="171.45" width="26.87" height="0.45"/><path class="cls-5" d="M199.44,98l.19.19a3.83,3.83,0,0,0-3.57-2.45H67.69a3.84,3.84,0,0,0-3.84,3.84v88.25L43.66,210.26a6,6,0,0,0,3.21,4.48l50.05,50.05H241V139.61Z"/><path class="cls-6" d="M196.06,95.75H67.69a3.84,3.84,0,0,0-3.84,3.84v88.25H199.9V99.59A3.84,3.84,0,0,0,196.06,95.75Z"/><rect class="cls-7" x="68.65" y="100.56" width="126.43" height="82.47"/><polygon class="cls-8" points="220.08 210.26 43.66 210.26 63.85 187.84 199.9 187.84 220.08 210.26"/><polygon class="cls-9" points="62.7 199.87 70.94 189.44 192.81 189.44 201.05 199.87 62.7 199.87"/><path class="cls-6" d="M71.21,190.78h4.91a3,3,0,0,0,1.52-.26l.57-.83c.09-.14-.41-.25-1.14-.25H72.25a3,3,0,0,0-1.51.25l-.66.83C70,190.66,70.48,190.78,71.21,190.78Z"/><path class="cls-6" d="M80.17,190.78h4.91a2.78,2.78,0,0,0,1.48-.26l.48-.83c.08-.14-.44-.25-1.17-.25H81.05a2.84,2.84,0,0,0-1.48.25l-.56.83C78.91,190.66,79.43,190.78,80.17,190.78Z"/><path class="cls-6" d="M94,190.78a2.63,2.63,0,0,0,1.46-.26l.38-.83c.06-.14-.47-.25-1.2-.25H89.85a2.7,2.7,0,0,0-1.45.25l-.47.83c-.08.14.46.26,1.19.26Z"/><path class="cls-6" d="M98.08,190.78H103c.74,0,1.38-.12,1.43-.26l.29-.83c0-.14-.5-.25-1.22-.25H98.65c-.72,0-1.36.11-1.42.25l-.37.83C96.79,190.66,97.34,190.78,98.08,190.78Z"/><path class="cls-6" d="M107,190.78h4.91c.74,0,1.36-.12,1.4-.26l.19-.83c0-.14-.53-.25-1.25-.25h-4.83c-.72,0-1.34.11-1.39.25l-.28.83C105.74,190.66,106.29,190.78,107,190.78Z"/><path class="cls-6" d="M116,190.78h4.9c.74,0,1.35-.12,1.37-.26l.1-.83c0-.14-.55-.25-1.28-.25h-4.82c-.73,0-1.34.11-1.37.25l-.18.83C114.68,190.66,115.25,190.78,116,190.78Z"/><path class="cls-6" d="M124.94,190.78h4.91c.74,0,1.33-.12,1.34-.26v-.83c0-.14-.58-.25-1.31-.25h-4.82c-.73,0-1.33.11-1.34.25l-.09.83C123.62,190.66,124.2,190.78,124.94,190.78Z"/><path class="cls-6" d="M133.9,190.78h4.9c.74,0,1.33-.12,1.31-.26l-.09-.83c0-.14-.61-.25-1.34-.25h-4.82c-.72,0-1.31.11-1.31.25v.83C132.56,190.66,133.16,190.78,133.9,190.78Z"/><path class="cls-6" d="M142.85,190.78h4.91c.73,0,1.31-.12,1.27-.26l-.18-.83c0-.14-.64-.25-1.36-.25h-4.83c-.72,0-1.3.11-1.28.25l.1.83C141.5,190.66,142.11,190.78,142.85,190.78Z"/><path class="cls-6" d="M151.8,190.78h4.91c.74,0,1.3-.12,1.25-.26l-.28-.83c0-.14-.67-.25-1.39-.25h-4.83c-.72,0-1.28.11-1.25.25l.2.83C150.44,190.66,151.07,190.78,151.8,190.78Z"/><path class="cls-6" d="M160.76,190.78h4.91c.73,0,1.28-.12,1.21-.26l-.36-.83a2.58,2.58,0,0,0-1.43-.25h-4.82c-.73,0-1.28.11-1.23.25l.29.83C159.38,190.66,160,190.78,160.76,190.78Z"/><path class="cls-6" d="M169.71,190.78h4.91c.74,0,1.27-.12,1.19-.26l-.46-.83a2.72,2.72,0,0,0-1.46-.25h-4.82c-.73,0-1.26.11-1.2.25l.39.83A2.59,2.59,0,0,0,169.71,190.78Z"/><path class="cls-6" d="M177.18,190.52a2.8,2.8,0,0,0,1.49.26h4.9c.74,0,1.26-.12,1.16-.26l-.55-.83a2.92,2.92,0,0,0-1.49-.25h-4.82c-.72,0-1.25.11-1.17.25Z"/><path class="cls-6" d="M186.11,190.52a3,3,0,0,0,1.51.26h4.91c.74,0,1.24-.12,1.13-.26l-.65-.83a3.07,3.07,0,0,0-1.51-.25h-4.83c-.72,0-1.23.11-1.14.25Z"/><path class="cls-6" d="M69.93,192.44h4.39a3,3,0,0,0,1.55-.27l.61-.86c.1-.14-.42-.26-1.16-.26H71a3.12,3.12,0,0,0-1.54.26l-.68.86C68.66,192.32,69.17,192.44,69.93,192.44Z"/><path class="cls-6" d="M84.38,192.17l.51-.86c.09-.14-.44-.26-1.18-.26H79.39a3,3,0,0,0-1.52.26l-.59.86c-.1.15.43.27,1.18.27h4.4A2.8,2.8,0,0,0,84.38,192.17Z"/><path class="cls-6" d="M85.79,192.17c-.09.15.46.27,1.21.27h4.39a2.69,2.69,0,0,0,1.5-.27l.42-.86c.07-.14-.47-.26-1.21-.26H87.78a2.8,2.8,0,0,0-1.49.26Z"/><path class="cls-6" d="M94.7,191.31l-.4.86c-.07.15.48.27,1.23.27h4.4c.75,0,1.41-.12,1.46-.27l.33-.86c.06-.14-.5-.26-1.24-.26H96.17A2.68,2.68,0,0,0,94.7,191.31Z"/><path class="cls-6" d="M108.87,191.05h-4.32c-.74,0-1.38.12-1.43.26l-.32.86c0,.15.52.27,1.27.27h4.39c.76,0,1.4-.12,1.44-.27l.24-.86C110.18,191.17,109.61,191.05,108.87,191.05Z"/><path class="cls-6" d="M117.26,191.05h-4.32c-.74,0-1.37.12-1.41.26l-.22.86c0,.15.54.27,1.29.27H117c.75,0,1.38-.12,1.41-.27l.14-.86C118.58,191.17,118,191.05,117.26,191.05Z"/><path class="cls-6" d="M125.64,191.05h-4.31c-.74,0-1.36.12-1.38.26l-.13.86c0,.15.57.27,1.32.27h4.39c.76,0,1.37-.12,1.38-.27l.06-.86C127,191.17,126.38,191.05,125.64,191.05Z"/><path class="cls-6" d="M134,191.05h-4.32c-.74,0-1.34.12-1.35.26l0,.86c0,.15.6.27,1.35.27h4.4c.75,0,1.36-.12,1.35-.27l0-.86C135.37,191.17,134.77,191.05,134,191.05Z"/><path class="cls-6" d="M142.42,191.05H138.1c-.74,0-1.33.12-1.32.26l.05.86c0,.15.63.27,1.38.27h4.39c.76,0,1.35-.12,1.33-.27l-.13-.86C143.77,191.17,143.16,191.05,142.42,191.05Z"/><path class="cls-6" d="M150.8,191.05h-4.31c-.74,0-1.32.12-1.3.26l.15.86c0,.15.65.27,1.41.27h4.39c.75,0,1.33-.12,1.29-.27l-.22-.86C152.17,191.17,151.54,191.05,150.8,191.05Z"/><path class="cls-6" d="M159.19,191.05h-4.32c-.74,0-1.3.12-1.26.26l.23.86c0,.15.69.27,1.44.27h4.39c.76,0,1.32-.12,1.27-.27l-.31-.86A2.52,2.52,0,0,0,159.19,191.05Z"/><path class="cls-6" d="M162,191.31l.33.86c.06.15.71.27,1.47.27h4.39c.75,0,1.31-.12,1.24-.27l-.41-.86a2.63,2.63,0,0,0-1.46-.26h-4.32C162.52,191.05,162,191.17,162,191.31Z"/><path class="cls-6" d="M172.35,192.44h12.93c.75,0,1.28-.12,1.18-.27l-.59-.86a3,3,0,0,0-1.52-.26h-12.7c-.74,0-1.28.12-1.21.26l.42.86C170.93,192.32,171.6,192.44,172.35,192.44Z"/><path class="cls-6" d="M188.42,191.05c-.74,0-1.26.12-1.15.26l.6.86a3,3,0,0,0,1.55.27h4.4c.75,0,1.26-.12,1.15-.27l-.68-.86a3.2,3.2,0,0,0-1.55-.26Z"/><path class="cls-6" d="M68.58,194.18h7.7a3,3,0,0,0,1.58-.28l.59-.9c.1-.15-.43-.27-1.18-.27H69.71a3.19,3.19,0,0,0-1.59.27l-.7.9C67.29,194.05,67.82,194.18,68.58,194.18Z"/><path class="cls-6" d="M187.56,193.9,187,193a3,3,0,0,0-1.56-.27h-9.84c-.75,0-1.3.12-1.22.27l.47.9a2.78,2.78,0,0,0,1.54.28h10C187.13,194.18,187.66,194.05,187.56,193.9Z"/><path class="cls-6" d="M80.42,194.18h4.49a2.85,2.85,0,0,0,1.55-.28l.5-.9c.08-.15-.46-.27-1.22-.27H81.33a2.92,2.92,0,0,0-1.54.27l-.58.9C79.11,194.05,79.65,194.18,80.42,194.18Z"/><path class="cls-6" d="M93.63,194.18a2.67,2.67,0,0,0,1.52-.28l.4-.9c.07-.15-.49-.27-1.24-.27H89.9a2.78,2.78,0,0,0-1.52.27l-.48.9c-.08.15.47.28,1.24.28Z"/><path class="cls-6" d="M102.35,194.18c.77,0,1.44-.13,1.49-.28l.31-.9c0-.15-.52-.27-1.28-.27H98.46c-.75,0-1.42.12-1.48.27l-.39.9c-.07.15.5.28,1.27.28Z"/><path class="cls-6" d="M105.57,193l-.29.9c0,.15.53.28,1.3.28h4.49c.77,0,1.42-.13,1.46-.28l.21-.9c0-.15-.54-.27-1.3-.27H107C106.27,192.73,105.62,192.85,105.57,193Z"/><path class="cls-6" d="M114.17,193l-.2.9c0,.15.56.28,1.33.28h4.49c.77,0,1.41-.13,1.43-.28l.12-.9c0-.15-.58-.27-1.34-.27h-4.4C114.84,192.73,114.2,192.85,114.17,193Z"/><path class="cls-6" d="M122.76,193l-.1.9c0,.15.59.28,1.36.28h4.49c.77,0,1.4-.13,1.4-.28l0-.9c0-.15-.6-.27-1.36-.27h-4.41C123.41,192.73,122.78,192.85,122.76,193Z"/><path class="cls-6" d="M131.36,193v.9c0,.15.62.28,1.39.28h4.49c.77,0,1.38-.13,1.37-.28l-.07-.9c0-.15-.64-.27-1.39-.27h-4.41C132,192.73,131.36,192.85,131.36,193Z"/><path class="cls-6" d="M140,193l.09.9c0,.15.65.28,1.42.28H146c.77,0,1.37-.13,1.34-.28l-.17-.9c0-.15-.66-.27-1.42-.27h-4.41C140.54,192.73,139.94,192.85,140,193Z"/><path class="cls-6" d="M148.55,193l.18.9c0,.15.68.28,1.45.28h4.49c.77,0,1.36-.13,1.31-.28l-.26-.9c-.05-.15-.7-.27-1.45-.27h-4.41C149.1,192.73,148.51,192.85,148.55,193Z"/><path class="cls-6" d="M157.14,193l.28.9c.05.15.71.28,1.48.28h4.49c.77,0,1.34-.13,1.28-.28l-.36-.9c-.06-.15-.72-.27-1.48-.27h-4.41C157.67,192.73,157.09,192.85,157.14,193Z"/><path class="cls-6" d="M165.74,193l.37.9a2.62,2.62,0,0,0,1.51.28h4.49c.77,0,1.33-.13,1.25-.28l-.45-.9a2.73,2.73,0,0,0-1.51-.27H167C166.23,192.73,165.67,192.85,165.74,193Z"/><path class="cls-6" d="M189.63,192.73c-.76,0-1.29.12-1.18.27l.63.9a3.09,3.09,0,0,0,1.59.28h4.49c.77,0,1.29-.13,1.17-.28l-.71-.9a3.19,3.19,0,0,0-1.59-.27Z"/><path class="cls-6" d="M67.18,196H77.9a3,3,0,0,0,1.61-.29l.58-.94c.1-.16-.44-.29-1.21-.29H68.36a3.17,3.17,0,0,0-1.63.29l-.74.94C65.86,195.86,66.4,196,67.18,196Z"/><path class="cls-6" d="M180,195.7l-.54-.94a2.84,2.84,0,0,0-1.57-.29h-16c-.77,0-1.35.13-1.3.29l.33.94c.05.16.74.29,1.52.29h16.29C179.52,196,180.08,195.86,180,195.7Z"/><path class="cls-6" d="M82.22,196h4.59a2.81,2.81,0,0,0,1.58-.29l.49-.94c.08-.16-.48-.29-1.25-.29H83.12a2.84,2.84,0,0,0-1.57.29l-.57.94C80.88,195.86,81.44,196,82.22,196Z"/><path class="cls-6" d="M91.14,196h4.58c.79,0,1.48-.13,1.55-.29l.39-.94c.06-.16-.51-.29-1.28-.29H91.87a2.66,2.66,0,0,0-1.54.29l-.47.94C89.78,195.86,90.35,196,91.14,196Z"/><path class="cls-6" d="M100.05,196h4.59c.78,0,1.46-.13,1.51-.29l.29-.94c0-.16-.54-.29-1.31-.29h-4.5c-.78,0-1.45.13-1.52.29l-.37.94C98.68,195.86,99.26,196,100.05,196Z"/><path class="cls-6" d="M113.55,196c.79,0,1.45-.13,1.48-.29l.19-.94c0-.16-.56-.29-1.34-.29h-4.5c-.77,0-1.44.13-1.48.29l-.28.94c0,.16.56.29,1.34.29Z"/><path class="cls-6" d="M122.46,196c.79,0,1.44-.13,1.46-.29l.09-.94c0-.16-.6-.29-1.37-.29h-4.51c-.77,0-1.42.13-1.45.29l-.17.94c0,.16.58.29,1.37.29Z"/><path class="cls-6" d="M131.38,196c.78,0,1.42-.13,1.42-.29v-.94c0-.16-.63-.29-1.4-.29h-4.51c-.77,0-1.41.13-1.42.29l-.07.94c0,.16.61.29,1.4.29Z"/><path class="cls-6" d="M140.29,196c.79,0,1.41-.13,1.39-.29l-.11-.94c0-.16-.66-.29-1.43-.29h-4.51c-.77,0-1.39.13-1.39.29l0,.94c0,.16.65.29,1.43.29Z"/><path class="cls-6" d="M150.56,195.7l-.21-.94c0-.16-.69-.29-1.46-.29h-4.5c-.78,0-1.39.13-1.36.29l.12.94c0,.16.68.29,1.47.29h4.58C150,196,150.6,195.86,150.56,195.7Z"/><path class="cls-6" d="M159.44,195.7l-.31-.94c0-.16-.72-.29-1.49-.29h-4.5c-.77,0-1.37.13-1.33.29l.22.94c0,.16.71.29,1.5.29h4.59C158.9,196,159.5,195.86,159.44,195.7Z"/><path class="cls-6" d="M181.46,195.7a2.92,2.92,0,0,0,1.6.29h4.59c.78,0,1.33-.13,1.22-.29l-.64-.94a3,3,0,0,0-1.6-.29h-4.5c-.77,0-1.32.13-1.23.29Z"/><path class="cls-6" d="M190.88,194.47c-.77,0-1.31.13-1.2.29l.66.94A3.14,3.14,0,0,0,192,196h4.59c.79,0,1.32-.13,1.19-.29l-.74-.94a3.12,3.12,0,0,0-1.62-.29Z"/><path class="cls-6" d="M80.5,196.3H66.94a3.28,3.28,0,0,0-1.66.3l-.77,1c-.14.17.4.31,1.21.31H79.53a2.88,2.88,0,0,0,1.63-.31l.59-1C81.85,196.44,81.29,196.3,80.5,196.3Z"/><path class="cls-6" d="M198,197.89c.8,0,1.34-.14,1.21-.31l-.78-1a3.25,3.25,0,0,0-1.66-.3H183.35c-.79,0-1.35.14-1.25.3l.58,1a2.92,2.92,0,0,0,1.64.31Z"/><path class="cls-6" d="M89.44,196.3h-4.6a2.87,2.87,0,0,0-1.6.3l-.57,1c-.1.17.47.31,1.28.31h4.69a2.77,2.77,0,0,0,1.61-.31l.48-1C90.81,196.44,90.23,196.3,89.44,196.3Z"/><path class="cls-6" d="M98.39,196.3H93.78a2.71,2.71,0,0,0-1.57.3l-.46,1c-.08.17.51.31,1.31.31h4.7c.8,0,1.5-.14,1.57-.31l.37-1C99.77,196.44,99.18,196.3,98.39,196.3Z"/><path class="cls-6" d="M102.18,197.89h4.69c.81,0,1.5-.14,1.54-.31l.27-1c0-.16-.56-.3-1.34-.3h-4.61c-.79,0-1.48.14-1.54.3l-.35,1C100.77,197.75,101.38,197.89,102.18,197.89Z"/><path class="cls-6" d="M111.29,197.89H116c.8,0,1.48-.14,1.5-.31l.17-1c0-.16-.59-.3-1.38-.3h-4.6c-.79,0-1.47.14-1.51.3l-.25,1C109.87,197.75,110.49,197.89,111.29,197.89Z"/><path class="cls-6" d="M120.41,197.89h4.69c.81,0,1.47-.14,1.48-.31l.06-1c0-.16-.62-.3-1.41-.3h-4.61c-.79,0-1.45.14-1.47.3l-.15,1C119,197.75,119.61,197.89,120.41,197.89Z"/><path class="cls-6" d="M129.53,197.89h4.69c.8,0,1.45-.14,1.44-.31l0-1c0-.16-.66-.3-1.45-.3h-4.6c-.79,0-1.44.14-1.44.3l0,1C128.08,197.75,128.72,197.89,129.53,197.89Z"/><path class="cls-6" d="M138.64,197.89h4.69c.81,0,1.44-.14,1.41-.31l-.15-1c0-.16-.68-.3-1.47-.3h-4.6c-.79,0-1.43.14-1.42.3l.07,1C137.18,197.75,137.84,197.89,138.64,197.89Z"/><path class="cls-6" d="M147.76,197.89h4.69c.8,0,1.42-.14,1.37-.31l-.25-1c0-.16-.71-.3-1.5-.3h-4.61c-.79,0-1.4.14-1.38.3l.17,1C146.28,197.75,147,197.89,147.76,197.89Z"/><path class="cls-6" d="M156.87,197.89h4.69c.81,0,1.41-.14,1.35-.31l-.36-1c-.06-.16-.75-.3-1.54-.3h-4.6c-.79,0-1.39.14-1.35.3l.27,1C155.38,197.75,156.07,197.89,156.87,197.89Z"/><path class="cls-6" d="M172.43,198.53c-.08-.18-.8-.32-1.6-.32h-4.71c-.81,0-1.41.14-1.35.32l.4,1c.06.18.79.32,1.61.32h4.8c.82,0,1.42-.14,1.34-.32Z"/><path class="cls-6" d="M181.62,198.53a2.81,2.81,0,0,0-1.64-.32h-4.71c-.81,0-1.4.14-1.31.32l.5,1c.08.18.82.32,1.64.32h4.81c.82,0,1.4-.14,1.3-.32Z"/><path class="cls-6" d="M190.78,198.53a3,3,0,0,0-1.68-.32h-4.71c-.81,0-1.38.14-1.27.32l.61,1a2.9,2.9,0,0,0,1.68.32h4.8c.82,0,1.39-.14,1.27-.32Z"/><path class="cls-6" d="M200.75,199.55l-.81-1a3.21,3.21,0,0,0-1.71-.32h-4.71c-.81,0-1.37.14-1.24.32l.71,1a3.17,3.17,0,0,0,1.72.32h4.8C200.33,199.87,200.89,199.73,200.75,199.55Z"/><path class="cls-6" d="M170.68,197.89c.8,0,1.39-.14,1.31-.31l-.46-1a2.71,2.71,0,0,0-1.57-.3h-4.61c-.78,0-1.37.14-1.31.3l.37,1c.07.17.77.31,1.58.31Z"/><path class="cls-6" d="M179.79,197.89c.81,0,1.38-.14,1.28-.31l-.56-1a2.89,2.89,0,0,0-1.6-.3H174.3c-.79,0-1.36.14-1.28.3l.48,1c.08.17.8.31,1.6.31Z"/><path class="cls-6" d="M69.89,198.21H65.47a3.18,3.18,0,0,0-1.71.32l-.81,1c-.14.18.41.32,1.23.32h4.51a3.1,3.1,0,0,0,1.71-.32l.73-1C71.25,198.35,70.69,198.21,69.89,198.21Z"/><path class="cls-6" d="M78.93,198.21H74.51a3,3,0,0,0-1.67.32l-.7,1c-.13.18.44.32,1.27.32h4.5a3,3,0,0,0,1.68-.32l.62-1C80.31,198.35,79.74,198.21,78.93,198.21Z"/><path class="cls-6" d="M88,198.21H83.56a2.78,2.78,0,0,0-1.64.32l-.6,1c-.1.18.48.32,1.31.32h4.5c.82,0,1.56-.14,1.65-.32l.5-1C89.37,198.35,88.79,198.21,88,198.21Z"/><path class="cls-6" d="M97,198.21H92.61c-.81,0-1.53.14-1.61.32l-.49,1c-.08.18.52.32,1.34.32h4.5c.82,0,1.55-.14,1.62-.32l.39-1C98.43,198.35,97.83,198.21,97,198.21Z"/><path class="cls-6" d="M161.68,198.21H101.46c-.8,0-1.51.14-1.57.32l-.38,1c-.07.18.54.32,1.37.32h61.37c.82,0,1.44-.14,1.37-.32l-.37-1C163.19,198.35,162.48,198.21,161.68,198.21Z"/><path class="cls-3" d="M131.87,210.26H43.66c1.12,5.39,5.87,5.64,11.38,5.64H208.7c5.51,0,10.26-.25,11.38-5.64Z"/><path class="cls-6" d="M151,203.42c-.11-.48-1.91-.87-4-.87h-30.2c-2.11,0-3.91.39-4,.87l-.43,2h39.08Z"/><path class="cls-10" d="M151.41,205.45H112.33l-.15.73c-.11.51,1.61.93,3.83.93h31.72c2.23,0,3.94-.42,3.83-.93Z"/><path class="cls-11" d="M164.87,122.19H152.68l-3.7,5.29H107.07a2.47,2.47,0,0,0-2.48,2.47v36.68a3,3,0,0,0,3,3h56.82a3,3,0,0,0,3-3v-42A2.46,2.46,0,0,0,164.87,122.19Z"/><path class="cls-6" d="M160.77,118.09H148.59l-3.71,5.29H103a2.47,2.47,0,0,0-2.47,2.47v36.69a3,3,0,0,0,3,3h56.82a3,3,0,0,0,3-3v-42A2.47,2.47,0,0,0,160.77,118.09Z"/><rect class="cls-11" x="103.15" y="126.2" width="57.44" height="35.7" transform="translate(263.74 288.1) rotate(180)"/><path class="cls-12" d="M100.5,130.92v31.62a3,3,0,0,0,3,3h56.82a3,3,0,0,0,3-3V130.92Z"/><rect class="cls-13" x="103.15" y="129.96" width="57.44" height="0.96"/><path class="cls-6" d="M205.29,138.13H176.06a5.7,5.7,0,0,0-5.71,5.7v60.73a5.71,5.71,0,0,0,5.71,5.7h29.23a5.7,5.7,0,0,0,5.7-5.7V143.83A5.7,5.7,0,0,0,205.29,138.13Z"/><path class="cls-10" d="M197.35,141.51a.49.49,0,0,1-.49.49H184.49a.5.5,0,1,1,0-1h12.37A.49.49,0,0,1,197.35,141.51Z"/><rect class="cls-7" x="171.77" y="144.88" width="37.81" height="58.63"/><path class="cls-11" d="M206.11,164.81h-5.7l-1.73,2.48H179.07a1.16,1.16,0,0,0-1.16,1.16v17.16A1.39,1.39,0,0,0,179.3,187h26.58a1.39,1.39,0,0,0,1.39-1.39V166A1.16,1.16,0,0,0,206.11,164.81Z"/><path class="cls-6" d="M204.2,162.9h-5.71l-1.73,2.47H177.15a1.16,1.16,0,0,0-1.16,1.16v17.16a1.39,1.39,0,0,0,1.39,1.39H204a1.39,1.39,0,0,0,1.39-1.39V164.05A1.15,1.15,0,0,0,204.2,162.9Z"/><rect class="cls-11" x="177.24" y="166.69" width="26.87" height="16.7" transform="translate(381.34 350.09) rotate(180)"/><path class="cls-12" d="M176,168.9v14.79a1.39,1.39,0,0,0,1.39,1.39H204a1.39,1.39,0,0,0,1.39-1.39V168.9Z"/><rect class="cls-13" x="177.24" y="168.45" width="26.87" height="0.45"/></svg>