<svg id="_ÎÓÈ_1" data-name="—ÎÓÈ_1" xmlns="http://www.w3.org/2000/svg" xmlns:xlink="http://www.w3.org/1999/xlink" viewBox="0 0 305 305"><defs><style>.cls-1{fill:#e8ebf6;}.cls-2,.cls-3,.cls-4{fill:#2a2a93;}.cls-3,.cls-6{opacity:0.7;}.cls-10,.cls-4{font-size:77.41px;font-family:HelveticaNeue-CondensedBlack, Helvetica Neue;font-weight:800;letter-spacing:0.05em;}.cls-5{fill:#4d5fce;}.cls-6{fill:url(#_ÂÁ_Ï_ÌÌ_È_ËÂÌÚ_100);}.cls-7{fill:#b1bbef;stroke:#b1bbef;stroke-miterlimit:10;}.cls-8{fill:#e3e4e9;}.cls-10,.cls-9{fill:#fff;}</style><linearGradient id="_ÂÁ_Ï_ÌÌ_È_ËÂÌÚ_100" x1="64.52" y1="167.87" x2="212.56" y2="167.87" gradientUnits="userSpaceOnUse"><stop offset="0" stop-color="#546eff"/><stop offset="1" stop-color="#516dff"/></linearGradient></defs><circle class="cls-1" cx="152.5" cy="135.34" r="109.82"/><path class="cls-2" d="M237.48,143.34V224a15.09,15.09,0,0,1-7.56,13.08l-69.86,40.34a15.12,15.12,0,0,1-15.12,0l-31.07-17.94-38.79-22.4A15.09,15.09,0,0,1,67.52,224V143.34a15.11,15.11,0,0,1,7.56-13.08l69.86-40.34a15.17,15.17,0,0,1,15.12,0L215.56,122l14.36,8.29A15.11,15.11,0,0,1,237.48,143.34Z"/><path class="cls-3" d="M215.56,122,113.87,259.51l-38.79-22.4A15.09,15.09,0,0,1,67.52,224V207.42L155.64,88.23a15,15,0,0,1,4.42,1.69Z"/><path class="cls-2" d="M228.19,222.17V148.63a10.85,10.85,0,0,0-5.42-9.39l-63.69-36.77a10.82,10.82,0,0,0-10.84,0L84.55,139.24a10.83,10.83,0,0,0-5.42,9.39v73.54a10.84,10.84,0,0,0,5.42,9.39l63.69,36.77a10.87,10.87,0,0,0,10.84,0l63.69-36.77A10.86,10.86,0,0,0,228.19,222.17Z"/><path class="cls-2" d="M227,145.33V222a8.08,8.08,0,0,1-4.05,7l-66.43,38.36a8.09,8.09,0,0,1-8.1,0l-37.73-21.78L82,229.05a8.1,8.1,0,0,1-4-7V145.33a8.11,8.11,0,0,1,4-7l44.12-25.48L148.45,100a8.13,8.13,0,0,1,8.1,0l43.27,25L223,138.32A8.09,8.09,0,0,1,227,145.33Z"/><path class="cls-2" d="M199.82,124.94l-89.1,120.69L82,229.05a8.1,8.1,0,0,1-4-7V178.1l48.17-65.26L148.45,100a8.13,8.13,0,0,1,8.1,0Z"/><path class="cls-2" d="M189.94,123.68a4.36,4.36,0,0,1-3.43,3.52,4.38,4.38,0,0,1,3.43,3.53,4.38,4.38,0,0,1,3.43-3.53A4.36,4.36,0,0,1,189.94,123.68Z"/><path class="cls-2" d="M182.33,108.78a7.38,7.38,0,0,1-5.79,6,7.38,7.38,0,0,1,5.79,6,7.4,7.4,0,0,1,5.8-6A7.4,7.4,0,0,1,182.33,108.78Z"/><ellipse class="cls-2" cx="97.21" cy="237.56" rx="5.8" ry="5.95"/><text class="cls-4" transform="translate(86.91 212.09)">NFT</text><path class="cls-5" d="M234.48,137.34V218a15.09,15.09,0,0,1-7.56,13.08l-69.86,40.34a15.12,15.12,0,0,1-15.12,0l-31.07-17.94-38.79-22.4A15.09,15.09,0,0,1,64.52,218V137.34a15.11,15.11,0,0,1,7.56-13.08l69.86-40.34a15.17,15.17,0,0,1,15.12,0L212.56,116l14.36,8.29A15.11,15.11,0,0,1,234.48,137.34Z"/><path class="cls-6" d="M212.56,116,110.87,253.51l-38.79-22.4A15.09,15.09,0,0,1,64.52,218V201.42L152.64,82.23a15,15,0,0,1,4.42,1.69Z"/><path class="cls-5" d="M225.19,216.17V142.63a10.82,10.82,0,0,0-5.43-9.39L156.08,96.47a10.82,10.82,0,0,0-10.84,0L81.55,133.24a10.83,10.83,0,0,0-5.42,9.39v73.54a10.84,10.84,0,0,0,5.42,9.39l63.69,36.77a10.87,10.87,0,0,0,10.84,0l63.68-36.77A10.85,10.85,0,0,0,225.19,216.17Z"/><path class="cls-7" d="M224,139.33V216a8.08,8.08,0,0,1-4.05,7l-66.43,38.36a8.09,8.09,0,0,1-8.1,0l-37.73-21.78L79,223.05a8.1,8.1,0,0,1-4-7V139.33a8.11,8.11,0,0,1,4-7l44.12-25.48L145.45,94a8.09,8.09,0,0,1,8.1,0l43.27,25L220,132.32A8.09,8.09,0,0,1,224,139.33Z"/><path class="cls-5" d="M196.82,118.94l-89.1,120.69L79,223.05a8.1,8.1,0,0,1-4-7V172.09l48.17-65.25L145.45,94a8.09,8.09,0,0,1,8.1,0Z"/><path class="cls-8" d="M186.94,117.68a4.36,4.36,0,0,1-3.43,3.52,4.38,4.38,0,0,1,3.43,3.53,4.38,4.38,0,0,1,3.43-3.53A4.36,4.36,0,0,1,186.94,117.68Z"/><path class="cls-9" d="M179.33,102.78a7.38,7.38,0,0,1-5.79,6,7.38,7.38,0,0,1,5.79,6,7.4,7.4,0,0,1,5.8-6A7.4,7.4,0,0,1,179.33,102.78Z"/><ellipse class="cls-9" cx="94.21" cy="231.56" rx="5.8" ry="5.95"/><text class="cls-4" transform="translate(86.91 208.09)">NFT</text><text class="cls-10" transform="translate(83.91 206.09)">NFT</text></svg>