<svg id="_ÎÓÈ_1" data-name="—ÎÓÈ_1" xmlns="http://www.w3.org/2000/svg" viewBox="0 0 305 305"><defs><style>.cls-1{fill:#e8ebf6;}.cls-2{fill:#2a2a93;}.cls-3{fill:#4d5fce;}</style></defs><circle class="cls-1" cx="152.5" cy="152.5" r="109.82"/><path class="cls-2" d="M155.65,91.76a15.59,15.59,0,1,0-4.16-21.65A15.6,15.6,0,0,0,155.65,91.76Zm-36.52,35.39a39.1,39.1,0,0,1,8-8.54l-12.47-10.39a23.17,23.17,0,1,0-11.72,10.53l14.16,11.8A38.34,38.34,0,0,1,119.13,127.15ZM134,183.85l-7.47,28a18.2,18.2,0,1,0,15.22,3.44l7.33-27.5A38.48,38.48,0,0,1,134,183.85Zm62-45.64-17.85,1.19A28.57,28.57,0,1,0,179.32,155l17.79-1.18A34,34,0,0,1,196.08,138.21Z"/><path class="cls-2" d="M91.76,155.62A23.39,23.39,0,1,0,98,188.1,23.39,23.39,0,0,0,91.76,155.62Zm150.7-31.18a23.38,23.38,0,1,0,6.26,32.48A23.26,23.26,0,0,0,242.46,124.44Z"/><path class="cls-3" d="M152.65,85.76a15.59,15.59,0,1,0-4.16-21.65A15.6,15.6,0,0,0,152.65,85.76Zm-36.52,35.39a39.1,39.1,0,0,1,8-8.54l-12.47-10.39a23.17,23.17,0,1,0-11.72,10.53l14.16,11.8A38.34,38.34,0,0,1,116.13,121.15ZM131,177.85l-7.47,28a18.2,18.2,0,1,0,15.22,3.44l7.33-27.5A38.48,38.48,0,0,1,131,177.85Zm62-45.64-17.85,1.19A28.57,28.57,0,1,0,176.32,149l17.79-1.18A34,34,0,0,1,193.08,132.21Z"/><path class="cls-3" d="M88.76,149.62A23.39,23.39,0,1,0,95,182.1,23.39,23.39,0,0,0,88.76,149.62Zm150.7-31.18a23.38,23.38,0,1,0,6.26,32.48A23.26,23.26,0,0,0,239.46,118.44Z"/></svg>