<svg id="_ÎÓÈ_1" data-name="—ÎÓÈ_1" xmlns="http://www.w3.org/2000/svg" viewBox="0 0 305 305"><defs><style>.cls-1{fill:#e8ebf6;}.cls-2{fill:#2a2a93;}.cls-3{fill:#4d5fce;}.cls-4{fill:#b1bbef;}</style></defs><circle class="cls-1" cx="157.3" cy="148.53" r="109.82"/><path class="cls-2" d="M82.66,199.34a7.52,7.52,0,0,0-7.61-7.62A7.24,7.24,0,0,0,68.19,199v45.24a4.54,4.54,0,0,0,4.54,4.54H118a7.24,7.24,0,1,0,0-14.47H92.89l39.91-39.91a7.22,7.22,0,0,0,0-10.23h0a7.24,7.24,0,0,0-10.23,0L82.66,224Z"/><path class="cls-2" d="M238.06,193.83a7.22,7.22,0,0,0-2.12,5.12V224L196,184.12a7.24,7.24,0,0,0-10.23,0h0a7.24,7.24,0,0,0,0,10.23l39.92,39.92H201a7.52,7.52,0,0,0-7.62,7.61,7.24,7.24,0,0,0,7.22,6.86h45.24a4.55,4.55,0,0,0,4.55-4.55V199a7.23,7.23,0,0,0-12.35-5.12Z"/><path class="cls-2" d="M80.54,121.42a7.22,7.22,0,0,0,2.12-5.12V91.21l39.91,39.92a7.24,7.24,0,0,0,10.23,0h0a7.22,7.22,0,0,0,0-10.23L92.89,81h24.67a7.53,7.53,0,0,0,7.64-7.6A7.24,7.24,0,0,0,118,66.51H72.74a4.55,4.55,0,0,0-4.55,4.55V116.3a7.23,7.23,0,0,0,12.35,5.12Z"/><path class="cls-2" d="M245.86,66.51H201a7.51,7.51,0,0,0-7.62,7.61A7.24,7.24,0,0,0,200.62,81h25.09L185.79,120.9a7.23,7.23,0,0,0,0,10.22h0a7.24,7.24,0,0,0,10.23,0l39.92-39.92V116.3a7.23,7.23,0,0,0,12.34,5.12,7.14,7.14,0,0,0,2.12-5.12V71.06A4.57,4.57,0,0,0,245.86,66.51Z"/><path class="cls-2" d="M144.81,206.71a4.4,4.4,0,0,0-6.31,0,4.22,4.22,0,0,0,.15,5.84L155.05,229l2.36,2.36a2.67,2.67,0,0,0,3.77,0l2.36-2.36,16.4-16.41a4.24,4.24,0,0,0-6-6L163.54,217V183.85a4.24,4.24,0,0,0-4.24-4.25h0a4.25,4.25,0,0,0-4.25,4.25V217Z"/><path class="cls-2" d="M207,140a4.21,4.21,0,0,0,1.25,3l10.4,10.41H185.52a4.24,4.24,0,0,0-4.24,4.24h0a4.24,4.24,0,0,0,4.24,4.25h33.11l-10.24,10.24a4.4,4.4,0,0,0,0,6.31,4.26,4.26,0,0,0,5.85-.15l16.4-16.4,2.36-2.36a2.68,2.68,0,0,0,0-3.78L214.23,137a4.25,4.25,0,0,0-7.25,3Z"/><path class="cls-2" d="M111.61,175.27a4.23,4.23,0,0,0-1.24-3L100,161.87h33.11a4.24,4.24,0,0,0,4.24-4.25h0a4.24,4.24,0,0,0-4.24-4.24H100l10.24-10.24a4.42,4.42,0,0,0,0-6.32,4.25,4.25,0,0,0-5.84.15L85.6,155.73a2.68,2.68,0,0,0,0,3.78L88,161.87l16.41,16.4a4.24,4.24,0,0,0,7.24-3Z"/><path class="cls-2" d="M157.41,83.93l-18.6,18.6a4.4,4.4,0,0,0,0,6.31,4.23,4.23,0,0,0,5.85-.15l10.4-10.4V131.4a4.24,4.24,0,0,0,4.24,4.24h0a4.24,4.24,0,0,0,4.24-4.24V98.29L174,108.7a4.24,4.24,0,0,0,7.24-3,4.2,4.2,0,0,0-1.24-3L163.54,86.29l-2.36-2.36A2.67,2.67,0,0,0,157.41,83.93Z"/><path class="cls-3" d="M80.66,190.25a7.52,7.52,0,0,0-7.61-7.62,7.24,7.24,0,0,0-6.86,7.23V235.1a4.54,4.54,0,0,0,4.54,4.54H116a7.23,7.23,0,1,0,0-14.46H90.89l39.91-39.92a7.22,7.22,0,0,0,0-10.23h0a7.24,7.24,0,0,0-10.23,0L80.66,215Z"/><path class="cls-3" d="M236.06,184.74a7.22,7.22,0,0,0-2.12,5.12V215L194,175a7.24,7.24,0,0,0-10.23,0h0a7.23,7.23,0,0,0,0,10.22l39.92,39.92H199a7.49,7.49,0,0,0-7.62,7.6,7.24,7.24,0,0,0,7.22,6.86h45.24a4.55,4.55,0,0,0,4.55-4.55V189.86a7.23,7.23,0,0,0-12.35-5.12Z"/><path class="cls-3" d="M78.54,112.33a7.26,7.26,0,0,0,2.12-5.12V82.13L120.57,122a7.24,7.24,0,0,0,10.23,0h0a7.21,7.21,0,0,0,0-10.22L90.89,71.89h24.67a7.53,7.53,0,0,0,7.64-7.6A7.24,7.24,0,0,0,116,57.42H70.74A4.55,4.55,0,0,0,66.19,62v45.25a7.23,7.23,0,0,0,12.35,5.11Z"/><path class="cls-3" d="M243.86,57.42H199A7.51,7.51,0,0,0,191.4,65a7.24,7.24,0,0,0,7.22,6.86h25.09l-39.92,39.92a7.24,7.24,0,0,0,0,10.23h0A7.24,7.24,0,0,0,194,122l39.92-39.92v25.1a7.23,7.23,0,0,0,12.34,5.11,7.13,7.13,0,0,0,2.12-5.11V62A4.57,4.57,0,0,0,243.86,57.42Z"/><path class="cls-4" d="M142.81,197.63a4.4,4.4,0,0,0-6.31,0,4.22,4.22,0,0,0,.15,5.84l16.4,16.41,2.36,2.36a2.67,2.67,0,0,0,3.77,0l2.36-2.36,16.4-16.41a4.24,4.24,0,0,0-6-6l-10.4,10.41V174.76a4.24,4.24,0,0,0-4.24-4.25h0a4.25,4.25,0,0,0-4.25,4.25v33.11Z"/><path class="cls-4" d="M205,130.88a4.25,4.25,0,0,0,1.25,3l10.4,10.4H183.52a4.24,4.24,0,0,0-4.24,4.24h0a4.24,4.24,0,0,0,4.24,4.24h33.11L206.39,163a4.4,4.4,0,0,0,0,6.31,4.23,4.23,0,0,0,5.85-.15l16.4-16.4,2.36-2.36a2.67,2.67,0,0,0,0-3.77l-18.76-18.77a4.25,4.25,0,0,0-7.25,3Z"/><path class="cls-4" d="M109.61,166.18a4.23,4.23,0,0,0-1.24-3L98,152.78h33.11a4.24,4.24,0,0,0,4.24-4.24h0a4.24,4.24,0,0,0-4.24-4.24H98l10.24-10.23a4.42,4.42,0,0,0,0-6.32,4.23,4.23,0,0,0-5.84.14L83.6,146.65a2.67,2.67,0,0,0,0,3.77L86,152.78l16.41,16.41a4.24,4.24,0,0,0,7.24-3Z"/><path class="cls-4" d="M155.41,74.84l-18.6,18.6a4.4,4.4,0,0,0,0,6.31,4.25,4.25,0,0,0,5.85-.14l10.4-10.41v33.11a4.24,4.24,0,0,0,4.24,4.24h0a4.24,4.24,0,0,0,4.24-4.24V89.2L172,99.61a4.24,4.24,0,0,0,7.24-3,4.2,4.2,0,0,0-1.24-3L161.54,77.2l-2.36-2.36A2.67,2.67,0,0,0,155.41,74.84Z"/></svg>