<svg id="_ÎÓÈ_1" data-name="—ÎÓÈ_1" xmlns="http://www.w3.org/2000/svg" viewBox="0 0 305 305"><defs><style>.cls-1{fill:#e8ebf6;}.cls-2{fill:#2a2a93;}.cls-3{fill:#4d5fce;}.cls-4{fill:#b1bbef;}</style></defs><circle class="cls-1" cx="152.5" cy="142.45" r="109.82"/><path class="cls-2" d="M121.09,71.35l-5.93-11.73a95.05,95.05,0,0,1,32-8.45c2.63-.22,5.27-.33,8-.33a95.82,95.82,0,0,1,73.06,33.91c.74.89,1.45,1.79,2.16,2.7l10.27-7.58L239,109.7l-29-7.24,9.77-7.21-.16-.21a83,83,0,0,0-25.69-21.33,80.86,80.86,0,0,0-16.57-6.66,82.3,82.3,0,0,0-56.28,4.3ZM99.63,207.56l-7.92,10.56a96.64,96.64,0,0,1-9.6-9.81c-2-2.38-3.92-4.87-5.7-7.44a95.52,95.52,0,0,1-6-98.85l-10.57-6.9,28.53-8.9,3.31,29.7-10.22-6.68a82.13,82.13,0,0,0-8.92,37.28,83.4,83.4,0,0,0,2.07,18.42,82,82,0,0,0,13.93,30.37c.68.93,1.38,1.83,2.09,2.72A82.51,82.51,0,0,0,99.63,207.56ZM249.56,162a94.87,94.87,0,0,1-11.29,31.86,96.27,96.27,0,0,1-21.37,25.67A95.22,95.22,0,0,1,161.34,242l0,13.15-23.11-18.94,23-19.09,0,11.72A82.67,82.67,0,0,0,228,185.34,81.3,81.3,0,0,0,236.19,162Z"/><path class="cls-2" d="M216.75,158a61.68,61.68,0,0,0,1.07-11.46c0-.07,0-.14,0-.21h0a61.19,61.19,0,0,0-1.06-11.24l-13.68-1.93a48.18,48.18,0,0,0-4.59-11.1l8.3-11.06A62.85,62.85,0,0,0,190.6,94.82l-11.09,8.3a48.48,48.48,0,0,0-11.07-4.62l-2-13.65a61.36,61.36,0,0,0-11.43-1.07,62.22,62.22,0,0,0-11.48,1.07L141.64,98.5a49.35,49.35,0,0,0-11.09,4.59l-11.07-8.27A63.33,63.33,0,0,0,103.3,111l8.28,11A48.34,48.34,0,0,0,107,133.16l-13.62,1.93a60.33,60.33,0,0,0-1.07,11.24h0c0,.07,0,.14,0,.21A60.84,60.84,0,0,0,93.34,158L107,159.93a48.34,48.34,0,0,0,4.62,11.12l-8.28,11a63.33,63.33,0,0,0,16.18,16.18L130.55,190a49.35,49.35,0,0,0,11.09,4.59l1.93,13.65a62.22,62.22,0,0,0,11.48,1.07,61.36,61.36,0,0,0,11.43-1.07l2-13.65A48.48,48.48,0,0,0,179.51,190l11.09,8.3a62.85,62.85,0,0,0,16.18-16.18L198.48,171a47.92,47.92,0,0,0,4.59-11.09ZM155,183.68a37.15,37.15,0,0,1-37.17-37.13c0-.18,0-.35,0-.52h0a37.16,37.16,0,0,1,74.32,0h0c0,.17,0,.34,0,.52A37.13,37.13,0,0,1,155,183.68Z"/><path class="cls-2" d="M155,120.47a26.08,26.08,0,1,0,26.07,26.08A26.07,26.07,0,0,0,155,120.47Zm-2.74,41.2-14.8-14.79,5.54-5.54,9.26,9.26L167,135.84l5.58,5.58Z"/><path class="cls-3" d="M117.09,70.35l-5.93-11.73a95,95,0,0,1,32-8.45c2.63-.22,5.27-.33,8-.33a95.82,95.82,0,0,1,73.06,33.91c.74.89,1.45,1.79,2.16,2.7l10.27-7.58L235,108.7l-29-7.24,9.77-7.21-.16-.21a83,83,0,0,0-25.69-21.33,80.86,80.86,0,0,0-16.57-6.66,82.3,82.3,0,0,0-56.28,4.3ZM95.63,206.56l-7.92,10.56a96.64,96.64,0,0,1-9.6-9.81c-2-2.38-3.92-4.87-5.7-7.44a95.52,95.52,0,0,1-6-98.85l-10.57-6.9,28.52-8.9,3.32,29.7-10.22-6.68a82.13,82.13,0,0,0-8.92,37.28,83.4,83.4,0,0,0,2.07,18.42,82,82,0,0,0,13.93,30.37c.68.93,1.38,1.83,2.09,2.72A82.51,82.51,0,0,0,95.63,206.56ZM245.56,161a94.87,94.87,0,0,1-11.29,31.86,96.27,96.27,0,0,1-21.37,25.67A95.22,95.22,0,0,1,157.34,241l0,13.15-23.11-18.94,23-19.09,0,11.72A82.67,82.67,0,0,0,224,184.34,81.3,81.3,0,0,0,232.19,161Z"/><path class="cls-4" d="M212.75,157a61.68,61.68,0,0,0,1.07-11.46c0-.07,0-.14,0-.21h0a61.19,61.19,0,0,0-1.06-11.24l-13.68-1.93a48.18,48.18,0,0,0-4.59-11.1l8.3-11.06A62.85,62.85,0,0,0,186.6,93.82l-11.09,8.3a48.48,48.48,0,0,0-11.07-4.62l-2-13.65a61.36,61.36,0,0,0-11.43-1.07,62.22,62.22,0,0,0-11.48,1.07L137.64,97.5a49.35,49.35,0,0,0-11.09,4.59l-11.07-8.27A63.33,63.33,0,0,0,99.3,110l8.28,11A48.34,48.34,0,0,0,103,132.16l-13.62,1.93a60.33,60.33,0,0,0-1.07,11.24h0c0,.07,0,.14,0,.21A60.84,60.84,0,0,0,89.34,157L103,158.93a48.34,48.34,0,0,0,4.62,11.12l-8.28,11a63.33,63.33,0,0,0,16.18,16.18L126.55,189a49.35,49.35,0,0,0,11.09,4.59l1.93,13.65a62.22,62.22,0,0,0,11.48,1.07,61.36,61.36,0,0,0,11.43-1.07l2-13.65A48.48,48.48,0,0,0,175.51,189l11.09,8.3a62.85,62.85,0,0,0,16.18-16.18L194.48,170a47.92,47.92,0,0,0,4.59-11.09ZM151,182.68a37.15,37.15,0,0,1-37.17-37.13c0-.18,0-.35,0-.52h0a37.16,37.16,0,0,1,74.31,0h0c0,.17,0,.34,0,.52A37.13,37.13,0,0,1,151,182.68Z"/><path class="cls-3" d="M151,119.47a26.08,26.08,0,1,0,26.07,26.08A26.07,26.07,0,0,0,151,119.47Zm-2.74,41.2-14.8-14.79,5.54-5.54,9.26,9.26L163,134.84l5.58,5.58Z"/></svg>