<svg id="_ÎÓÈ_1" data-name="—ÎÓÈ_1" xmlns="http://www.w3.org/2000/svg" xmlns:xlink="http://www.w3.org/1999/xlink" viewBox="0 0 305 305"><defs><style>.cls-1{fill:#e8ebf6;}.cls-2{fill:#2a2a93;}.cls-3{fill:#4d5fce;}.cls-4{fill:#fff;}.cls-5{fill:url(#_ÂÁ_Ï_ÌÌ_È_ËÂÌÚ_48);}</style><linearGradient id="_ÂÁ_Ï_ÌÌ_È_ËÂÌÚ_48" x1="129.33" y1="195.01" x2="194.38" y2="195.01" gradientUnits="userSpaceOnUse"><stop offset="0" stop-color="#546eff"/><stop offset="1" stop-color="#516dff"/></linearGradient></defs><circle class="cls-1" cx="152.5" cy="152.5" r="109.82"/><path class="cls-2" d="M198.38,119.27h-11v6h11a3,3,0,1,0,0-6Zm-4-40.89a35.91,35.91,0,1,0,35.9,35.9A35.9,35.9,0,0,0,194.39,78.38Zm4,24.93h-11v6h11a3,3,0,0,0,0-6Z"/><path class="cls-2" d="M190.75,162.91a11.26,11.26,0,0,0-8.65,2.67,9.38,9.38,0,0,0-7.31-6.66,11.14,11.14,0,0,0-8.27,2.39,10.25,10.25,0,0,0-7.69-6.38,11.2,11.2,0,0,0-9.32,3.5V133.22a8.15,8.15,0,0,0-5.38-7.9,8,8,0,0,0-10.57,7.56v63.83a8,8,0,0,1-8-8v-7.2a2.77,2.77,0,0,0-2.77-2.77H120.4a10.78,10.78,0,0,0-10.78,10.78v19.7a12,12,0,0,0,4.08,9l10.74,9.41a11.94,11.94,0,0,0,7.89,3h44.14a12,12,0,0,0,8.46-3.5l8.95-9a12,12,0,0,0,3.5-8.46v-38.5A8.27,8.27,0,0,0,190.75,162.91Zm-67.17-8.08h-10a4,4,0,0,1-4-4V103a4,4,0,0,1,4-4H151.2a45.49,45.49,0,0,1,6.4-12H93.66a16,16,0,0,0-16,16v47.87a16,16,0,0,0,16,15.95h29.92ZM96.81,133.62a6.72,6.72,0,1,1,6.72-6.72A6.72,6.72,0,0,1,96.81,133.62Z"/><path class="cls-3" d="M195.38,115.27h-11v6h11a3,3,0,1,0,0-6Zm-4-40.89a35.91,35.91,0,1,0,35.9,35.9A35.9,35.9,0,0,0,191.39,74.38Zm4,24.93h-11v6h11a3,3,0,0,0,0-6Z"/><path class="cls-3" d="M187.74,158.91a11.25,11.25,0,0,0-8.64,2.67,9.38,9.38,0,0,0-7.31-6.66,11.14,11.14,0,0,0-8.27,2.39,10.25,10.25,0,0,0-7.69-6.38,11.2,11.2,0,0,0-9.32,3.5V129.22a8.15,8.15,0,0,0-5.38-7.9,8,8,0,0,0-10.57,7.56v63.83a8,8,0,0,1-8-8v-7.2a2.77,2.77,0,0,0-2.77-2.77H117.4a10.78,10.78,0,0,0-10.78,10.78v19.7a12,12,0,0,0,4.08,9l10.74,9.41a11.94,11.94,0,0,0,7.89,3h44.14a11.94,11.94,0,0,0,8.46-3.51l8.95-8.94a12,12,0,0,0,3.5-8.46v-38.5A8.27,8.27,0,0,0,187.74,158.91Zm-67.16-8.09h-10a4,4,0,0,1-4-4V99a4,4,0,0,1,4-4H148.2a45.49,45.49,0,0,1,6.4-12H90.66a16,16,0,0,0-16,16v47.87a16,16,0,0,0,16,15.95h29.92Zm-26.77-21.2a6.72,6.72,0,1,1,6.72-6.72A6.72,6.72,0,0,1,93.81,129.62Z"/><path class="cls-2" d="M184.46,131.87c.87-.32,1.73-.59,2.56-.93a14.15,14.15,0,0,0,5.68-4,9.72,9.72,0,0,0-5.43-15.75l-.4-.08a11.32,11.32,0,0,0,1.29-.3,7.47,7.47,0,0,0,3.52-2.57,10.64,10.64,0,0,0,2.49-6.57,8.68,8.68,0,0,0-3.87-7.57,15.73,15.73,0,0,0-5.78-2.48c-1.13-.25-2.27-.43-3.41-.64l.2-.12a22.14,22.14,0,0,1,8.35-2.8,22.84,22.84,0,0,1,8,44.91,21.32,21.32,0,0,1-13.06-1l-.15-.06"/><path class="cls-2" d="M175.39,108.15H170.8c-.12,0-.24,0-.37,0s-.25-.08-.25-.28a13.78,13.78,0,0,1,.5-3A20.69,20.69,0,0,1,174,97.49a2.41,2.41,0,0,0,.23-.36,1.25,1.25,0,0,1,1.23-.79c1.15,0,2.3,0,3.44,0a25.75,25.75,0,0,1,2.78.15,6.56,6.56,0,0,1,5.51,4,4.83,4.83,0,0,1-1.6,6,8.66,8.66,0,0,1-3.74,1.53,16.78,16.78,0,0,1-3.61.24c-1,0-1.91,0-2.86,0Z"/><path class="cls-2" d="M175.45,113.26c.88,0,1.77,0,2.65,0a14.2,14.2,0,0,1,5.85.83,6,6,0,0,1,2.62,1.87,4.8,4.8,0,0,1,.43,5.51,6.48,6.48,0,0,1-4.73,3.41,15.38,15.38,0,0,1-2.45.21c-1.32,0-2.65,0-4,0-.22,0-.44,0-.66,0a1,1,0,0,1-.79-.48c-.52-.83-1.07-1.64-1.56-2.49a22.17,22.17,0,0,1-2.58-7.63c0-.3,0-.62-.06-.92s.07-.25.25-.25h5Z"/><path class="cls-4" d="M182.46,129.87c.87-.32,1.73-.59,2.56-.93a14.15,14.15,0,0,0,5.68-4,9.72,9.72,0,0,0-5.43-15.75c-.15,0-.3-.06-.41-.08a11,11,0,0,0,1.3-.3,7.47,7.47,0,0,0,3.52-2.57,10.64,10.64,0,0,0,2.49-6.57,8.68,8.68,0,0,0-3.87-7.57,15.73,15.73,0,0,0-5.78-2.48c-1.13-.25-2.27-.43-3.41-.64l.2-.12a22.14,22.14,0,0,1,8.35-2.8,22.84,22.84,0,0,1,8,44.91,21.32,21.32,0,0,1-13.06-1l-.15-.06"/><path class="cls-4" d="M173.39,106.15H168.8c-.12,0-.24,0-.37,0s-.25-.08-.25-.28a13.78,13.78,0,0,1,.5-3A20.69,20.69,0,0,1,172,95.49a2.41,2.41,0,0,0,.23-.36,1.25,1.25,0,0,1,1.23-.79c1.15,0,2.3,0,3.44,0a25.75,25.75,0,0,1,2.78.15,6.56,6.56,0,0,1,5.51,4,4.83,4.83,0,0,1-1.6,6,8.66,8.66,0,0,1-3.74,1.53,16.78,16.78,0,0,1-3.61.24c-1,0-1.91,0-2.86,0Z"/><path class="cls-4" d="M173.45,111.26c.88,0,1.77,0,2.65,0a14.2,14.2,0,0,1,5.85.83,6,6,0,0,1,2.62,1.87,4.8,4.8,0,0,1,.43,5.51,6.5,6.5,0,0,1-4.73,3.41,15.38,15.38,0,0,1-2.45.21c-1.32,0-2.65,0-4,0-.22,0-.44,0-.66,0a1,1,0,0,1-.79-.48c-.53-.83-1.07-1.64-1.56-2.49a22.17,22.17,0,0,1-2.58-7.63c0-.3,0-.62-.06-.92s.07-.25.25-.25h5Z"/><polyline class="cls-5" points="129.33 226.62 144.85 222.5 190.75 162.91 194.38 205.71 182.93 227.12"/></svg>