<svg id="_ÎÓÈ_1" data-name="—ÎÓÈ_1" xmlns="http://www.w3.org/2000/svg" xmlns:xlink="http://www.w3.org/1999/xlink" viewBox="0 0 305 305"><defs><style>.cls-1{mask:url(#mask);filter:url(#luminosity-noclip-5);}.cls-2,.cls-4,.cls-6,.cls-8{mix-blend-mode:multiply;}.cls-2{fill:url(#linear-gradient);}.cls-3{mask:url(#mask-2);filter:url(#luminosity-noclip-6);}.cls-4{fill:url(#linear-gradient-2);}.cls-5{mask:url(#mask-3);filter:url(#luminosity-noclip-7);}.cls-6{fill:url(#linear-gradient-3);}.cls-7{mask:url(#mask-4);filter:url(#luminosity-noclip-8);}.cls-8{fill:url(#linear-gradient-4);}.cls-9{fill:#e8ebf6;}.cls-10{fill:#727276;opacity:0.07;}.cls-11{fill:none;stroke:#a0a0a0;stroke-dasharray:6.03 6.03;}.cls-11,.cls-35{stroke-miterlimit:10;}.cls-12{opacity:0.5;}.cls-13{fill:#cbcdd2;}.cls-13,.cls-26{opacity:0.1;}.cls-14,.cls-35{fill:#fff;}.cls-15{fill:#2a2a93;}.cls-16{fill:url(#_ÂÁ_Ï_ÌÌ_È_ËÂÌÚ_48);}.cls-17{fill:url(#_ÂÁ_Ï_ÌÌ_È_ËÂÌÚ_48-2);}.cls-18{fill:url(#_ÂÁ_Ï_ÌÌ_È_ËÂÌÚ_48-3);}.cls-19{fill:url(#_ÂÁ_Ï_ÌÌ_È_ËÂÌÚ_48-4);}.cls-20{fill:url(#_ÂÁ_Ï_ÌÌ_È_ËÂÌÚ_48-5);}.cls-21{fill:url(#_ÂÁ_Ï_ÌÌ_È_ËÂÌÚ_48-6);}.cls-22{fill:url(#_ÂÁ_Ï_ÌÌ_È_ËÂÌÚ_48-7);}.cls-23{fill:url(#_ÂÁ_Ï_ÌÌ_È_ËÂÌÚ_48-8);}.cls-24{fill:#4d5fce;}.cls-25{fill:#eef7fc;}.cls-26{fill:#afaeb4;}.cls-27{mask:url(#mask-5);}.cls-28{fill:url(#_ÂÁ_Ï_ÌÌ_È_ËÂÌÚ_48-9);}.cls-29{mask:url(#mask-6);}.cls-30{fill:url(#_ÂÁ_Ï_ÌÌ_È_ËÂÌÚ_48-10);}.cls-31{mask:url(#mask-7);}.cls-32{fill:url(#_ÂÁ_Ï_ÌÌ_È_ËÂÌÚ_48-11);}.cls-33{mask:url(#mask-8);}.cls-34{fill:url(#_ÂÁ_Ï_ÌÌ_È_ËÂÌÚ_48-12);}.cls-35{stroke:#7979d3;stroke-width:1.88px;}.cls-36{filter:url(#luminosity-noclip-4);}.cls-37{filter:url(#luminosity-noclip-3);}.cls-38{filter:url(#luminosity-noclip-2);}.cls-39{filter:url(#luminosity-noclip);}</style><filter id="luminosity-noclip" x="111.54" y="-8344.5" width="33.24" height="32766" filterUnits="userSpaceOnUse" color-interpolation-filters="sRGB"><feFlood flood-color="#fff" result="bg"/><feBlend in="SourceGraphic" in2="bg"/></filter><mask id="mask" x="111.54" y="-8344.5" width="33.24" height="32766" maskUnits="userSpaceOnUse"><g class="cls-39"/></mask><linearGradient id="linear-gradient" x1="136.47" y1="247.87" x2="119.85" y2="219.08" gradientUnits="userSpaceOnUse"><stop offset="0.77"/><stop offset="0.81" stop-color="#030303"/><stop offset="0.84" stop-color="#0c0c0c"/><stop offset="0.87" stop-color="#1c1c1c"/><stop offset="0.89" stop-color="#323232"/><stop offset="0.91" stop-color="#4e4e4e"/><stop offset="0.94" stop-color="#717171"/><stop offset="0.96" stop-color="#9b9b9b"/><stop offset="0.98" stop-color="#cacaca"/><stop offset="0.99" stop-color="#fff"/><stop offset="1" stop-color="#eaeaea"/></linearGradient><filter id="luminosity-noclip-2" x="166.3" y="-8344.5" width="24.22" height="32766" filterUnits="userSpaceOnUse" color-interpolation-filters="sRGB"><feFlood flood-color="#fff" result="bg"/><feBlend in="SourceGraphic" in2="bg"/></filter><mask id="mask-2" x="166.3" y="-8344.5" width="24.22" height="32766" maskUnits="userSpaceOnUse"><g class="cls-38"/></mask><linearGradient id="linear-gradient-2" x1="-1777.72" y1="-424.76" x2="-1789.83" y2="-445.74" gradientTransform="translate(-256.84 2009.7) rotate(90)" xlink:href="#linear-gradient"/><filter id="luminosity-noclip-3" x="178.41" y="-8344.5" width="24.22" height="32766" filterUnits="userSpaceOnUse" color-interpolation-filters="sRGB"><feFlood flood-color="#fff" result="bg"/><feBlend in="SourceGraphic" in2="bg"/></filter><mask id="mask-3" x="178.41" y="-8344.5" width="24.22" height="32766" maskUnits="userSpaceOnUse"><g class="cls-37"/></mask><linearGradient id="linear-gradient-3" x1="-1765.7" y1="-436.87" x2="-1777.81" y2="-457.85" gradientTransform="translate(-256.84 2009.7) rotate(90)" xlink:href="#linear-gradient"/><filter id="luminosity-noclip-4" x="132.31" y="-8344.5" width="46.69" height="32766" filterUnits="userSpaceOnUse" color-interpolation-filters="sRGB"><feFlood flood-color="#fff" result="bg"/><feBlend in="SourceGraphic" in2="bg"/></filter><mask id="mask-4" x="132.31" y="-8344.5" width="46.69" height="32766" maskUnits="userSpaceOnUse"><g class="cls-36"/></mask><linearGradient id="linear-gradient-4" x1="167.32" y1="239.75" x2="143.97" y2="199.31" xlink:href="#linear-gradient"/><linearGradient id="_ÂÁ_Ï_ÌÌ_È_ËÂÌÚ_48" x1="81.91" y1="139.24" x2="86.99" y2="139.24" gradientUnits="userSpaceOnUse"><stop offset="0" stop-color="#546eff"/><stop offset="1" stop-color="#516dff"/></linearGradient><linearGradient id="_ÂÁ_Ï_ÌÌ_È_ËÂÌÚ_48-2" x1="64.34" y1="139.24" x2="69.42" y2="139.24" xlink:href="#_ÂÁ_Ï_ÌÌ_È_ËÂÌÚ_48"/><linearGradient id="_ÂÁ_Ï_ÌÌ_È_ËÂÌÚ_48-3" x1="61.16" y1="162.45" x2="90.13" y2="162.45" xlink:href="#_ÂÁ_Ï_ÌÌ_È_ËÂÌÚ_48"/><linearGradient id="_ÂÁ_Ï_ÌÌ_È_ËÂÌÚ_48-4" x1="70.05" y1="147.55" x2="81.21" y2="147.55" xlink:href="#_ÂÁ_Ï_ÌÌ_È_ËÂÌÚ_48"/><linearGradient id="_ÂÁ_Ï_ÌÌ_È_ËÂÌÚ_48-5" x1="65.82" y1="137.85" x2="85.42" y2="137.85" xlink:href="#_ÂÁ_Ï_ÌÌ_È_ËÂÌÚ_48"/><linearGradient id="_ÂÁ_Ï_ÌÌ_È_ËÂÌÚ_48-6" x1="65.04" y1="131.53" x2="86.03" y2="131.53" xlink:href="#_ÂÁ_Ï_ÌÌ_È_ËÂÌÚ_48"/><linearGradient id="_ÂÁ_Ï_ÌÌ_È_ËÂÌÚ_48-7" x1="73.95" y1="153.67" x2="77.26" y2="153.67" xlink:href="#_ÂÁ_Ï_ÌÌ_È_ËÂÌÚ_48"/><linearGradient id="_ÂÁ_Ï_ÌÌ_È_ËÂÌÚ_48-8" x1="73.41" y1="159.43" x2="78.2" y2="159.43" xlink:href="#_ÂÁ_Ï_ÌÌ_È_ËÂÌÚ_48"/><filter id="luminosity-noclip-5" x="111.54" y="216.85" width="33.24" height="33.24" filterUnits="userSpaceOnUse" color-interpolation-filters="sRGB"><feFlood flood-color="#fff" result="bg"/><feBlend in="SourceGraphic" in2="bg"/></filter><mask id="mask-5" x="111.54" y="216.85" width="33.24" height="33.24" maskUnits="userSpaceOnUse"><g class="cls-1"><path class="cls-2" d="M144.77,233.47a16.62,16.62,0,1,1-16.61-16.62A16.61,16.61,0,0,1,144.77,233.47Z"/></g></mask><linearGradient id="_ÂÁ_Ï_ÌÌ_È_ËÂÌÚ_48-9" x1="136.47" y1="247.87" x2="119.85" y2="219.08" xlink:href="#_ÂÁ_Ï_ÌÌ_È_ËÂÌÚ_48"/><filter id="luminosity-noclip-6" x="166.3" y="213.82" width="24.22" height="24.22" filterUnits="userSpaceOnUse" color-interpolation-filters="sRGB"><feFlood flood-color="#fff" result="bg"/><feBlend in="SourceGraphic" in2="bg"/></filter><mask id="mask-6" x="166.3" y="213.82" width="24.22" height="24.22" maskUnits="userSpaceOnUse"><g class="cls-3"><path class="cls-4" d="M178.41,238a12.11,12.11,0,1,1,12.11-12.1A12.11,12.11,0,0,1,178.41,238Z"/></g></mask><linearGradient id="_ÂÁ_Ï_ÌÌ_È_ËÂÌÚ_48-10" x1="-1777.72" y1="-424.76" x2="-1789.83" y2="-445.74" gradientTransform="translate(-256.84 2009.7) rotate(90)" xlink:href="#_ÂÁ_Ï_ÌÌ_È_ËÂÌÚ_48"/><filter id="luminosity-noclip-7" x="178.41" y="225.83" width="24.22" height="24.22" filterUnits="userSpaceOnUse" color-interpolation-filters="sRGB"><feFlood flood-color="#fff" result="bg"/><feBlend in="SourceGraphic" in2="bg"/></filter><mask id="mask-7" x="178.41" y="225.83" width="24.22" height="24.22" maskUnits="userSpaceOnUse"><g class="cls-5"><path class="cls-6" d="M190.52,250.05a12.11,12.11,0,1,1,12.11-12.11A12.11,12.11,0,0,1,190.52,250.05Z"/></g></mask><linearGradient id="_ÂÁ_Ï_ÌÌ_È_ËÂÌÚ_48-11" x1="-1765.7" y1="-436.87" x2="-1777.81" y2="-457.85" gradientTransform="translate(-256.84 2009.7) rotate(90)" xlink:href="#_ÂÁ_Ï_ÌÌ_È_ËÂÌÚ_48"/><filter id="luminosity-noclip-8" x="132.31" y="196.19" width="46.69" height="46.68" filterUnits="userSpaceOnUse" color-interpolation-filters="sRGB"><feFlood flood-color="#fff" result="bg"/><feBlend in="SourceGraphic" in2="bg"/></filter><mask id="mask-8" x="132.31" y="196.19" width="46.69" height="46.68" maskUnits="userSpaceOnUse"><g class="cls-7"><path class="cls-8" d="M179,219.53a23.34,23.34,0,1,1-23.34-23.34A23.34,23.34,0,0,1,179,219.53Z"/></g></mask><linearGradient id="_ÂÁ_Ï_ÌÌ_È_ËÂÌÚ_48-12" x1="167.32" y1="239.75" x2="143.97" y2="199.31" xlink:href="#_ÂÁ_Ï_ÌÌ_È_ËÂÌÚ_48"/></defs><circle class="cls-9" cx="151.31" cy="142.45" r="109.82"/><path class="cls-10" d="M213.55,274.23c0,2.6-25.62,4.7-57.23,4.7s-57.22-2.1-57.22-4.7,25.62-4.7,57.22-4.7S213.55,271.63,213.55,274.23Z"/><path class="cls-10" d="M209,274.23c0,2.39-23.59,4.33-52.7,4.33s-52.69-1.94-52.69-4.33,23.59-4.33,52.69-4.33S209,271.84,209,274.23Z"/><path class="cls-10" d="M235.4,274.23c0,3.59-35.41,6.5-79.08,6.5s-79.07-2.91-79.07-6.5,35.4-6.5,79.07-6.5S235.4,270.64,235.4,274.23Z"/><path class="cls-10" d="M229.14,274.23c0,3.3-32.6,6-72.82,6s-72.81-2.68-72.81-6,32.6-6,72.81-6S229.14,270.93,229.14,274.23Z"/><path class="cls-10" d="M223.84,274.23c0,3.06-30.23,5.55-67.52,5.55s-67.52-2.49-67.52-5.55,30.23-5.55,67.52-5.55S223.84,271.17,223.84,274.23Z"/><path class="cls-10" d="M218.06,274.23c0,2.8-27.64,5.07-61.74,5.07S94.58,277,94.58,274.23s27.64-5.07,61.74-5.07S218.06,271.43,218.06,274.23Z"/><path class="cls-10" d="M181.88,274.23c0,1.16-11.44,2.1-25.56,2.1s-25.56-.94-25.56-2.1,11.45-2.1,25.56-2.1S181.88,273.07,181.88,274.23Z"/><path class="cls-10" d="M179.86,274.23c0,1.07-10.54,1.93-23.54,1.93s-23.53-.86-23.53-1.93,10.53-1.93,23.53-1.93S179.86,273.16,179.86,274.23Z"/><path class="cls-10" d="M178.15,274.23c0,1-9.77,1.79-21.83,1.79s-21.82-.8-21.82-1.79,9.77-1.79,21.82-1.79S178.15,273.24,178.15,274.23Z"/><path class="cls-10" d="M176.28,274.23c0,.91-8.94,1.64-20,1.64s-19.95-.73-19.95-1.64,8.93-1.64,19.95-1.64S176.28,273.32,176.28,274.23Z"/><path class="cls-10" d="M191.37,274.23c0,1.59-15.69,2.88-35.05,2.88s-35-1.29-35-2.88,15.69-2.88,35.05-2.88S191.37,272.64,191.37,274.23Z"/><path class="cls-10" d="M188.6,274.23c0,1.46-14.45,2.65-32.28,2.65s-32.27-1.19-32.27-2.65,14.45-2.65,32.27-2.65S188.6,272.77,188.6,274.23Z"/><path class="cls-10" d="M186.25,274.23c0,1.36-13.4,2.46-29.93,2.46s-29.93-1.1-29.93-2.46,13.4-2.46,29.93-2.46S186.25,272.87,186.25,274.23Z"/><path class="cls-10" d="M183.69,274.23c0,1.24-12.25,2.25-27.37,2.25s-27.37-1-27.37-2.25S141.21,272,156.32,272,183.69,273,183.69,274.23Z"/><path class="cls-10" d="M204.76,274.23c0,2.2-21.69,4-48.44,4s-48.43-1.78-48.43-4,21.68-4,48.43-4S204.76,272,204.76,274.23Z"/><path class="cls-10" d="M200.92,274.23c0,2-20,3.67-44.6,3.67s-44.6-1.65-44.6-3.67,20-3.66,44.6-3.66S200.92,272.21,200.92,274.23Z"/><path class="cls-10" d="M197.68,274.23c0,1.88-18.52,3.4-41.36,3.4S115,276.11,115,274.23s18.51-3.4,41.35-3.4S197.68,272.35,197.68,274.23Z"/><path class="cls-10" d="M194.14,274.23c0,1.72-16.93,3.11-37.82,3.11S118.5,276,118.5,274.23s16.94-3.11,37.82-3.11S194.14,272.51,194.14,274.23Z"/><path class="cls-10" d="M173.94,274.23c0,.8-7.89,1.45-17.62,1.45s-17.62-.65-17.62-1.45,7.89-1.45,17.62-1.45S173.94,273.43,173.94,274.23Z"/><path class="cls-10" d="M172.39,274.23c0,.73-7.19,1.32-16.07,1.32s-16.06-.59-16.06-1.32,7.19-1.32,16.06-1.32S172.39,273.5,172.39,274.23Z"/><path class="cls-10" d="M171.3,274.23c0,.68-6.71,1.23-15,1.23s-15-.55-15-1.23,6.71-1.23,15-1.23S171.3,273.55,171.3,274.23Z"/><path class="cls-10" d="M170.11,274.23c0,.63-6.17,1.13-13.79,1.13s-13.79-.5-13.79-1.13,6.17-1.13,13.79-1.13S170.11,273.6,170.11,274.23Z"/><path class="cls-10" d="M169.11,274.23c0,.58-5.72,1-12.79,1s-12.79-.47-12.79-1,5.73-1.05,12.79-1.05S169.11,273.65,169.11,274.23Z"/><path class="cls-10" d="M168,274.23c0,.53-5.24,1-11.7,1s-11.69-.43-11.69-1,5.23-1,11.69-1S168,273.7,168,274.23Z"/><path class="cls-10" d="M166.65,274.23c0,.47-4.62.85-10.33.85S146,274.7,146,274.23s4.62-.85,10.32-.85S166.65,273.76,166.65,274.23Z"/><path class="cls-10" d="M165.74,274.23c0,.43-4.22.77-9.42.77s-9.41-.34-9.41-.77,4.21-.77,9.41-.77S165.74,273.8,165.74,274.23Z"/><path class="cls-10" d="M165.74,274.23c0,.43-4.22.77-9.42.77s-9.41-.34-9.41-.77,4.21-.77,9.41-.77S165.74,273.8,165.74,274.23Z"/><path class="cls-10" d="M165,274.23c0,.39-3.88.71-8.67.71s-8.67-.32-8.67-.71,3.88-.71,8.67-.71S165,273.84,165,274.23Z"/><path class="cls-10" d="M164.36,274.23c0,.36-3.6.66-8,.66s-8-.3-8-.66,3.6-.66,8-.66S164.36,273.87,164.36,274.23Z"/><path class="cls-10" d="M163.67,274.23c0,.33-3.29.6-7.35.6s-7.35-.27-7.35-.6,3.29-.6,7.35-.6S163.67,273.9,163.67,274.23Z"/><path class="cls-10" d="M162.81,274.23c0,.29-2.9.53-6.49.53s-6.49-.24-6.49-.53,2.91-.53,6.49-.53S162.81,273.94,162.81,274.23Z"/><path class="cls-10" d="M162.24,274.23c0,.27-2.65.49-5.92.49s-5.92-.22-5.92-.49,2.65-.49,5.92-.49S162.24,274,162.24,274.23Z"/><path class="cls-10" d="M161.84,274.23c0,.25-2.47.45-5.52.45s-5.52-.2-5.52-.45,2.47-.45,5.52-.45S161.84,274,161.84,274.23Z"/><path class="cls-10" d="M161.4,274.23c0,.23-2.27.42-5.08.42s-5.08-.19-5.08-.42,2.28-.42,5.08-.42S161.4,274,161.4,274.23Z"/><path class="cls-10" d="M161,274.23c0,.21-2.11.39-4.71.39s-4.71-.18-4.71-.39,2.11-.39,4.71-.39S161,274,161,274.23Z"/><path class="cls-10" d="M160.63,274.23c0,.2-1.93.35-4.31.35s-4.31-.15-4.31-.35,1.93-.35,4.31-.35S160.63,274,160.63,274.23Z"/><path class="cls-10" d="M160.13,274.23c0,.17-1.71.31-3.81.31s-3.8-.14-3.8-.31,1.7-.31,3.8-.31S160.13,274.06,160.13,274.23Z"/><path class="cls-10" d="M159.79,274.23a10.79,10.79,0,0,1-3.47.28,10.84,10.84,0,0,1-3.47-.28,10.84,10.84,0,0,1,3.47-.28A10.79,10.79,0,0,1,159.79,274.23Z"/><path class="cls-10" d="M159.3,274.23a18.56,18.56,0,0,1-6,0,18.56,18.56,0,0,1,6,0Z"/><path class="cls-10" d="M158.77,274.23a15.11,15.11,0,0,1-4.9,0,15.11,15.11,0,0,1,4.9,0Z"/><path class="cls-10" d="M158,274.23a10.27,10.27,0,0,1-3.38,0,10.27,10.27,0,0,1,3.38,0Z"/><path class="cls-10" d="M157.47,274.23a3.72,3.72,0,0,1-1.15.09,3.77,3.77,0,0,1-1.15-.09,3.77,3.77,0,0,1,1.15-.09A3.72,3.72,0,0,1,157.47,274.23Z"/><circle class="cls-11" cx="156.45" cy="185.85" r="76.46"/><g class="cls-12"><path class="cls-13" d="M95,174.71c0,1.1-8.59,2-19.18,2s-19.18-.89-19.18-2,8.58-2,19.18-2S95,173.61,95,174.71Z"/><path class="cls-13" d="M94.46,174.71c0,1-8.37,1.86-18.69,1.86s-18.7-.83-18.7-1.86,8.37-1.86,18.7-1.86S94.46,173.69,94.46,174.71Z"/><path class="cls-13" d="M94.05,174.71c0,.91-8.18,1.65-18.28,1.65s-18.29-.74-18.29-1.65,8.19-1.64,18.29-1.64S94.05,173.8,94.05,174.71Z"/><path class="cls-13" d="M93.65,174.71c0,.86-8,1.56-17.88,1.56s-17.89-.7-17.89-1.56,8-1.56,17.89-1.56S93.65,173.85,93.65,174.71Z"/><path class="cls-13" d="M93.73,174.71c0,.84-8,1.52-18,1.52s-18-.68-18-1.52,8-1.51,18-1.51S93.73,173.87,93.73,174.71Z"/><path class="cls-13" d="M93.41,174.71c0,.79-7.9,1.43-17.64,1.43s-17.65-.64-17.65-1.43,7.9-1.43,17.65-1.43S93.41,173.92,93.41,174.71Z"/><path class="cls-13" d="M93,174.71c0,.77-7.72,1.39-17.23,1.39s-17.24-.62-17.24-1.39,7.72-1.39,17.24-1.39S93,174,93,174.71Z"/><path class="cls-13" d="M92.35,174.71c0,.7-7.42,1.26-16.58,1.26s-16.59-.56-16.59-1.26,7.43-1.26,16.59-1.26S92.35,174,92.35,174.71Z"/><path class="cls-13" d="M91.87,174.71c0,.65-7.21,1.18-16.1,1.18s-16.11-.53-16.11-1.18,7.21-1.17,16.11-1.17S91.87,174.06,91.87,174.71Z"/><path class="cls-13" d="M91.3,174.71c0,.6-7,1.09-15.53,1.09s-15.54-.49-15.54-1.09,7-1.09,15.54-1.09S91.3,174.11,91.3,174.71Z"/><path class="cls-13" d="M90.74,174.71c0,.56-6.71,1-15,1s-15-.45-15-1,6.71-1,15-1S90.74,174.16,90.74,174.71Z"/><path class="cls-13" d="M89.93,174.71c0,.51-6.34.92-14.16.92s-14.17-.41-14.17-.92,6.34-.92,14.17-.92S89.93,174.2,89.93,174.71Z"/><path class="cls-13" d="M89.26,174.71c0,.49-6,.89-13.49.89s-13.5-.4-13.5-.89,6-.88,13.5-.88S89.26,174.22,89.26,174.71Z"/><path class="cls-13" d="M88.41,174.71c0,.46-5.66.82-12.64.82s-12.65-.36-12.65-.82,5.66-.82,12.65-.82S88.41,174.26,88.41,174.71Z"/><path class="cls-13" d="M87.68,174.71c0,.42-5.33.76-11.91.76s-11.92-.34-11.92-.76,5.33-.76,11.92-.76S87.68,174.29,87.68,174.71Z"/><path class="cls-13" d="M87,174.71c0,.37-5,.66-11.24.66s-11.25-.29-11.25-.66,5-.66,11.25-.66S87,174.35,87,174.71Z"/><path class="cls-13" d="M86.41,174.71c0,.3-4.77.54-10.64.54s-10.65-.24-10.65-.54,4.77-.53,10.65-.53S86.41,174.42,86.41,174.71Z"/><path class="cls-13" d="M85.5,174.71c0,.23-4.36.41-9.73.41s-9.73-.18-9.73-.41,4.35-.4,9.73-.4S85.5,174.49,85.5,174.71Z"/><path class="cls-13" d="M84.46,174.71a66.51,66.51,0,0,1-8.69.28,66.61,66.61,0,0,1-8.7-.28,68.79,68.79,0,0,1,8.7-.28A68.69,68.69,0,0,1,84.46,174.71Z"/><path class="cls-13" d="M83.37,174.71c0,.08-3.4.15-7.6.15s-7.61-.07-7.61-.15,3.4-.15,7.61-.15S83.37,174.63,83.37,174.71Z"/><path class="cls-13" d="M83.37,174.71c0,.08-3.4.15-7.6.15s-7.61-.07-7.61-.15,3.4-.15,7.61-.15S83.37,174.63,83.37,174.71Z"/></g><g class="cls-12"><path class="cls-13" d="M253.13,171.62c0,1.1-8.59,2-19.18,2s-19.18-.88-19.18-2,8.59-2,19.18-2S253.13,170.52,253.13,171.62Z"/><path class="cls-13" d="M252.65,171.62c0,1-8.37,1.86-18.7,1.86s-18.69-.83-18.69-1.86,8.37-1.86,18.69-1.86S252.65,170.59,252.65,171.62Z"/><path class="cls-13" d="M252.24,171.62c0,.91-8.19,1.64-18.29,1.64s-18.29-.73-18.29-1.64S223.85,170,234,170,252.24,170.71,252.24,171.62Z"/><path class="cls-13" d="M251.84,171.62c0,.86-8,1.56-17.89,1.56s-17.88-.7-17.88-1.56,8-1.56,17.88-1.56S251.84,170.76,251.84,171.62Z"/><path class="cls-13" d="M251.92,171.62c0,.84-8,1.51-18,1.51s-18-.67-18-1.51,8-1.52,18-1.52S251.92,170.78,251.92,171.62Z"/><path class="cls-13" d="M251.59,171.62c0,.79-7.89,1.43-17.64,1.43s-17.64-.64-17.64-1.43,7.9-1.43,17.64-1.43S251.59,170.83,251.59,171.62Z"/><path class="cls-13" d="M251.19,171.62c0,.77-7.72,1.39-17.24,1.39s-17.23-.62-17.23-1.39,7.71-1.39,17.23-1.39S251.19,170.85,251.19,171.62Z"/><path class="cls-13" d="M250.54,171.62c0,.69-7.43,1.26-16.59,1.26s-16.59-.57-16.59-1.26,7.43-1.26,16.59-1.26S250.54,170.92,250.54,171.62Z"/><path class="cls-13" d="M250.05,171.62c0,.65-7.2,1.17-16.1,1.17s-16.1-.52-16.1-1.17,7.21-1.17,16.1-1.17S250.05,171,250.05,171.62Z"/><path class="cls-13" d="M249.49,171.62c0,.6-7,1.09-15.54,1.09s-15.54-.49-15.54-1.09,7-1.09,15.54-1.09S249.49,171,249.49,171.62Z"/><path class="cls-13" d="M248.92,171.62c0,.55-6.7,1-15,1s-15-.45-15-1,6.7-1,15-1S248.92,171.06,248.92,171.62Z"/><path class="cls-13" d="M248.11,171.62c0,.51-6.34.92-14.16.92s-14.16-.41-14.16-.92,6.34-.92,14.16-.92S248.11,171.11,248.11,171.62Z"/><path class="cls-13" d="M247.44,171.62c0,.49-6,.89-13.49.89s-13.49-.4-13.49-.89,6-.89,13.49-.89S247.44,171.13,247.44,171.62Z"/><path class="cls-13" d="M246.6,171.62c0,.45-5.66.82-12.65.82s-12.64-.37-12.64-.82,5.66-.82,12.64-.82S246.6,171.17,246.6,171.62Z"/><path class="cls-13" d="M245.87,171.62c0,.42-5.34.76-11.92.76S222,172,222,171.62s5.33-.76,11.91-.76S245.87,171.2,245.87,171.62Z"/><path class="cls-13" d="M245.2,171.62c0,.36-5,.66-11.25.66s-11.25-.3-11.25-.66,5-.66,11.25-.66S245.2,171.25,245.2,171.62Z"/><path class="cls-13" d="M244.59,171.62c0,.29-4.76.53-10.64.53s-10.64-.24-10.64-.53,4.77-.54,10.64-.54S244.59,171.33,244.59,171.62Z"/><path class="cls-13" d="M243.68,171.62c0,.22-4.35.4-9.73.4s-9.73-.18-9.73-.4,4.36-.41,9.73-.41S243.68,171.39,243.68,171.62Z"/><path class="cls-13" d="M242.65,171.62a68.79,68.79,0,0,1-8.7.28,68.92,68.92,0,0,1-8.7-.28,68.92,68.92,0,0,1,8.7-.28A68.79,68.79,0,0,1,242.65,171.62Z"/><path class="cls-13" d="M241.56,171.62c0,.08-3.41.15-7.61.15s-7.6-.07-7.6-.15,3.4-.15,7.6-.15S241.56,171.54,241.56,171.62Z"/><path class="cls-13" d="M241.56,171.62c0,.08-3.41.15-7.61.15s-7.6-.07-7.6-.15,3.4-.15,7.6-.15S241.56,171.54,241.56,171.62Z"/></g><path class="cls-14" d="M243.75,137.09c0,.7-1.36,1.64-2.05,1.64s-2-.84-2-1.64a12.28,12.28,0,0,1,.18-2.45,1.84,1.84,0,0,1,2-1.34,1.76,1.76,0,0,1,1.78,1.34A15,15,0,0,1,243.75,137.09Z"/><path class="cls-15" d="M241.7,139.23c-.85,0-2.54-1-2.54-2.14a12.91,12.91,0,0,1,.2-2.55,2.3,2.3,0,0,1,2.47-1.73,2.22,2.22,0,0,1,2.26,1.74,15.31,15.31,0,0,1,.15,2.54C244.24,138.13,242.59,139.23,241.7,139.23Zm.13-5.43c-.39,0-1.33.09-1.51.94a12.68,12.68,0,0,0-.17,2.35c0,.44,1,1.15,1.55,1.15s1.56-.83,1.56-1.15a13.81,13.81,0,0,0-.14-2.36A1.26,1.26,0,0,0,241.83,133.8Z"/><path class="cls-14" d="M226.19,137.09c0,.7-1.36,1.64-2.05,1.64s-2-.84-2-1.64a13.08,13.08,0,0,1,.18-2.45,1.85,1.85,0,0,1,2-1.34,1.75,1.75,0,0,1,1.77,1.34A14.05,14.05,0,0,1,226.19,137.09Z"/><path class="cls-15" d="M224.14,139.23c-.86,0-2.54-1-2.54-2.14a13.58,13.58,0,0,1,.19-2.55,2.31,2.31,0,0,1,2.48-1.73,2.22,2.22,0,0,1,2.26,1.74,15.31,15.31,0,0,1,.15,2.54C226.68,138.13,225,139.23,224.14,139.23Zm.13-5.43c-.4,0-1.34.09-1.52.94a12.68,12.68,0,0,0-.17,2.35c0,.44,1,1.15,1.56,1.15s1.55-.83,1.55-1.15a14.86,14.86,0,0,0-.13-2.36A1.27,1.27,0,0,0,224.27,133.8Z"/><path class="cls-15" d="M221.28,167.65s3.1,3.83,11.59,3.83,11.64-3.83,11.64-3.83,2.81-11.29,2.87-13.67a5.51,5.51,0,0,0-3.66-5.61C242.1,148,237.8,147,237.8,147h-10s-3.92.8-6.37,1.55-3.45,4.23-2.92,7.21S221.28,167.65,221.28,167.65Z"/><path class="cls-14" d="M232.9,159.23s6.19-9.64,4.9-12.25-9-1.62-10,0S232.9,159.23,232.9,159.23Z"/><path class="cls-14" d="M237.92,147.29s-2.69,2.25-5.21,2.25-4.88-2.25-4.88-2.25l1.26-8.17h7.23Z"/><path class="cls-15" d="M232.71,150c-2.69,0-5.12-2.29-5.22-2.38l-.19-.18,1.37-8.84h8.06l1.73,8.85-.22.19C238.12,147.77,235.38,150,232.71,150Zm-4.35-2.93a7.58,7.58,0,0,0,4.35,2c1.91,0,4-1.45,4.67-2l-1.46-7.48h-6.41Z"/><path class="cls-14" d="M242.18,139.48c0,3.18-6.16,7.5-9.31,7.5s-9.3-3.86-9.3-7.5a58.33,58.33,0,0,1,.83-11.12c.92-4.33,5-6.07,9.07-6.07,3.79,0,7.41,2.41,8.06,6.07A66.89,66.89,0,0,1,242.18,139.48Z"/><path class="cls-15" d="M232.87,147.47c-3.42,0-9.79-4.11-9.79-8a59.32,59.32,0,0,1,.84-11.22c.85-4,4.42-6.46,9.55-6.46,4.22,0,7.89,2.78,8.54,6.48a67.16,67.16,0,0,1,.66,11.2C242.67,143.08,236.11,147.47,232.87,147.47Zm.6-24.68c-1.74,0-7.48.4-8.59,5.68a58.27,58.27,0,0,0-.82,11c0,3.22,5.83,7,8.81,7s8.82-4.18,8.82-7a65.9,65.9,0,0,0-.65-11C240.47,125.22,237.21,122.79,233.47,122.79Z"/><path class="cls-15" d="M242.13,134.85c0-.51-.07-1.53-.07-1.53a1.47,1.47,0,0,1,1.23.64,27.57,27.57,0,0,0-.81-7.41c-.71-2.18-5.21-5.36-9-5.36-4.09,0-9.92,2.59-10.84,6.93-.25,1.18-.34,6.13-.34,6.13s.67-.95,1.3-.94a10.27,10.27,0,0,1,.07,1.54s.58,1.34.83,0,.07-2.6,3.25-4.31,7.51.76,9.92-2.4c.19,2.59,2.72,1.39,3.73,6.71C241.39,135.48,242.13,134.85,242.13,134.85Z"/><path class="cls-15" d="M233.75,151.77a2.71,2.71,0,0,1-1.8,0,2.86,2.86,0,0,1-.65-2.44c.35-.52,2.69-.44,3.09,0S234.05,151.61,233.75,151.77Z"/><polygon class="cls-15" points="235.46 160.65 230.66 160.65 231.95 151.77 233.7 151.77 235.46 160.65"/><path class="cls-14" d="M86.5,140.31c0,.7-1.36,1.64-2,1.64s-2-.85-2-1.64a12.36,12.36,0,0,1,.19-2.45,1.84,1.84,0,0,1,2-1.34,1.75,1.75,0,0,1,1.77,1.34A14.05,14.05,0,0,1,86.5,140.31Z"/><path class="cls-16" d="M84.45,142.45c-.86,0-2.54-1-2.54-2.14a13.58,13.58,0,0,1,.19-2.55A2.32,2.32,0,0,1,84.58,136a2.22,2.22,0,0,1,2.26,1.74,15.31,15.31,0,0,1,.15,2.54C87,141.35,85.34,142.45,84.45,142.45Zm.13-5.43c-.4,0-1.33.09-1.51.94a12,12,0,0,0-.18,2.35c0,.44,1,1.15,1.56,1.15s1.55-.83,1.55-1.15a15,15,0,0,0-.13-2.37A1.25,1.25,0,0,0,84.58,137Z"/><path class="cls-14" d="M68.93,140.31c0,.7-1.36,1.64-2.05,1.64s-2-.85-2-1.64a12.28,12.28,0,0,1,.18-2.45,1.84,1.84,0,0,1,2-1.34,1.75,1.75,0,0,1,1.78,1.34A15,15,0,0,1,68.93,140.31Z"/><path class="cls-17" d="M66.88,142.45c-.85,0-2.54-1-2.54-2.14a12.91,12.91,0,0,1,.2-2.55A2.3,2.3,0,0,1,67,136a2.22,2.22,0,0,1,2.26,1.74,15.31,15.31,0,0,1,.15,2.54C69.42,141.35,67.77,142.45,66.88,142.45ZM67,137c-.39,0-1.33.09-1.51.94a12.68,12.68,0,0,0-.17,2.35c0,.44,1,1.15,1.55,1.15s1.56-.83,1.56-1.15a14,14,0,0,0-.14-2.37A1.24,1.24,0,0,0,67,137Z"/><path class="cls-18" d="M64,170.87s3.09,3.83,11.58,3.83,11.65-3.83,11.65-3.83,2.81-11.29,2.87-13.67a5.52,5.52,0,0,0-3.67-5.61c-1.61-.41-5.92-1.4-5.92-1.4h-10s-3.92.81-6.37,1.56S60.77,156,61.3,159,64,170.87,64,170.87Z"/><path class="cls-14" d="M75.65,162.45s6.19-9.64,4.89-12.26-9-1.61-10,0S75.65,162.45,75.65,162.45Z"/><path class="cls-14" d="M80.67,150.51s-2.7,2.25-5.22,2.25-4.87-2.25-4.87-2.25l1.26-8.17h7.23Z"/><path class="cls-19" d="M75.45,153.25c-2.69,0-5.11-2.29-5.21-2.38l-.19-.18,1.36-8.84h8.06l1.74,8.85-.23.19C80.87,151,78.12,153.25,75.45,153.25Zm-4.35-2.93a7.64,7.64,0,0,0,4.35,2c1.91,0,4-1.45,4.67-2l-1.46-7.48h-6.4Z"/><path class="cls-14" d="M84.93,142.7c0,3.18-6.17,7.49-9.31,7.49s-9.3-3.86-9.3-7.49a58.33,58.33,0,0,1,.83-11.12c.91-4.33,5-6.07,9.06-6.07,3.8,0,7.42,2.41,8.07,6.07A66.89,66.89,0,0,1,84.93,142.7Z"/><path class="cls-20" d="M75.62,150.69c-3.43,0-9.8-4.11-9.8-8a58.64,58.64,0,0,1,.85-11.22c.85-4,4.42-6.46,9.54-6.46,4.22,0,7.9,2.78,8.55,6.48a67.16,67.16,0,0,1,.66,11.2C85.42,146.3,78.86,150.69,75.62,150.69ZM76.21,126c-1.73,0-7.47.41-8.58,5.68a58.42,58.42,0,0,0-.82,11c0,3.22,5.82,7,8.81,7s8.81-4.18,8.81-7a66.92,66.92,0,0,0-.64-11C83.22,128.44,80,126,76.21,126Z"/><path class="cls-21" d="M84.87,138.07c0-.51-.06-1.53-.06-1.53a1.45,1.45,0,0,1,1.22.64,28,28,0,0,0-.8-7.41c-.71-2.18-5.22-5.37-9-5.37-4.09,0-9.93,2.6-10.84,6.94-.25,1.18-.34,6.13-.34,6.13s.67-.95,1.3-.94a10.27,10.27,0,0,1,.07,1.54s.58,1.34.82,0,.08-2.6,3.25-4.31,7.52.76,9.92-2.4c.19,2.59,2.73,1.39,3.74,6.71C84.14,138.7,84.87,138.07,84.87,138.07Z"/><path class="cls-22" d="M76.5,155a2.74,2.74,0,0,1-1.81,0c-.39-.26-1-1.91-.64-2.44s2.68-.44,3.09,0S76.79,154.82,76.5,155Z"/><polygon class="cls-23" points="78.2 163.87 73.41 163.87 74.69 154.99 76.44 154.99 78.2 163.87"/><g class="cls-12"><path class="cls-13" d="M179.25,136.09c0,1.1-8.58,2-19.18,2s-19.18-.89-19.18-2,8.59-2,19.18-2S179.25,135,179.25,136.09Z"/><path class="cls-13" d="M178.77,136.09c0,1-8.37,1.86-18.7,1.86s-18.69-.83-18.69-1.86,8.37-1.86,18.69-1.86S178.77,135.07,178.77,136.09Z"/><path class="cls-13" d="M178.36,136.09c0,.91-8.19,1.65-18.29,1.65s-18.29-.74-18.29-1.65,8.19-1.64,18.29-1.64S178.36,135.18,178.36,136.09Z"/><path class="cls-13" d="M178,136.09c0,.86-8,1.56-17.89,1.56s-17.88-.7-17.88-1.56,8-1.56,17.88-1.56S178,135.23,178,136.09Z"/><path class="cls-13" d="M178,136.09c0,.84-8,1.52-18,1.52s-18-.68-18-1.52,8-1.51,18-1.51S178,135.25,178,136.09Z"/><path class="cls-13" d="M177.72,136.09c0,.79-7.9,1.43-17.65,1.43s-17.64-.64-17.64-1.43,7.9-1.43,17.64-1.43S177.72,135.3,177.72,136.09Z"/><path class="cls-13" d="M177.31,136.09c0,.77-7.72,1.39-17.24,1.39s-17.23-.62-17.23-1.39,7.71-1.39,17.23-1.39S177.31,135.33,177.31,136.09Z"/><path class="cls-13" d="M176.66,136.09c0,.7-7.42,1.26-16.59,1.26s-16.59-.56-16.59-1.26,7.43-1.26,16.59-1.26S176.66,135.4,176.66,136.09Z"/><path class="cls-13" d="M176.18,136.09c0,.65-7.21,1.18-16.11,1.18s-16.1-.53-16.1-1.18,7.21-1.17,16.1-1.17S176.18,135.44,176.18,136.09Z"/><path class="cls-13" d="M175.61,136.09c0,.6-7,1.09-15.54,1.09s-15.53-.49-15.53-1.09,7-1.09,15.53-1.09S175.61,135.49,175.61,136.09Z"/><path class="cls-13" d="M175,136.09c0,.56-6.7,1-15,1s-15-.45-15-1,6.71-1,15-1S175,135.54,175,136.09Z"/><path class="cls-13" d="M174.24,136.09c0,.51-6.34.92-14.17.92s-14.16-.41-14.16-.92,6.34-.92,14.16-.92S174.24,135.58,174.24,136.09Z"/><path class="cls-13" d="M173.57,136.09c0,.49-6,.89-13.5.89s-13.49-.4-13.49-.89,6-.88,13.49-.88S173.57,135.6,173.57,136.09Z"/><path class="cls-13" d="M172.72,136.09c0,.46-5.66.82-12.65.82s-12.64-.36-12.64-.82,5.66-.82,12.64-.82S172.72,135.64,172.72,136.09Z"/><path class="cls-13" d="M172,136.09c0,.42-5.34.76-11.92.76s-11.91-.34-11.91-.76,5.33-.76,11.91-.76S172,135.67,172,136.09Z"/><path class="cls-13" d="M171.32,136.09c0,.37-5,.66-11.25.66s-11.24-.29-11.24-.66,5-.66,11.24-.66S171.32,135.73,171.32,136.09Z"/><path class="cls-13" d="M170.72,136.09c0,.3-4.77.54-10.65.54s-10.64-.24-10.64-.54,4.77-.53,10.64-.53S170.72,135.8,170.72,136.09Z"/><path class="cls-13" d="M169.8,136.09c0,.23-4.35.41-9.73.41s-9.73-.18-9.73-.41,4.36-.4,9.73-.4S169.8,135.87,169.8,136.09Z"/><path class="cls-13" d="M168.77,136.09a66.61,66.61,0,0,1-8.7.28,66.73,66.73,0,0,1-8.7-.28,68.92,68.92,0,0,1,8.7-.28A68.79,68.79,0,0,1,168.77,136.09Z"/><path class="cls-13" d="M167.68,136.09c0,.08-3.41.15-7.61.15s-7.6-.07-7.6-.15,3.4-.15,7.6-.15S167.68,136,167.68,136.09Z"/><path class="cls-13" d="M167.68,136.09c0,.08-3.41.15-7.61.15s-7.6-.07-7.6-.15,3.4-.15,7.6-.15S167.68,136,167.68,136.09Z"/></g><path class="cls-14" d="M170.92,102c0,.7-1.35,1.65-2,1.65s-2-.85-2-1.65a13.19,13.19,0,0,1,.18-2.45,1.85,1.85,0,0,1,2-1.33,1.75,1.75,0,0,1,1.77,1.33A15,15,0,0,1,170.92,102Z"/><path class="cls-24" d="M168.88,104.1c-.86,0-2.55-1-2.55-2.14a12.91,12.91,0,0,1,.2-2.55A2.31,2.31,0,0,1,169,97.68a2.21,2.21,0,0,1,2.25,1.75,15.13,15.13,0,0,1,.15,2.53C171.41,103,169.76,104.1,168.88,104.1Zm.13-5.43c-.4,0-1.34.09-1.52.94a12.74,12.74,0,0,0-.17,2.35c0,.44,1.05,1.16,1.56,1.16s1.55-.83,1.55-1.16a13.93,13.93,0,0,0-.14-2.36A1.25,1.25,0,0,0,169,98.67Z"/><path class="cls-14" d="M153.36,102c0,.7-1.36,1.65-2.05,1.65s-2.05-.85-2.05-1.65a13.19,13.19,0,0,1,.18-2.45,1.86,1.86,0,0,1,2-1.33,1.75,1.75,0,0,1,1.77,1.33A14.05,14.05,0,0,1,153.36,102Z"/><path class="cls-24" d="M151.31,104.1c-.86,0-2.54-1-2.54-2.14a13.63,13.63,0,0,1,.19-2.55,2.33,2.33,0,0,1,2.48-1.73,2.23,2.23,0,0,1,2.26,1.75,15.13,15.13,0,0,1,.15,2.53C153.85,103,152.2,104.1,151.31,104.1Zm.13-5.43c-.39,0-1.33.09-1.51.94a12,12,0,0,0-.18,2.35c0,.44,1.05,1.16,1.56,1.16s1.55-.83,1.55-1.16a15,15,0,0,0-.13-2.36A1.26,1.26,0,0,0,151.44,98.67Z"/><path class="cls-24" d="M148.46,132.53s3.09,3.83,11.58,3.83,11.65-3.83,11.65-3.83,2.8-11.3,2.86-13.68a5.52,5.52,0,0,0-3.66-5.61c-1.62-.4-5.92-1.39-5.92-1.39H155s-3.92.8-6.37,1.55-3.45,4.24-2.92,7.22S148.46,132.53,148.46,132.53Z"/><path class="cls-14" d="M160.07,124.1s6.19-9.64,4.9-12.25-9-1.62-9.95,0S160.07,124.1,160.07,124.1Z"/><path class="cls-14" d="M165.09,112.16s-2.69,2.25-5.21,2.25-4.88-2.25-4.88-2.25l1.26-8.16h7.23Z"/><path class="cls-24" d="M159.88,114.91c-2.69,0-5.12-2.29-5.22-2.39l-.18-.18,1.36-8.84h8.06l1.73,8.86-.22.18C165.29,112.64,162.55,114.91,159.88,114.91ZM155.53,112a7.58,7.58,0,0,0,4.35,2c1.91,0,4-1.45,4.67-2l-1.46-7.47h-6.4Z"/><path class="cls-14" d="M169.35,104.36c0,3.18-6.16,7.49-9.3,7.49s-9.31-3.86-9.31-7.49a58.27,58.27,0,0,1,.83-11.12c.92-4.34,5-6.07,9.07-6.07,3.79,0,7.41,2.41,8.06,6.07A66.83,66.83,0,0,1,169.35,104.36Z"/><path class="cls-24" d="M160.05,112.34c-3.43,0-9.8-4.1-9.8-8a59.22,59.22,0,0,1,.84-11.22c.86-4,4.42-6.47,9.55-6.47,4.22,0,7.89,2.79,8.55,6.48a68.24,68.24,0,0,1,.65,11.21C169.84,108,163.29,112.34,160.05,112.34Zm.59-24.68c-1.73,0-7.47.41-8.59,5.68a59.07,59.07,0,0,0-.81,11c0,3.22,5.82,7,8.81,7s8.81-4.19,8.81-7a67,67,0,0,0-.64-11C167.65,90.09,164.39,87.66,160.64,87.66Z"/><path class="cls-24" d="M169.3,99.72c0-.5-.07-1.53-.07-1.53a1.47,1.47,0,0,1,1.23.64,27.83,27.83,0,0,0-.8-7.4c-.72-2.19-5.22-5.37-9-5.37-4.09,0-9.93,2.6-10.85,6.93-.25,1.19-.33,6.13-.33,6.13s.67-.94,1.29-.93a8.93,8.93,0,0,1,.07,1.53s.58,1.34.83,0,.07-2.6,3.25-4.31,7.51.76,9.92-2.4c.19,2.59,2.72,1.39,3.74,6.71C168.57,100.35,169.3,99.72,169.3,99.72Z"/><path class="cls-24" d="M160.92,116.64a2.65,2.65,0,0,1-1.8,0c-.4-.26-1-1.91-.64-2.43s2.68-.44,3.09,0S161.22,116.48,160.92,116.64Z"/><polygon class="cls-24" points="162.63 125.53 157.83 125.53 159.12 116.64 160.87 116.64 162.63 125.53"/><path class="cls-15" d="M222.14,201.25c1.7-.07,3-1,3-2.1V185.9c0-1.11-1.34-2-3-2.1Z"/><path class="cls-15" d="M222.14,219.17c1.7,0,3-.7,3-1.51v-9.54c0-.8-1.34-1.45-3-1.5Z"/><rect class="cls-24" x="89.56" y="173.46" width="132.88" height="101.14" rx="9.12"/><path class="cls-9" d="M215,261.05a8,8,0,0,1-8.09,7.84H105.15a8,8,0,0,1-8.1-7.84v-71.2a8,8,0,0,1,8.1-7.84H206.86a8,8,0,0,1,8.09,7.84Z"/><path class="cls-14" d="M213.38,259.59a7.7,7.7,0,0,1-7.88,7.51h-99a7.7,7.7,0,0,1-7.87-7.51V191.32a7.71,7.71,0,0,1,7.87-7.52h99a7.71,7.71,0,0,1,7.88,7.52Z"/><path class="cls-25" d="M106.5,267.1a7.7,7.7,0,0,1-7.87-7.51V191.32a7.71,7.71,0,0,1,7.87-7.52h99a7.71,7.71,0,0,1,7.88,7.52Z"/><path class="cls-9" d="M165.84,177.64c0,.58-.83,1.05-1.85,1.05H148c-1,0-1.86-.47-1.86-1.05h0c0-.58.83-1,1.86-1h16c1,0,1.85.46,1.85,1Z"/><g class="cls-12"><path class="cls-26" d="M198.74,252.48c0,1.34-18.55,2.42-41.44,2.42s-41.44-1.08-41.44-2.42,18.55-2.43,41.44-2.43S198.74,251.14,198.74,252.48Z"/><path class="cls-26" d="M197.69,252.48c0,1.25-18.08,2.27-40.39,2.27s-40.4-1-40.4-2.27,18.09-2.27,40.4-2.27S197.69,251.22,197.69,252.48Z"/><path class="cls-26" d="M196.82,252.48c0,1.11-17.7,2-39.52,2s-39.52-.9-39.52-2,17.69-2,39.52-2S196.82,251.37,196.82,252.48Z"/><path class="cls-26" d="M195.94,252.48c0,1.05-17.3,1.9-38.64,1.9s-38.65-.85-38.65-1.9,17.31-1.91,38.65-1.91S195.94,251.43,195.94,252.48Z"/><path class="cls-26" d="M196.12,252.48c0,1-17.38,1.85-38.82,1.85s-38.82-.83-38.82-1.85,17.38-1.85,38.82-1.85S196.12,251.46,196.12,252.48Z"/><path class="cls-26" d="M195.42,252.48c0,1-17.07,1.75-38.12,1.75s-38.12-.79-38.12-1.75,17.06-1.75,38.12-1.75S195.42,251.51,195.42,252.48Z"/><path class="cls-26" d="M194.54,252.48c0,.94-16.67,1.69-37.24,1.69s-37.25-.75-37.25-1.69,16.68-1.7,37.25-1.7S194.54,251.54,194.54,252.48Z"/><path class="cls-26" d="M193.14,252.48c0,.85-16,1.54-35.84,1.54s-35.85-.69-35.85-1.54,16-1.54,35.85-1.54S193.14,251.63,193.14,252.48Z"/><path class="cls-26" d="M192.09,252.48c0,.79-15.57,1.43-34.79,1.43s-34.8-.64-34.8-1.43S138.08,251,157.3,251,192.09,251.69,192.09,252.48Z"/><path class="cls-26" d="M190.87,252.48c0,.73-15,1.33-33.57,1.33s-33.57-.6-33.57-1.33,15-1.33,33.57-1.33S190.87,251.74,190.87,252.48Z"/><path class="cls-26" d="M189.65,252.48c0,.68-14.49,1.23-32.35,1.23S125,253.16,125,252.48s14.48-1.23,32.35-1.23S189.65,251.8,189.65,252.48Z"/><path class="cls-26" d="M187.9,252.48c0,.62-13.7,1.12-30.6,1.12s-30.6-.5-30.6-1.12,13.7-1.12,30.6-1.12S187.9,251.86,187.9,252.48Z"/><path class="cls-26" d="M186.45,252.48c0,.6-13,1.08-29.15,1.08s-29.16-.48-29.16-1.08,13.06-1.08,29.16-1.08S186.45,251.88,186.45,252.48Z"/><path class="cls-26" d="M184.62,252.48c0,.55-12.23,1-27.32,1S130,253,130,252.48s12.23-1,27.32-1S184.62,251.92,184.62,252.48Z"/><path class="cls-26" d="M183.05,252.48c0,.51-11.53.92-25.75.92s-25.75-.41-25.75-.92,11.53-.93,25.75-.93S183.05,252,183.05,252.48Z"/><path class="cls-26" d="M181.6,252.48c0,.45-10.88.81-24.3.81s-24.31-.36-24.31-.81,10.88-.81,24.31-.81S181.6,252,181.6,252.48Z"/><path class="cls-26" d="M180.29,252.48c0,.36-10.29.65-23,.65s-23-.29-23-.65,10.3-.65,23-.65S180.29,252.12,180.29,252.48Z"/><path class="cls-26" d="M178.32,252.48c0,.27-9.41.49-21,.49s-21-.22-21-.49,9.41-.5,21-.5S178.32,252.2,178.32,252.48Z"/><path class="cls-26" d="M176.1,252.48c0,.19-8.42.34-18.8.34s-18.8-.15-18.8-.34,8.42-.34,18.8-.34S176.1,252.29,176.1,252.48Z"/><path class="cls-26" d="M173.73,252.48c0,.1-7.36.18-16.43.18s-16.44-.08-16.44-.18,7.36-.18,16.44-.18S173.73,252.38,173.73,252.48Z"/><path class="cls-26" d="M173.73,252.48c0,.1-7.36.18-16.43.18s-16.44-.08-16.44-.18,7.36-.18,16.44-.18S173.73,252.38,173.73,252.48Z"/></g><path class="cls-15" d="M191.44,224.66h0c0-.27,0-.54,0-.81a10.75,10.75,0,0,0-10.76-10.76,10.08,10.08,0,0,0-1.92.18,23.82,23.82,0,0,0-46.9,1.51,18.79,18.79,0,0,0-3.46-.33,18.09,18.09,0,0,0,0,36.18h63a13,13,0,1,0,0-26Z"/><g class="cls-27"><path class="cls-28" d="M144.77,233.47a16.62,16.62,0,1,1-16.61-16.62A16.61,16.61,0,0,1,144.77,233.47Z"/></g><g class="cls-29"><path class="cls-30" d="M178.41,238a12.11,12.11,0,1,1,12.11-12.1A12.11,12.11,0,0,1,178.41,238Z"/></g><g class="cls-31"><path class="cls-32" d="M190.52,250.05a12.11,12.11,0,1,1,12.11-12.11A12.11,12.11,0,0,1,190.52,250.05Z"/></g><g class="cls-33"><path class="cls-34" d="M179,219.53a23.34,23.34,0,1,1-23.34-23.34A23.34,23.34,0,0,1,179,219.53Z"/></g><path class="cls-35" d="M142.14,234.05v5.81c0,2.92,6.4,5.28,14.29,5.28s14.29-2.36,14.29-5.28v-5.81Z"/><path class="cls-35" d="M170.72,234.05c0,2.92-6.4,5.28-14.29,5.28s-14.29-2.36-14.29-5.28,6.4-5.29,14.29-5.29S170.72,231.13,170.72,234.05Z"/><path class="cls-35" d="M142.14,225.66v5.81c0,2.92,6.4,5.29,14.29,5.29s14.29-2.37,14.29-5.29v-5.81Z"/><path class="cls-35" d="M170.72,225.66c0,2.92-6.4,5.29-14.29,5.29s-14.29-2.37-14.29-5.29,6.4-5.28,14.29-5.28S170.72,222.74,170.72,225.66Z"/><path class="cls-35" d="M142.14,217.28v5.81c0,2.92,6.4,5.29,14.29,5.29s14.29-2.37,14.29-5.29v-5.81Z"/><path class="cls-35" d="M170.72,217.28c0,2.92-6.4,5.29-14.29,5.29s-14.29-2.37-14.29-5.29,6.4-5.29,14.29-5.29S170.72,214.36,170.72,217.28Z"/><path class="cls-35" d="M156.43,221.15c-5.27,0-10.86-1.36-10.86-3.87s5.59-3.87,10.86-3.87,10.87,1.36,10.87,3.87S161.7,221.15,156.43,221.15Zm0-7.14c-6.1,0-10.35,1.72-10.35,3.27s4.25,3.27,10.35,3.27,10.35-1.72,10.35-3.27S162.53,214,156.43,214Z"/></svg>