<svg xmlns="http://www.w3.org/2000/svg" xmlns:xlink="http://www.w3.org/1999/xlink" viewBox="0 0 305 305"><defs><style>.cls-1{isolation:isolate;}.cls-2{fill:#e8ebf6;}.cls-3{fill:#4d5fce;}.cls-4{fill:#0f2840;}.cls-5{fill:#bdb5b3;mix-blend-mode:multiply;}.cls-6{fill:#348fe5;}.cls-10,.cls-11,.cls-12,.cls-13,.cls-14,.cls-15,.cls-16,.cls-17,.cls-18,.cls-7,.cls-8,.cls-9{opacity:0.7;}.cls-7{fill:url(#_ÂÁ_Ï_ÌÌ_È_ËÂÌÚ_100);}.cls-8{fill:url(#_ÂÁ_Ï_ÌÌ_È_ËÂÌÚ_100-2);}.cls-9{fill:url(#_ÂÁ_Ï_ÌÌ_È_ËÂÌÚ_100-3);}.cls-10{fill:url(#_ÂÁ_Ï_ÌÌ_È_ËÂÌÚ_100-4);}.cls-11{fill:url(#_ÂÁ_Ï_ÌÌ_È_ËÂÌÚ_100-5);}.cls-12{fill:url(#_ÂÁ_Ï_ÌÌ_È_ËÂÌÚ_100-6);}.cls-13{fill:url(#_ÂÁ_Ï_ÌÌ_È_ËÂÌÚ_100-7);}.cls-14{fill:url(#_ÂÁ_Ï_ÌÌ_È_ËÂÌÚ_100-8);}.cls-15{fill:url(#_ÂÁ_Ï_ÌÌ_È_ËÂÌÚ_100-9);}.cls-16{fill:url(#_ÂÁ_Ï_ÌÌ_È_ËÂÌÚ_100-10);}.cls-17{fill:url(#_ÂÁ_Ï_ÌÌ_È_ËÂÌÚ_100-11);}.cls-18{fill:url(#_ÂÁ_Ï_ÌÌ_È_ËÂÌÚ_100-12);}.cls-19{fill:none;stroke:#312a91;stroke-miterlimit:10;stroke-width:6px;}</style><linearGradient id="_ÂÁ_Ï_ÌÌ_È_ËÂÌÚ_100" x1="78.56" y1="123.58" x2="131.99" y2="123.58" gradientUnits="userSpaceOnUse"><stop offset="0" stop-color="#546eff"/><stop offset="1" stop-color="#516dff"/></linearGradient><linearGradient id="_ÂÁ_Ï_ÌÌ_È_ËÂÌÚ_100-2" x1="126.48" y1="142.49" x2="130.43" y2="142.49" xlink:href="#_ÂÁ_Ï_ÌÌ_È_ËÂÌÚ_100"/><linearGradient id="_ÂÁ_Ï_ÌÌ_È_ËÂÌÚ_100-3" x1="126.48" y1="160.01" x2="130.43" y2="160.01" xlink:href="#_ÂÁ_Ï_ÌÌ_È_ËÂÌÚ_100"/><linearGradient id="_ÂÁ_Ï_ÌÌ_È_ËÂÌÚ_100-4" x1="126.88" y1="176.45" x2="130.83" y2="176.45" xlink:href="#_ÂÁ_Ï_ÌÌ_È_ËÂÌÚ_100"/><linearGradient id="_ÂÁ_Ï_ÌÌ_È_ËÂÌÚ_100-5" x1="177.74" y1="123.58" x2="231.18" y2="123.58" xlink:href="#_ÂÁ_Ï_ÌÌ_È_ËÂÌÚ_100"/><linearGradient id="_ÂÁ_Ï_ÌÌ_È_ËÂÌÚ_100-6" x1="225.67" y1="142.49" x2="229.61" y2="142.49" xlink:href="#_ÂÁ_Ï_ÌÌ_È_ËÂÌÚ_100"/><linearGradient id="_ÂÁ_Ï_ÌÌ_È_ËÂÌÚ_100-7" x1="225.67" y1="160.01" x2="229.61" y2="160.01" xlink:href="#_ÂÁ_Ï_ÌÌ_È_ËÂÌÚ_100"/><linearGradient id="_ÂÁ_Ï_ÌÌ_È_ËÂÌÚ_100-8" x1="226.07" y1="176.45" x2="230.01" y2="176.45" xlink:href="#_ÂÁ_Ï_ÌÌ_È_ËÂÌÚ_100"/><linearGradient id="_ÂÁ_Ï_ÌÌ_È_ËÂÌÚ_100-9" x1="126.89" y1="144.49" x2="189.49" y2="144.49" xlink:href="#_ÂÁ_Ï_ÌÌ_È_ËÂÌÚ_100"/><linearGradient id="_ÂÁ_Ï_ÌÌ_È_ËÂÌÚ_100-10" x1="183.04" y1="166.64" x2="187.66" y2="166.64" xlink:href="#_ÂÁ_Ï_ÌÌ_È_ËÂÌÚ_100"/><linearGradient id="_ÂÁ_Ï_ÌÌ_È_ËÂÌÚ_100-11" x1="183.04" y1="187.17" x2="187.66" y2="187.17" xlink:href="#_ÂÁ_Ï_ÌÌ_È_ËÂÌÚ_100"/><linearGradient id="_ÂÁ_Ï_ÌÌ_È_ËÂÌÚ_100-12" x1="183.51" y1="206.43" x2="188.13" y2="206.43" xlink:href="#_ÂÁ_Ï_ÌÌ_È_ËÂÌÚ_100"/></defs><g class="cls-1"><g id="_ÎÓÈ_1" data-name="—ÎÓÈ_1"><circle class="cls-2" cx="152.5" cy="152.5" r="109.82"/><path class="cls-3" d="M125.75,153.26c-12.62-7.28-33.07-7.28-45.69,0a23.17,23.17,0,0,0-6.17,5H70.61v14.18h0c.09,4.7,3.23,9.39,9.44,13,12.62,7.28,33.07,7.28,45.69,0,6.21-3.59,9.35-8.28,9.44-13h0V158.29h-3.27A23.23,23.23,0,0,0,125.75,153.26Z"/><path class="cls-4" d="M125.75,145.35c-12.62-7.28-33.07-7.28-45.69,0s-12.61,19.1,0,26.38,33.07,7.28,45.69,0S138.36,152.64,125.75,145.35Z"/><path class="cls-3" d="M125.75,136.09c-12.62-7.29-33.07-7.29-45.69,0a23,23,0,0,0-6.17,5H70.61v14.18h0c.09,4.7,3.23,9.39,9.44,13,12.62,7.28,33.07,7.28,45.69,0,6.21-3.59,9.35-8.28,9.44-13h0V141.11h-3.27A23,23,0,0,0,125.75,136.09Z"/><path class="cls-4" d="M125.75,128.18c-12.62-7.29-33.07-7.29-45.69,0s-12.61,19.09,0,26.37,33.07,7.29,45.69,0S138.36,135.46,125.75,128.18Z"/><path class="cls-3" d="M125.75,118.91c-12.62-7.28-33.07-7.28-45.69,0a23,23,0,0,0-6.17,5H70.61v14.17h0c.09,4.71,3.23,9.39,9.44,13,12.62,7.29,33.07,7.29,45.69,0,6.21-3.59,9.35-8.27,9.44-13h0V123.94h-3.27A23,23,0,0,0,125.75,118.91Z"/><path class="cls-5" d="M94,159.4l5.84-.86L94,155.76s-5.31-3-5.31-9.13c0-8.22,5.31-32.39,5.31-32.39H93.6a41.49,41.49,0,0,0-13.54,4.67,23,23,0,0,0-6.17,5H70.61v14.17h0a11.19,11.19,0,0,0,.14,1.42,12.19,12.19,0,0,0-.14,1.58h0v14.18h0a11.57,11.57,0,0,0,.14,1.42,11.89,11.89,0,0,0-.14,1.58h0v14.18h0c.09,4.7,3.23,9.39,9.44,13A41.54,41.54,0,0,0,94,190.17s-5.31-3.31-5.31-7.71c0-5.27,5.31-5.92,5.31-5.92l5.38-1L94,173.05s-5.31-2.35-5.31-7.31C88.64,160.54,94,159.4,94,159.4Z"/><path class="cls-6" d="M125.75,111c-12.62-7.28-33.07-7.28-45.69,0s-12.61,19.09,0,26.38,33.07,7.28,45.69,0S138.36,118.28,125.75,111Z"/><path class="cls-7" d="M124.16,112.68c-10.43-6-27.35-6-37.78,0s-10.43,15.79,0,21.81,27.35,6,37.78,0S134.6,118.7,124.16,112.68Z"/><path class="cls-8" d="M128.45,137.18c-1.09,0-2,2.38-2,5.31s.88,5.31,2,5.31,2-2.38,2-5.31S129.54,137.18,128.45,137.18Z"/><path class="cls-9" d="M128.45,154.7c-1.09,0-2,2.38-2,5.31s.88,5.32,2,5.32,2-2.38,2-5.32S129.54,154.7,128.45,154.7Z"/><path class="cls-10" d="M128.86,171.14c-1.09,0-2,2.38-2,5.31s.89,5.31,2,5.31,2-2.38,2-5.31S129.94,171.14,128.86,171.14Z"/><path class="cls-3" d="M224.94,153.26c-12.62-7.28-33.07-7.28-45.69,0a23.23,23.23,0,0,0-6.18,5H169.8v14.18h0c.09,4.7,3.23,9.39,9.44,13,12.62,7.28,33.07,7.28,45.69,0,6.21-3.59,9.35-8.28,9.44-13h0V158.29h-3.28A23.17,23.17,0,0,0,224.94,153.26Z"/><path class="cls-4" d="M224.94,145.35c-12.62-7.28-33.07-7.28-45.69,0s-12.61,19.1,0,26.38,33.07,7.28,45.69,0S237.55,152.64,224.94,145.35Z"/><path class="cls-3" d="M224.94,136.09c-12.62-7.29-33.07-7.29-45.69,0a23,23,0,0,0-6.18,5H169.8v14.18h0c.09,4.7,3.23,9.39,9.44,13,12.62,7.28,33.07,7.28,45.69,0,6.21-3.59,9.35-8.28,9.44-13h0V141.11h-3.28A23,23,0,0,0,224.94,136.09Z"/><path class="cls-4" d="M224.94,128.18c-12.62-7.29-33.07-7.29-45.69,0s-12.61,19.09,0,26.37,33.07,7.29,45.69,0S237.55,135.46,224.94,128.18Z"/><path class="cls-3" d="M224.94,118.91c-12.62-7.28-33.07-7.28-45.69,0a23,23,0,0,0-6.18,5H169.8v14.17h0c.09,4.71,3.23,9.39,9.44,13,12.62,7.29,33.07,7.29,45.69,0,6.21-3.59,9.35-8.27,9.44-13h0V123.94h-3.28A23,23,0,0,0,224.94,118.91Z"/><path class="cls-5" d="M193.13,159.4l5.84-.86-5.84-2.78s-5.31-3-5.31-9.13c0-8.22,5.31-32.39,5.31-32.39h-.34a41.33,41.33,0,0,0-13.54,4.67,23,23,0,0,0-6.18,5H169.8v14.17h0a11.19,11.19,0,0,0,.14,1.42,10.66,10.66,0,0,0-.14,1.58h0v14.18h0a11.57,11.57,0,0,0,.14,1.42,10.42,10.42,0,0,0-.14,1.58h0v14.18h0c.09,4.7,3.23,9.39,9.44,13a41.56,41.56,0,0,0,13.88,4.72s-5.31-3.31-5.31-7.71c0-5.27,5.31-5.92,5.31-5.92l5.39-1-5.39-2.51s-5.31-2.35-5.31-7.31C187.82,160.54,193.13,159.4,193.13,159.4Z"/><path class="cls-6" d="M224.94,111c-12.62-7.28-33.07-7.28-45.69,0s-12.61,19.09,0,26.38,33.07,7.28,45.69,0S237.55,118.28,224.94,111Z"/><path class="cls-11" d="M223.35,112.68c-10.43-6-27.35-6-37.78,0s-10.43,15.79,0,21.81,27.35,6,37.78,0S233.78,118.7,223.35,112.68Z"/><path class="cls-12" d="M227.64,137.18c-1.09,0-2,2.38-2,5.31s.88,5.31,2,5.31,2-2.38,2-5.31S228.73,137.18,227.64,137.18Z"/><path class="cls-13" d="M227.64,154.7c-1.09,0-2,2.38-2,5.31s.88,5.32,2,5.32,2-2.38,2-5.32S228.73,154.7,227.64,154.7Z"/><path class="cls-14" d="M228,171.14c-1.09,0-2,2.38-2,5.31s.88,5.31,2,5.31,2-2.38,2-5.31S229.13,171.14,228,171.14Z"/><path class="cls-3" d="M116.16,230.58h1.76v-5.66h-1.4v-.63a4.83,4.83,0,0,0,1.63-.57h.75v6.86h1.59v.81h-4.33Z"/><path class="cls-3" d="M178.19,230.58H180v-5.66h-1.4v-.63a4.83,4.83,0,0,0,1.63-.57h.76v6.86h1.59v.81h-4.34Z"/><path class="cls-3" d="M128.28,227.53c0-2.57.92-3.95,2.46-3.95s2.46,1.38,2.46,3.95-.93,4-2.46,4S128.28,230.11,128.28,227.53Zm3.95,0c0-2.25-.6-3.16-1.49-3.16s-1.5.91-1.5,3.16.6,3.22,1.5,3.22S132.23,229.78,132.23,227.53Z"/><path class="cls-3" d="M191.06,227.53c0-2.57.93-3.95,2.47-3.95S196,225,196,227.53s-.93,4-2.45,4S191.06,230.11,191.06,227.53Zm4,0c0-2.25-.6-3.16-1.49-3.16s-1.51.91-1.51,3.16.61,3.22,1.51,3.22S195,229.78,195,227.53Z"/><path class="cls-3" d="M116.16,244.11h1.76v-5.65h-1.4v-.64a4.63,4.63,0,0,0,1.63-.56h.75v6.85h1.59v.82h-4.33Z"/><path class="cls-3" d="M178.9,241.07c0-2.57.92-4,2.46-4s2.45,1.39,2.45,4-.92,4-2.45,4S178.9,243.64,178.9,241.07Zm3.95,0c0-2.25-.6-3.16-1.49-3.16s-1.5.91-1.5,3.16.6,3.21,1.5,3.21S182.85,243.32,182.85,241.07Z"/><path class="cls-3" d="M141.57,244.11h1.75v-5.65h-1.39v-.64a4.57,4.57,0,0,0,1.62-.56h.76v6.85h1.59v.82h-4.33Z"/><path class="cls-3" d="M128.28,241.07c0-2.57.92-4,2.46-4s2.46,1.39,2.46,4-.93,4-2.46,4S128.28,243.64,128.28,241.07Zm3.95,0c0-2.25-.6-3.16-1.49-3.16s-1.5.91-1.5,3.16.6,3.21,1.5,3.21S132.23,243.32,132.23,241.07Z"/><path class="cls-3" d="M153,241.07c0-2.57.93-4,2.47-4s2.45,1.39,2.45,4-.93,4-2.45,4S153,243.64,153,241.07Zm4,0c0-2.25-.6-3.16-1.49-3.16s-1.51.91-1.51,3.16.61,3.21,1.51,3.21S156.93,243.32,156.93,241.07Z"/><path class="cls-3" d="M167,244.11h1.76v-5.65h-1.4v-.64a4.63,4.63,0,0,0,1.63-.56h.76v6.85h1.58v.82H167Z"/><path class="cls-3" d="M191.43,244.11h1.75v-5.65h-1.39v-.64a4.57,4.57,0,0,0,1.62-.56h.76v6.85h1.59v.82h-4.33Z"/><path class="cls-3" d="M182.18,179.26c-14.78-8.53-38.74-8.53-53.52,0a27.16,27.16,0,0,0-7.24,5.89h-3.84v16.61h0c.11,5.51,3.78,11,11.07,15.21,14.78,8.53,38.74,8.53,53.52,0,7.28-4.21,11-9.7,11.06-15.21h0V185.15h-3.83A27.32,27.32,0,0,0,182.18,179.26Z"/><path class="cls-4" d="M182.18,170c-14.78-8.53-38.74-8.53-53.52,0s-14.78,22.37,0,30.91,38.74,8.53,53.52,0S197,178.53,182.18,170Z"/><path class="cls-3" d="M182.18,159.14c-14.78-8.53-38.74-8.53-53.52,0a26.78,26.78,0,0,0-7.24,5.89h-3.84v16.6h0c.11,5.52,3.78,11,11.07,15.21,14.78,8.54,38.74,8.54,53.52,0,7.28-4.2,11-9.69,11.06-15.21h0V165h-3.83A26.94,26.94,0,0,0,182.18,159.14Z"/><path class="cls-4" d="M182.18,149.87c-14.78-8.53-38.74-8.53-53.52,0s-14.78,22.37,0,30.9,38.74,8.53,53.52,0S197,158.4,182.18,149.87Z"/><path class="cls-3" d="M182.18,139c-14.78-8.53-38.74-8.53-53.52,0a27,27,0,0,0-7.24,5.9h-3.84v16.6h0c.11,5.51,3.78,11,11.07,15.21,14.78,8.53,38.74,8.53,53.52,0,7.28-4.21,11-9.7,11.06-15.21h0v-16.6h-3.83A27.15,27.15,0,0,0,182.18,139Z"/><path class="cls-5" d="M144.92,186.45l6.84-1-6.84-3.26s-6.22-3.47-6.22-10.7c0-9.63,6.22-38,6.22-38h-.41A48.66,48.66,0,0,0,128.66,139a27,27,0,0,0-7.24,5.9h-3.84v16.6h0a13.15,13.15,0,0,0,.17,1.66,11.68,11.68,0,0,0-.16,1.86h0v16.6h0a13.5,13.5,0,0,0,.17,1.67,11.46,11.46,0,0,0-.16,1.85h0v16.61h0c.11,5.51,3.78,11,11.07,15.21a48.92,48.92,0,0,0,16.26,5.54s-6.22-3.89-6.22-9c0-6.17,6.22-6.93,6.22-6.93l6.31-1.15-6.31-2.93s-6.22-2.76-6.22-8.57C138.7,187.79,144.92,186.45,144.92,186.45Z"/><path class="cls-6" d="M182.18,129.75c-14.78-8.54-38.74-8.54-53.52,0s-14.78,22.37,0,30.9,38.74,8.53,53.52,0S197,138.28,182.18,129.75Z"/><path class="cls-15" d="M180.32,131.71c-12.22-7.05-32-7.05-44.26,0s-12.23,18.5,0,25.56,32,7.06,44.26,0S192.55,138.77,180.32,131.71Z"/><path class="cls-16" d="M185.35,160.42c-1.28,0-2.31,2.78-2.31,6.22s1,6.22,2.31,6.22,2.31-2.78,2.31-6.22S186.62,160.42,185.35,160.42Z"/><path class="cls-17" d="M185.35,181c-1.28,0-2.31,2.79-2.31,6.22s1,6.22,2.31,6.22,2.31-2.78,2.31-6.22S186.62,181,185.35,181Z"/><path class="cls-18" d="M185.82,200.21c-1.28,0-2.31,2.78-2.31,6.22s1,6.22,2.31,6.22,2.31-2.79,2.31-6.22S187.1,200.21,185.82,200.21Z"/><path class="cls-19" d="M99.79,122.71V95a27.82,27.82,0,0,1,31.4-27.59h0A27.83,27.83,0,0,1,155.43,95v46.38"/><path class="cls-19" d="M210.86,122.71V95a27.82,27.82,0,0,0-31.4-27.59h0A27.82,27.82,0,0,0,155.22,95v46.38"/></g></g></svg>