<svg id="_ÎÓÈ_1" data-name="—ÎÓÈ_1" xmlns="http://www.w3.org/2000/svg" viewBox="0 0 305 305"><defs><style>.cls-1{fill:#e8ebf6;}.cls-2{fill:#2a2a93;}.cls-3{fill:#4d5fce;}.cls-4{fill:#b1bbef;stroke:#b1bbef;stroke-miterlimit:10;}</style></defs><circle class="cls-1" cx="153.45" cy="152.5" r="109.82"/><path class="cls-2" d="M227.75,134.5l-9.14,9.14-.19.19L209.28,153A32.75,32.75,0,0,1,163,153l-3.14-3.14A32.64,32.64,0,0,1,151.66,136a15.81,15.81,0,0,1,14.65-2.17,18,18,0,0,0,3.85,5.7l3.14,3.14a18.19,18.19,0,0,0,25.7,0l9.14-9.14.19-.19,9.14-9.14a18.17,18.17,0,0,0,3.63-20.47c-.15-.33-.3-.66-.48-1s-.23-.4-.35-.6-.34-.59-.54-.88-.37-.51-.55-.76-.32-.44-.5-.66a16.82,16.82,0,0,0-1.21-1.34l-3.14-3.14A16.82,16.82,0,0,0,213,94.17c-.22-.18-.44-.33-.66-.5s-.5-.38-.76-.55-.59-.37-.89-.54l-.59-.35c-.33-.18-.66-.33-1-.48a18.15,18.15,0,0,0-20.47,3.63l-9.14,9.14-.19.19-9.14,9.14c-.24.24-.47.49-.7.74a35.31,35.31,0,0,0-16.82,0,32.36,32.36,0,0,1,7.24-11L169,94.43l.19-.19,9.14-9.14a32.73,32.73,0,0,1,34.17-7.65l.53.19c.4.15.79.31,1.19.48l.58.25c.39.17.78.36,1.16.55l.51.25c.55.28,1.09.57,1.62.89h0c.53.31,1,.64,1.57,1,.16.1.31.22.47.33.36.25.71.5,1.06.77l.53.4,1,.85.45.38c.48.43.94.86,1.4,1.32h0l3.14,3.14h0c.46.46.89.92,1.32,1.4l.38.45.85,1,.4.53c.27.34.52.7.77,1.06l.33.47c.35.52.68,1,1,1.57h0c.32.53.61,1.07.89,1.62.09.17.17.34.25.51.19.38.38.77.55,1.16.09.19.17.39.25.58.17.4.33.79.48,1.19.06.18.13.35.19.53a32.87,32.87,0,0,1-.42,23.16h0c-.12.3-.26.6-.39.9s-.15.36-.23.54c-.26.58-.55,1.16-.85,1.73l-.33.61c-.24.43-.49.85-.75,1.27l-.33.54c-.37.57-.75,1.13-1.15,1.67-.09.13-.19.25-.29.37-.34.46-.7.9-1.07,1.34l-.39.46C228.75,133.46,228.26,134,227.75,134.5Z"/><path class="cls-2" d="M137.47,204.18c-.23.25-.46.5-.7.74l-9.14,9.14-.19.19-9.14,9.14a18.16,18.16,0,0,1-20,3.84h0a18.23,18.23,0,0,1-4.37-2.65c-.22-.18-.43-.39-.64-.58s-.46-.4-.69-.63l-3.11-3.11c-.22-.22-.42-.46-.63-.69s-.39-.42-.57-.64a18.27,18.27,0,0,1-2.66-4.37h0a18.15,18.15,0,0,1,3.13-19.26h0c.23-.25.46-.5.7-.74l9.14-9.14.19-.19,9.14-9.14a18.19,18.19,0,0,1,25.7,0l3.14,3.14a18,18,0,0,1,3.85,5.7,15.81,15.81,0,0,0,14.65-2.17,32.64,32.64,0,0,0-8.22-13.81l-3.14-3.14a32.75,32.75,0,0,0-46.26,0l-9.14,9.14,0,0-9.33,9.33a32.76,32.76,0,0,0-3.94,41.48l.05.07c.33.5.69,1,1.06,1.47l.22.28c.33.43.68.84,1,1.26l.24.28c.43.49.87,1,1.33,1.42l0,0,3.12,3.11,0,0c.46.46.94.9,1.42,1.33l.29.25c.41.36.83.7,1.25,1l.29.22c.48.36,1,.72,1.47,1.06l.06,0a32.76,32.76,0,0,0,41.48-3.94l9.14-9.14.19-.19,9.14-9.14a32.63,32.63,0,0,0,7.25-11A35.35,35.35,0,0,1,137.47,204.18Z"/><path class="cls-2" d="M186.13,173.79a31.05,31.05,0,0,0,5.57-7.6,37.22,37.22,0,0,1-13.43-.43l-18.55,18.55a19.85,19.85,0,0,1-28,0l-3.14-3.14a19.72,19.72,0,0,1-3.89-5.52,14.09,14.09,0,0,0-11.49,1.5,31,31,0,0,0,7.44,12l3.14,3.14a31.09,31.09,0,0,0,43.92,0Z"/><path class="cls-2" d="M120.6,145.19a30.65,30.65,0,0,0-5.58,7.6,37.21,37.21,0,0,1,13.43.43L147,134.66a19.84,19.84,0,0,1,28,0l3.15,3.15a19.58,19.58,0,0,1,3.89,5.52,14.1,14.1,0,0,0,11.49-1.5,31.14,31.14,0,0,0-7.44-12L183,126.72a31.1,31.1,0,0,0-43.93,0Z"/><path class="cls-3" d="M227.75,129.5l-9.14,9.14-.19.19L209.28,148A32.75,32.75,0,0,1,163,148l-3.14-3.14A32.64,32.64,0,0,1,151.66,131a15.78,15.78,0,0,1,14.65-2.17,18,18,0,0,0,3.85,5.7l3.14,3.14a18.19,18.19,0,0,0,25.7,0l9.14-9.14.19-.19,9.14-9.14a18.17,18.17,0,0,0,3.63-20.47c-.15-.33-.3-.66-.48-1s-.23-.4-.35-.6-.34-.59-.54-.88-.37-.51-.55-.76-.32-.44-.5-.66a16.82,16.82,0,0,0-1.21-1.34l-3.14-3.14A16.82,16.82,0,0,0,213,89.17c-.22-.18-.44-.33-.66-.5s-.5-.38-.76-.55-.59-.37-.89-.54-.39-.25-.59-.35-.66-.33-1-.48a18.15,18.15,0,0,0-20.47,3.63l-9.14,9.14-.19.19-9.14,9.14c-.24.24-.47.49-.7.74a35.31,35.31,0,0,0-16.82,0,32.36,32.36,0,0,1,7.24-11L169,89.43l.19-.19,9.14-9.14a32.76,32.76,0,0,1,34.17-7.66l.53.2c.4.15.79.31,1.19.48l.58.25c.39.17.78.36,1.16.55l.51.25c.55.28,1.09.57,1.62.88h0c.53.31,1,.64,1.57,1,.16.1.31.22.47.33.36.25.71.5,1.06.77l.53.4,1,.85.45.38c.48.43.94.86,1.4,1.32h0l3.14,3.14h0c.46.46.89.92,1.32,1.4l.38.45.85,1c.13.18.27.35.4.52.27.35.52.71.77,1.07l.33.47c.35.52.68,1,1,1.57h0c.32.53.61,1.07.89,1.62.09.17.17.34.25.51.19.38.38.77.55,1.16.09.19.17.39.25.58.17.4.33.79.48,1.19.06.18.13.35.19.53a32.87,32.87,0,0,1-.42,23.16h0c-.12.3-.26.6-.39.9s-.15.36-.23.54c-.26.58-.55,1.16-.85,1.73l-.33.61c-.24.43-.49.85-.75,1.27l-.33.54c-.37.57-.75,1.13-1.15,1.67-.09.13-.19.25-.29.37-.34.46-.7.9-1.07,1.34l-.39.46C228.75,128.45,228.26,129,227.75,129.5Z"/><path class="cls-3" d="M137.47,199.18c-.23.25-.46.5-.7.74l-9.14,9.14-.19.19-9.14,9.14a18.16,18.16,0,0,1-20,3.84h0a18.23,18.23,0,0,1-4.37-2.65l-.64-.58c-.23-.21-.46-.4-.69-.63l-3.11-3.11c-.22-.22-.42-.46-.63-.69s-.39-.42-.57-.64a18.27,18.27,0,0,1-2.66-4.37h0a18.15,18.15,0,0,1,3.13-19.26h0c.23-.25.46-.5.7-.74l9.14-9.14.19-.19,9.14-9.14a18.19,18.19,0,0,1,25.7,0l3.14,3.14a18,18,0,0,1,3.85,5.7,15.81,15.81,0,0,0,14.65-2.17,32.64,32.64,0,0,0-8.22-13.81l-3.14-3.14a32.75,32.75,0,0,0-46.26,0l-9.14,9.14,0,0-9.33,9.33a32.76,32.76,0,0,0-3.94,41.48l.05.07c.33.5.69,1,1.06,1.47l.22.28c.33.43.68.84,1,1.25l.24.29c.43.49.87,1,1.33,1.42l0,0,3.12,3.11,0,0c.46.46.94.9,1.42,1.33l.29.25c.41.36.83.7,1.25,1l.29.21c.48.37,1,.73,1.47,1.07l.06,0a32.76,32.76,0,0,0,41.48-3.94l9.14-9.14.19-.19,9.14-9.14a32.63,32.63,0,0,0,7.25-11A35.35,35.35,0,0,1,137.47,199.18Z"/><path class="cls-4" d="M186.13,168.79a31.05,31.05,0,0,0,5.57-7.6,37.22,37.22,0,0,1-13.43-.43l-18.55,18.55a19.85,19.85,0,0,1-28,0l-3.14-3.14a19.72,19.72,0,0,1-3.89-5.52,14.09,14.09,0,0,0-11.49,1.5,31,31,0,0,0,7.44,12l3.14,3.14a31.09,31.09,0,0,0,43.92,0Z"/><path class="cls-4" d="M120.6,140.19a30.65,30.65,0,0,0-5.58,7.6,37.21,37.21,0,0,1,13.43.43L147,129.66a19.84,19.84,0,0,1,28,0l3.15,3.15a19.58,19.58,0,0,1,3.89,5.52,14.1,14.1,0,0,0,11.49-1.5,31.14,31.14,0,0,0-7.44-12L183,121.72a31.1,31.1,0,0,0-43.93,0Z"/></svg>